<?xml version="1.0" encoding="UTF-8" standalone="no"?>
<svg
   xmlns:dc="http://purl.org/dc/elements/1.1/"
   xmlns:cc="http://creativecommons.org/ns#"
   xmlns:rdf="http://www.w3.org/1999/02/22-rdf-syntax-ns#"
   xmlns:svg="http://www.w3.org/2000/svg"
   xmlns="http://www.w3.org/2000/svg"
   version="1.1"
   id="svg2985"
   height="64px"
   width="64px">
  <defs
     id="defs2987" />
  <metadata
     id="metadata2990">
    <rdf:RDF>
      <cc:Work
         rdf:about="">
        <dc:format>image/svg+xml</dc:format>
        <dc:type
           rdf:resource="http://purl.org/dc/dcmitype/StillImage" />
        <dc:title></dc:title>
      </cc:Work>
    </rdf:RDF>
  </metadata>
  <g
     id="layer1">
    <path
       transform="matrix(0.97940201,0,0,0.984708,0.49102571,0.31358868)"
       d="m 64.346718,32.180195 a 32.173359,31.996582 0 1 1 -64.346718,0 32.173359,31.996582 0 1 1 64.346718,0 z"
       id="path2993"
       style="fill:#ffff00;fill-rule:evenodd;stroke:#000000;stroke-width:1px;stroke-linecap:butt;stroke-linejoin:miter;stroke-opacity:1" />
    <g
       id="text3769"
       style="font-style:normal;font-variant:normal;font-weight:500;font-stretch:normal;font-size:40px;line-height:125%;font-family:'URW Palladio L';-inkscape-font-specification:'URW Palladio L Medium';letter-spacing:0px;word-spacing:0px;fill:#000000;fill-opacity:1;stroke:none">
      <path
         id="path4137"
         style=""
         d="m 29.322873,19.051339 c 1.4,-0.32 2.56,-0.48 3.92,-0.48 4.32,0 6.64,2 6.64,5.8 0,3.6 -2.44,6.12 -5.92,6.12 -0.84,0 -1.44,-0.08 -2.48,-0.4 l 0.4,1.44 c 0.96,0.2 1.52,0.24 2.32,0.24 5.48,0 9.68,-3.72 9.68,-8.52 0,-3.84 -3.12,-6.2 -8.2,-6.2 -0.2,0 -0.6,0 -1.12,0.04 -1.48,0.04 -4.52,0.08 -5.68,0.08 -0.88,0 -0.88,0 -7.28,-0.12 l 0,1.2 1.8,0.12 c 1.8,0.12 2.12,0.64 2.12,3.6 l 0,17.96 c 0,3.16 -0.2,3.48 -2.04,3.6 l -1.92,0.12 0,1.2 c 2.36,-0.08 3.76,-0.12 5.84,-0.12 2.08,0 3.52,0.04 5.88,0.12 l 0,-1.2 -1.92,-0.12 c -1.84,-0.12 -2.04,-0.44 -2.04,-3.6 l 0,-20.88 z" />
    </g>
  </g>
</svg>
