<?xml version="1.0" encoding="UTF-8" standalone="no"?>
<svg
   xmlns:dc="http://purl.org/dc/elements/1.1/"
   xmlns:cc="http://creativecommons.org/ns#"
   xmlns:rdf="http://www.w3.org/1999/02/22-rdf-syntax-ns#"
   xmlns:svg="http://www.w3.org/2000/svg"
   xmlns="http://www.w3.org/2000/svg"
   x="0"
   y="0"
   version="1.0"
   viewBox="0 0 64 64"
   id="svg1466">
  <defs
     id="defs1468">
    <linearGradient
       x1="210.94"
       x2="316.13"
       gradientTransform="matrix(.057667 -1.1999e-8 1.1999e-8 .057667 .43720 2.8375)"
       y1="665.39"
       gradientUnits="userSpaceOnUse"
       y2="665.39"
       id="linearGradient1371">
      <stop
         offset="0"
         style="stop-color:#666666"
         id="stop2267" />
      <stop
         offset="1"
         style="stop-color:#cccccc"
         id="stop2269" />
    </linearGradient>
  </defs>
  <g
     id="layer1">
    <path
       d="m7.1865 58.441c5.6745 1.135 11.348-3.632 15.662-2.497 4.312 1.135 7.263 0 9.76 0.227s7.944 3.632 14.753 2.27 1.362-4.086 2.497-4.313 3.859 0.681 3.859 0.681 2.042 1.362 4.312 0.681 5.901-2.951 3.405-3.178c-2.497-0.227-17.023-4.993-20.428-5.22s-15.661 1.135-18.839 1.816-10.668 0.681-13.392 2.951c-2.7233 2.269-6.8089 5.674-1.5885 6.582z"
       style="fill-rule:evenodd;fill:#cccccc"
       id="path2356" />
    <path
       d="m12.012 16.321s-2.1592 2.314-3.3158 4.858c-1.1566 2.545-2.0819 3.933-0.8482 4.087 1.2338 0.154 7.094-2.699 8.405-3.778 1.311-1.08-4.164-4.935-4.241-5.167z"
       style="fill-rule:evenodd;stroke:#000000;stroke-width:.36042;fill:#ff0000"
       id="path2196" />
    <path
       d="m17.562 6.9217c-0.495-0.0114-0.957 0.0329-1.355 0.1351-2.127 0.5452-3.708 3.0532-4.089 4.9072-0.382 1.854 0.381 4.961 0.872 7.688 0.491 2.726-0.49 4.198-0.49 4.198s-4.9071 2.945-6.2157 4.253c-1.3085 1.309-3.8167 5.561-4.4709 7.142-0.6543 1.581-0.2188 7.471 1.1443 7.526 0.8178 0.109 0.9822-3.273 0.9822-3.273s0.8711-0.055 1.6344-0.218c0.7407-0.159 1.3727-0.693 1.4191-0.745 0.8312 2.562 3.0007 4.451 2.8342-0.727-0.0155-0.488 2.7264-0.599 2.7264-0.599s-0.218-1.2-0.708-1.854c-0.491-0.654-2.4549-1.854-2.4549-1.854s0.7099-0.545 0.9279-0.873c0.218-0.327 1.907-1.472 1.907-1.2 0 0.161-0.081 2.286-0.198 4.217 0.361 0.666 0.526 1.564 0.526 1.564s-0.294 0.027-0.636 0.065c-0.056 0.638-0.118 1.146-0.182 1.352-0.273 0.872 0 5.779-0.054 6.815-0.055 1.036-1.419 2.072-2.4549 2.617s-3.2707 6.707-3.7069 6.979c-0.4361 0.273 1.2545 0.873 2.5085 0.873 1.2541 0 5.0163-2.508 6.1613-2.671 1.145-0.164 4.089-0.928 4.089-0.928l1.036-5.125s1.69-0.818 3.489-1.309c1.799-0.49 3.816 0.11 3.925 0.818 0.109 0.709 0.328 4.908 0.764 5.29 0.436 0.381 2.236 0.654 3.763 0.654 1.526 0 5.451 2.018 6.923 2.072 1.473 0.055 3.164-1.364 3.273-1.854 0.109-0.491-1.691-2.236-3.273-3.163-1.581-0.927-4.197-2.29-4.197-2.29s-0.437-1.417-0.546-2.235-1.581-6.543-2.344-8.452c-0.184-0.46-0.414-1.162-0.654-1.951-0.423 0.296-0.848 0.493-1.091 0.317-0.497-0.362-0.278-2.399 0.152-3.617-0.349-1.288-0.698-2.6-0.698-2.6l2.127 0.6s-0.545 0.437-1.145 1.364c-0.599 0.927-1.035 3.817-0.436 4.253 0.6 0.436 2.399-1.472 2.399-1.472s1.473 5.669 2.29 5.669c0.818 0 1.581-5.015 1.581-5.015s0.981 0.162 1.744-0.056c0.764-0.218 1.036-0.817 1.036-0.817s0.164 0.818 0.601 1.527c0.436 0.709 1.472 2.399 2.072 2.29s0.272-1.69 0.326-4.199c0.055-2.508-1.363-3.871-2.398-6.597-1.036-2.726-4.254-3.653-6.98-4.035s-4.688-1.036-5.233-1.418-0.763-1.527-1.308-2.999c-0.546-1.472-1.036-5.343-2.127-7.851-0.886-2.0383-3.645-3.1392-5.788-3.1883z"
       style="fill-rule:evenodd;stroke:#000000;stroke-width:.28833;fill:#333333"
       id="path1388" />
    <path
       d="m15.559 16.476s-3.933 1.927-5.089 4.472c-1.1569 2.544-1.0027 3.007 0.231 3.161 1.234 0.154 4.241-1.542 5.552-2.621 1.311-1.08-0.617-4.781-0.694-5.012z"
       style="fill-rule:evenodd;fill:#000000;fill-opacity:.49804"
       id="path2198" />
    <path
       d="m25.912 20.361c1.418 1.363 0.327 1.036 1.854 1.417 1.526 0.382 5.18 1.254 6.488 1.582 1.309 0.327 3.162 1.145 3.817 2.235 0.654 1.09 0.872 1.69 0.872 1.69s0.218-1.09-1.581-1.745c-1.799-0.654-4.689-1.363-6.488-1.853-1.8-0.491-2.945-0.164-4.526-1.254-1.581-1.091-1.145-1.2-1.417-3.054-0.273-1.853-0.109-5.452-1.691-6.652-1.581-1.199-4.58-2.126-4.689-2.7802-0.109-0.6543 0.109-2.0174-0.818-2.3991-0.926-0.3816-2.235 0-2.235 0s3.599-0.9814 5.18 0.2726c1.581 1.2541 2.671 3.1627 3.162 4.6887 0.491 1.527 1.581 6.925 2.072 7.852z"
       style="fill-rule:evenodd;fill:#7f7f7f"
       id="path2142" />
    <path
       d="m35.835 27.885s-2.617 0.109-3.162 1.309c-0.545 1.199 0.654 3.598 0.654 3.598s-0.327-2.29 0.654-3.271c0.982-0.982 1.854-1.854 1.854-1.636z"
       style="fill-rule:evenodd;fill:#7f7f7f"
       id="path2144" />
    <path
       d="m13.808 20.797s0.545 2.29-0.764 3.271c-1.308 0.982-4.6885 2.617-6.6514 4.907-1.9628 2.29-4.0347 5.889-4.0347 6.325s4.1438 0.436 4.798-0.872c0.6543-1.309-1.7447-0.109-1.5266-1.527 0.2181-1.417 0.3271-3.162 2.7262-4.689 2.3985-1.527 5.7795-2.399 5.7795-2.399s-0.654-0.327-0.327-1.963c0.327-1.635 0-2.726 0-3.053z"
       style="fill-rule:evenodd;fill:#7f7f7f"
       id="path2146" />
    <path
       d="m20.242 24.941c5.125-0.873 6.87 2.29 6.324 3.489-0.545 1.2 0.109 3.163 0.546 3.926 0.436 0.763 0.218 1.527 0 2.29-0.219 0.763 0.109 0.763 0.654 1.636 0.545 0.872 1.526 3.271 0.654 3.707s-4.144 1.963-6.434 2.508-7.633-1.308-8.069-2.181c-0.436-0.872 0.872-3.053 0.872-3.489s-2.617-3.49-1.308-3.49c1.308 0 1.526-2.726 1.09-3.162s-0.981-2.835 0.654-3.708c1.636-0.872 1.963-0.981 5.017-1.526z"
       style="fill-rule:evenodd;stroke:#000000;stroke-width:.36042;fill:#cccccc"
       id="path2148" />
    <path
       d="m12.089 28.195s-0.309 1.235-2.2366 2.006-2.5445 1.618-2.5445 1.618 1.0799 0.001 1.5426 0.463c0.4626 0.463 0.3081 1.235 0.3081 1.235l0.3605 0.066c-0.0139-0.008-0.128-0.082-0.128-0.082s0.7099-0.545 0.9279-0.873c0.218-0.327 1.907-1.472 1.907-1.2 0 0.094-0.032 0.899-0.078 1.896 0.301-0.119 0.534-0.261 0.557-0.425 0.077-0.54 0.695-1.927 1.235-2.004 0.539-0.077-0.463-0.54-1.466-0.694-1.002-0.154-0.385-2.006-0.385-2.006z"
       style="fill-rule:evenodd;fill:#000000"
       id="path2160" />
    <path
       d="m9.4704 35.917c-0.8891-0.058-1.2362 0.318-1.2362 0.607 0 0.386 0.4611 1.08 1.1551 1.466 0.6937 0.385 0.0788-0.464 0.6957-0.541 0.056-0.007 0.101 0.023 0.14 0.068 0.3-0.096 0.71-0.159 1.12-0.207 0.076-0.435 0.006-0.915-0.799-1.171-0.424-0.135-0.7792-0.203-1.0756-0.222zm-2.8815 0.744c-0.0615 0.031-0.1087 0.132-0.128 0.325-0.0771 0.771-0.0775 1.542-0.0775 1.542s-1.6202 0.309-2.3913 0.078-1.3876-1.62-1.3876-1.62 0.2318 1.003 0.4631 1.542c0.2313 0.54-0.0008 2.159-0.155 3.624-0.0243 0.231-0.0836 0.411-0.1622 0.559 0.0668 0.034 0.1353 0.057 0.2073 0.06 0.8178 0.109 0.9821-3.273 0.9821-3.273s0.8712-0.055 1.6345-0.218c0.7407-0.159 1.3718-0.692 1.4182-0.744 0.6283 1.936 2.0206 3.481 2.5914 1.888-0.4633-0.243-1.0243-0.548-1.4272-0.816-0.694-0.463-1.0795-1.003-1.0795-1.851 0-0.636-0.304-1.186-0.4883-1.096z"
       style="fill-rule:evenodd;fill:#000000"
       id="path2157" />
    <path
       d="m26.817 25.189s0.463 1.541 1.388 2.698c0.403 0.504 0.61 0.808 0.739 1.018l1.746 0.494c0.234-0.147 0.475-0.335 0.676-0.586 0.617-0.771 3.316-1.85 3.316-1.85s-0.772-0.155-2.237-0.849-5.628-0.925-5.628-0.925z"
       style="fill-rule:evenodd;fill:#000000"
       id="path2165" />
    <path
       d="m19.337 17.786c-2.853 0.386-3.547 3.393-2.467 4.704 1.079 1.311 2.218 1.83 3.624 1.619 1.542-0.231 2.313-2.313 2.236-3.855s-0.54-1.928-1.157-2.159-0.385-0.771-2.236-0.309z"
       style="fill-rule:evenodd;stroke:#000000;stroke-width:.36042;fill:#ffff00"
       id="path2168" />
    <path
       d="m16.947 21.565s1.465-1.388 2.853-1.851 2.544 0.771 2.544 0.771"
       style="stroke:#000000;stroke-width:.36042;fill:none"
       id="path2170" />
    <path
       d="m18.221 6.1161c-0.99 0.0051-2.109 0.2768-3.357 0.9515-5.7059 3.0844-2.467 9.2534-2.467 9.2534-0.154 0.077 0.309 0.385 0.541-0.077 0.231-0.463 5.937-4.934 8.405-4.934 2.467 0 2.93 0.694 2.93 0.694s-0.077-1.003-0.386-1.851c-0.241-0.6629-2.13-4.0552-5.666-4.0369zm1.202 1.7859c0.17-0.0084 0.347-0.0049 0.53 0.0144 1.465 0.1542 2.7 0.8488 2.7 0.8488l0.771 1.4648s-0.463-0.8488-2.93-0.5403c-2.468 0.3084-3.008 1.3873-3.008 1.3873l0.155-0.616-0.232-1.8508s0.826-0.6492 2.014-0.7082z"
       style="fill-rule:evenodd;stroke:#000000;stroke-width:.36042;fill:#ff0000"
       id="path2191" />
    <path
       d="m25.68 10.79c-1.562 0.6-4.402 1.629-7.149 2.251-2.651 0.599-5.757 0.555-7.566 0.459-0.28 1.083-0.347 2.238-0.151 3.412 0.234 1.398 0.809 2.654 1.623 3.699 0.222 0.016 0.457 0.01 0.712-0.024 4.512-0.599 4.764-4.238 6.146-4.391 1.381-0.153 0.85 0.876 4.742 1.71 1.288 0.275 2.179 0.221 2.806 0.027 0.357-1.177 0.463-2.45 0.246-3.745-0.212-1.269-0.711-2.414-1.409-3.398z"
       style="stroke-linejoin:bevel;stroke:#000000;stroke-width:.36042;fill:#7f7f7f"
       id="path2179" />
    <path
       d="m11.743 13.526c-0.251 0.81-0.426 1.948-0.117 3.258 0.401 1.708 1.354 3.011 1.973 3.72 0.056-0.011 0.115-0.019 0.169-0.031-0.299-0.54-0.627-1.342-0.445-2.07 0.309-1.234-0.386-2.698-0.077-3.777 0.107-0.374 0.219-0.745 0.257-1.083-0.644 0.006-1.226 0.002-1.76-0.017z"
       style="fill-rule:evenodd;fill:#ffffff"
       id="path2181" />
    <path
       d="m24.776 11.128c-0.158 0.058-0.282 0.106-0.453 0.167 0.51 0.741 0.908 2.248 1.26 3.716 0.257 1.07 0.138 2.276 0.03 3.08 0.087 0 0.165-0.006 0.246-0.009 0.231-0.871 0.409-2.267 0.187-4.15-0.144-1.225-0.71-2.152-1.27-2.804z"
       style="fill-rule:evenodd;fill:#000000"
       id="path2183" />
    <path
       d="m30.826 25.497s-0.694 0.771-0.771 2.082 0 1.388 0 1.388l1.08 0.386s-0.54-0.54-0.155-1.543c0.386-1.002 1.157-1.387 1.157-1.387l-1.311-0.926z"
       style="fill-rule:evenodd;stroke:#000000;stroke-width:.36042;fill:#ffffff"
       id="path2208" />
    <path
       d="m607.06 361.07a44.125 34.765 0 1 1 -88.25 0 44.125 34.765 0 1 1 88.25 0z"
       transform="matrix(.068902 0 0 .074962 -5.6087 -2.8034)"
       style="stroke-linejoin:bevel;stroke:#000000;stroke-width:4.302;fill:#ffffff"
       id="path2204" />
    <path
       d="m607.06 361.07a44.125 34.765 0 1 1 -88.25 0 44.125 34.765 0 1 1 88.25 0z"
       transform="matrix(.057667 0 0 .057667 .75412 3.442)"
       style="stroke-linejoin:bevel;stroke:#000000;stroke-width:5;fill:#ffffff"
       id="path2202" />
    <path
       d="m621.77 409.87a13.371 11.366 0 1 1 -26.75 0 13.371 11.366 0 1 1 26.75 0z"
       transform="matrix(.057667 0 0 .057667 .83123 2.748)"
       style="stroke-linejoin:bevel;stroke:#000000;stroke-width:5;fill:#ffffff"
       id="path2206" />
    <path
       d="m26.633 34.461c-2.033-0.019-4.404 0.058-5.754 0.443-2.698 0.771-10.025 3.393-10.025 3.547l0.233 2.006 7.479 1.157 12.722-2.931s-0.384-2.314-0.461-2.777c-0.063-0.38-0.296-0.922-0.391-1.139-0.422 0.295-0.846 0.492-1.089 0.316-0.125-0.091-0.204-0.291-0.246-0.553-0.664-0.03-1.519-0.06-2.468-0.069z"
       style="fill-rule:evenodd;stroke:#000000;stroke-width:.36042;fill:#ffffff"
       id="path2321" />
    <g
       transform="matrix(.057667 0 0 .057667 .83123 2.748)"
       id="g2232">
      <path
         d="m378.41 496.12a38.108 33.428 0 1 1 -76.22 0 38.108 33.428 0 1 1 76.22 0z"
         style="stroke-linejoin:bevel;stroke:#000000;stroke-width:5;fill:#ffffff"
         id="path2200" />
      <path
         d="m320.91 456a13.371 13.371 0 1 1 -26.74 0 13.371 13.371 0 1 1 26.74 0z"
         style="stroke-linejoin:bevel;stroke:#000000;stroke-width:6.25;fill:#ffffff"
         id="path2210" />
      <path
         d="m290.16 442.63a11.366 12.034 0 1 1 -22.73 0 11.366 12.034 0 1 1 22.73 0z"
         style="stroke-linejoin:bevel;stroke:#000000;stroke-width:6.25;fill:#ffffff"
         id="path2212" />
      <path
         d="m263.41 428.59a12.703 12.703 0 1 1 -25.4 0 12.703 12.703 0 1 1 25.4 0z"
         style="stroke-linejoin:bevel;stroke:#000000;stroke-width:6.25;fill:#ffffff"
         id="path2214" />
      <path
         d="m240.68 405.86a13.371 12.703 0 1 1 -26.74 0 13.371 12.703 0 1 1 26.74 0z"
         style="stroke-linejoin:bevel;stroke:#000000;stroke-width:6.25;fill:#ffffff"
         id="path2216" />
      <path
         d="m219.29 386.47a12.034 10.697 0 1 1 -24.07 0 12.034 10.697 0 1 1 24.07 0z"
         style="stroke-linejoin:bevel;stroke:#000000;stroke-width:6.25;fill:#ffffff"
         id="path2218" />
      <path
         d="m375.73 452.66a12.703 12.703 0 1 1 -25.4 0 12.703 12.703 0 1 1 25.4 0z"
         style="stroke-linejoin:bevel;stroke:#000000;stroke-width:6.25;fill:#ffffff"
         id="path2220" />
      <path
         d="m398.46 432.6a13.371 12.703 0 1 1 -26.74 0 13.371 12.703 0 1 1 26.74 0z"
         style="stroke-linejoin:bevel;stroke:#000000;stroke-width:6.25;fill:#ffffff"
         id="path2222" />
      <path
         d="m415.85 409.87a11.366 12.703 0 1 1 -22.73 0 11.366 12.703 0 1 1 22.73 0z"
         style="stroke-linejoin:bevel;stroke:#000000;stroke-width:6.25;fill:#ffffff"
         id="path2224" />
      <path
         d="m434.57 382.46a13.371 13.371 0 1 1 -26.75 0 13.371 13.371 0 1 1 26.75 0z"
         transform="translate(6.6856 4.0114)"
         style="stroke-linejoin:bevel;stroke:#000000;stroke-width:6.25;fill:#ffffff"
         id="path2226" />
      <path
         d="m458.64 360.4a11.366 12.703 0 1 1 -22.74 0 11.366 12.703 0 1 1 22.74 0z"
         style="stroke-linejoin:bevel;stroke:#000000;stroke-width:6.25;fill:#ffffff"
         id="path2228" />
      <path
         d="m474.68 334.32a11.366 10.697 0 1 1 -22.73 0 11.366 10.697 0 1 1 22.73 0z"
         style="stroke-linejoin:bevel;stroke:#000000;stroke-width:6.25;fill:#ffffff"
         id="path2230" />
    </g>
    <path
       d="m15.867 35.984l3.701 6.091 5.938-0.848 0.925-7.325-10.564 2.082z"
       style="fill-rule:evenodd;stroke:#000000;stroke-width:.36042;fill:#ffffff"
       id="path2323" />
    <path
       d="m33.91 45.623s-2.159 1.927-3.393 2.39c-1.234 0.462-3.777-0.925-3.777-0.925-0.758 0.884-0.487 2.836-0.489 3.902 0.349-0.121 1.013-0.281 1.954-0.125 1.388 0.232 1.078 1.542 2.698 1.696 1.619 0.154 2.854 0.156 4.319 0.696s2.929 1.232 4.086 0.384c1.156-0.849 1.851-0.694 0.926-1.388-0.926-0.694-1.543-1.773-0.772-1.696 0.451 0.045 0.729-0.195 1.381-0.283-0.025-0.037-0.045-0.064-0.07-0.102-1.465-2.236-6.863-4.549-6.863-4.549zm-23.018 0.57c-0.658-0.022-0.9036 0.412-1.1927 0.585-0.3856 0.232-2.4674 2.777-3.624 3.857-0.6032 0.563-1.1392 1.731-1.4525 2.854 0.4092-0.047 0.8508-0.027 1.2975 0.152 1.5422 0.617 0.9262 1.698 2.0057 1.775s3.778-1.312 5.089-1.928c1.311-0.617 1.695-1.543 3.006-1.621 1.213-0.071 2.296-1.261 3.795-1.011-0.009-0.126-0.016-0.252-0.016-0.376 0-1.157-1.312-2.775-1.312-2.775 0.077 0.077-1.387-0.463-3.161 0-1.773 0.462-2.313-0.773-3.624-1.312-0.328-0.135-0.591-0.193-0.811-0.2z"
       style="fill-rule:evenodd;stroke:#000000;stroke-width:.36042;fill:#ffffff"
       id="path2273" />
    <path
       d="m11.164 40.765s4.857-1.157 10.101-2.082c5.243-0.926 9.87-1.62 9.87-1.62s1.542 2.237 1.85 3.239c0.309 1.002 0.232 2.159 1.003 1.696 0.771-0.462 1.388-0.771 1.233-0.077-0.154 0.694-1.696 1.928-0.925 2.082s1.388 1.08 0.617 1.311-2.93 1.928-3.701 2.853-1.465 1.311-2.93 1.619c-1.465 0.309-1.774 1.465-1.543 0.771 0.232-0.694 0.232-1.156-0.385-0.848-0.617 0.309-1.157 0.231-0.848-0.154 0.308-0.386 1.079-1.311 0.385-1.234s-1.388 0.231-1.388 0.231-0.771-1.387 0.155-1.619c0.925-0.231 2.081-0.308 2.081-0.308s-1.233-0.463-4.318 0c-3.084 0.462-3.547 1.156-3.547 1.156l0.849 0.694-0.617 1.388s-2.776 0.54-5.244-0.771c-2.467-1.311-4.3176-2.313-4.3176-2.313s0.4626-0.54 0.1542-0.848c-0.3084-0.309-1.1566-0.54-0.694-0.694 0.4627-0.154 1.8504-1.08 1.9274-1.388 0.077-0.309-1.696-0.154-1.3105-0.848s1.3105-0.926 1.3875-1.234c0.078-0.308 0-0.925 0.155-1.002z"
       style="fill-rule:evenodd;stroke:#000000;stroke-width:.36042;fill:#556b2f"
       id="path2254" />
    <path
       d="m26.489 33.728c-1.466-0.025-3.334 0.055-5.561 0.373-3.823 0.546-6.826 1.788-8.495 2.609 0.075 0.279 0.121 0.499 0.121 0.499s-0.622 0.031-1.269 0.11c-0.088 0.052-0.304 0.175-0.304 0.175l-0.076 1.388s5.087-2.16 9.868-3.086c3.389-0.655 6.936-0.69 8.735-0.656-0.059-0.008-0.114-0.023-0.161-0.057-0.21-0.153-0.287-0.614-0.279-1.179-0.628-0.079-1.476-0.158-2.579-0.176zm4.03 0.98c-0.326 0.238-0.656 0.421-0.914 0.434 0.684 0.015 1.116 0.038 1.116 0.038l-0.202-0.472z"
       style="fill-rule:evenodd;stroke:#000000;stroke-width:.36042;fill:#ffffff"
       id="path2319" />
    <path
       d="m40.843 50.274c-0.652 0.088-0.93 0.328-1.381 0.283-0.771-0.077-0.154 1.002 0.772 1.696 0.925 0.694 0.23 0.539-0.926 1.388-1.157 0.848-2.621 0.156-4.086-0.384s-2.7-0.542-4.319-0.696c-1.62-0.154-1.31-1.464-2.698-1.696-0.941-0.156-1.605 0.004-1.954 0.125 0 0.236-0.01 0.443-0.052 0.569-0.231 0.694 0.078 0.618 0.463 1.312 0.386 0.694 3.238 0.924 4.241 0.847 1.002-0.077 0.617 0.618 1.62 0.926 1.002 0.309 3.161 0.847 5.783 0.847 2.621 0 2.622-0.848 3.701-1.85 1.061-0.986 0.255-1.235-1.164-3.367zm-21.56 0.546c-1.234 0.057-2.197 0.985-3.262 1.047-1.311 0.078-1.695 1.004-3.006 1.621-1.311 0.616-4.0095 2.005-5.089 1.928s-0.4635-1.158-2.0057-1.775c-0.4467-0.179-0.8883-0.199-1.2975-0.152-0.2875 1.031-0.389 2.023-0.1676 2.466 0.4627 0.925 2.4675 1.002 4.0096 0.771 1.5422-0.231 4.1642-1.696 5.0892-2.775 0.925-1.08 0.926-0.386 1.543-0.078 0.616 0.309 4.086-0.617 4.625-0.771 0.482-0.138 0.168-1.197 0.094-2.246-0.183-0.03-0.362-0.043-0.533-0.036z"
       style="fill-rule:evenodd;fill:#000000"
       id="path2282" />
    <path
       d="m32.705 39.653c-0.041 0.217-0.095 0.451-0.182 0.726-0.54 1.697-1.235 2.699-0.463 2.545 0.458-0.092 0.849-0.567 1.322-1.065-0.164-0.337-0.215-0.969-0.396-1.557-0.056-0.181-0.162-0.408-0.281-0.649zm2.281 2.735c-0.176 0.043-0.351 0.111-0.535 0.228-0.848 0.539-1.929 1.541-2.391 2.003-0.463 0.463-0.154 0.926 0.848 0.464 0.76-0.351 0.724-1.23 1.231-1.469 0.141-0.329 0.566-0.801 0.847-1.226zm-22.457 0.417c-0.221 0.006-0.474 0.066-0.748 0.196-0.633 0.3-1.19 0.464-1.691 0.548 0.403 0.1 0.883 0.135 0.842 0.299-0.048 0.19-0.589 0.603-1.1084 0.937 0.9964 0.233 1.7384 0.239 2.8814-0.396 1.128-0.627 0.78-1.61-0.176-1.584zm13.135 0.872c-0.075 0.011-0.177 0.065-0.312 0.171-0.675 0.53-1.14 1.844-1.562 2.622 0.479-0.037 0.902-0.051 1.256-0.047 0.42-1.052 1.114-2.822 0.618-2.746zm-5.819 0.461c-0.183-0.025-0.31 0.068-0.353 0.328-0.186 1.113 1.014 2.125 0.98 2.563 0.492-0.14 1.121-0.279 1.95-0.404 0.069-0.01 0.124-0.014 0.191-0.023-0.777-0.808-2.118-2.373-2.768-2.464zm7.666 1.022c-0.747 0.042-1.534 0.768-2.054 1.278 0.879 0.046 1.283 0.187 1.283 0.187s-0.887 0.066-1.73 0.236c-0.07 0.055-0.12 0.078-0.121 0.025-0.077 0.017-0.156 0.029-0.231 0.047-0.189 0.048-0.304 0.145-0.373 0.267 0.972-0.043 1.731-0.127 2.84-0.652 1.465-0.694 1.774-1.465 0.386-1.388zm-10.375 0.571c-0.064 0.007-0.126 0.021-0.189 0.045-1.002 0.386-0.617 1.619 0.694 1.696 0.443 0.026 0.907 0.111 1.337 0.207 0.118-0.1 0.372-0.263 0.898-0.457-0.874-0.197-1.878-1.578-2.74-1.491zm-7.3809 0.285c0.0942 0.174 0.0224 0.377-0.0648 0.535 0.1793 0.036 0.3617 0.082 0.5477 0.152 1.234 0.462 2.313 1.078 2.545 0.461 0.202-0.54-1.791-0.948-3.0279-1.148zm19.147 1.139c-0.824-0.013-3.533 1.156-4.44 1.312 0.012 0.023 0.041 0.085 0.041 0.085s0.694-0.154 1.388-0.231c0.266-0.03 0.315 0.09 0.259 0.268 0.12-0.046 0.24-0.088 0.357-0.113 1.08-0.231 2.854-0.772 2.622-1.235-0.029-0.057-0.108-0.084-0.227-0.086zm-12.234 0.663c-0.237-0.013-0.435 0.06-0.57 0.272-0.539 0.848-0.077 0.771 1.08 0.925 0.764 0.102 1.561 0.27 2.128 0.396l0.27-0.607c-0.082 0.004-0.185-0.001-0.317-0.02-0.809-0.116-1.879-0.926-2.591-0.966zm12.724 0.251c-0.024 0-0.059 0.007-0.108 0.021-0.524 0.158-1.651 1.019-2.685 1.536 0.178-0.032 0.261 0.052 0.276 0.216 1.013-0.468 2.862-1.776 2.517-1.773z"
       style="fill-rule:evenodd;fill:#000000;fill-opacity:.2"
       id="path2256" />
    <path
       d="m10.701 39.454l0.077 2.621s5.783-1.31 10.872-2.159c5.089-0.848 10.256-1.465 10.256-1.465l-0.694-2.776s-5.706 0.617-10.333 1.465c-4.626 0.849-10.101 2.314-10.178 2.314z"
       style="fill-rule:evenodd;stroke:#000000;stroke-width:.36042;fill:#f5f5dc"
       id="path2261" />
    <path
       d="m7.2312 50.866c1.0795 1.233 1.3879 1.388 2.5445 1.696m-1.8433-3.686s0.4826 1.416 3.3786 2.36m-1.4582-3.763s0.5402 0.077 1.8502 0.771c1.311 0.694 1.928 1.311 1.928 1.311m17.581 0.154s0.694-1.465 2.236-2.544c1.542-1.08 1.079-0.54 1.079-0.54m-1.002 4.241s0.694-0.694 1.773-2.082c1.08-1.388 0.926-1.388 0.926-1.388m0 3.315s0.231-1.31 1.002-1.927 0.54-0.463 0.54-0.463"
       style="stroke-linejoin:round;stroke:#000000;stroke-linecap:round;stroke-width:1.0813;fill:none"
       id="path2300" />
    <path
       d="m21.959 39.222l-1.928 0.308c-0.155 0 0.694 2.931 1.079 4.396 0.181 0.689 0.225 1.851 0.222 2.894 0.322-0.068 0.68-0.133 1.09-0.195 0.384-0.057 0.739-0.102 1.067-0.133 0-0.945-0.045-2.034-0.22-2.875-0.386-1.85-1.31-4.395-1.31-4.395z"
       style="fill-rule:evenodd;stroke:#000000;stroke-width:.36042;fill:#556b2f"
       id="path2325" />
    <rect
       height="4.4722"
       x="12.781"
       y="38.972"
       width="5.706"
       transform="rotate(-8.0704)"
       ry="5"
       rx="5"
       style="stroke-linejoin:bevel;stroke:#000000;stroke-width:.36042;fill:url(#linearGradient1371)"
       id="rect2263" />
  </g>
  <metadata
     id="metadata264">
    <rdf:RDF>
      <cc:Work>
        <dc:format>image/svg+xml</dc:format>
        <dc:type
           rdf:resource="http://purl.org/dc/dcmitype/StillImage" />
        <cc:license
           rdf:resource="http://creativecommons.org/publicdomain/zero/1.0/" />
        <dc:publisher>
          <cc:Agent
             rdf:about="http://openclipart.org/">
            <dc:title></dc:title>
          </cc:Agent>
        </dc:publisher>
        <dc:title></dc:title>
        <dc:date></dc:date>
        <dc:description></dc:description>
        <dc:source></dc:source>
        <dc:creator>
          <cc:Agent>
            <dc:title></dc:title>
          </cc:Agent>
        </dc:creator>
        <dc:subject>
          <rdf:Bag />
        </dc:subject>
      </cc:Work>
      <cc:License
         rdf:about="http://creativecommons.org/publicdomain/zero/1.0/">
        <cc:permits
           rdf:resource="http://creativecommons.org/ns#Reproduction" />
        <cc:permits
           rdf:resource="http://creativecommons.org/ns#Distribution" />
        <cc:permits
           rdf:resource="http://creativecommons.org/ns#DerivativeWorks" />
      </cc:License>
    </rdf:RDF>
  </metadata>
</svg>
