<?xml version="1.0" encoding="UTF-8" standalone="no"?>
<svg
   xmlns:dc="http://purl.org/dc/elements/1.1/"
   xmlns:cc="http://creativecommons.org/ns#"
   xmlns:rdf="http://www.w3.org/1999/02/22-rdf-syntax-ns#"
   xmlns:svg="http://www.w3.org/2000/svg"
   xmlns="http://www.w3.org/2000/svg"
   version="1.1"
   id="svg2"
   viewBox="0 0 744.09448819 1052.3622047"
   height="297mm"
   width="210mm">
  <defs
     id="defs4" />
  <metadata
     id="metadata7">
    <rdf:RDF>
      <cc:Work
         rdf:about="">
        <dc:format>image/svg+xml</dc:format>
        <dc:type
           rdf:resource="http://purl.org/dc/dcmitype/StillImage" />
        <dc:title></dc:title>
      </cc:Work>
    </rdf:RDF>
  </metadata>
  <g
     id="layer1">
    <text
       id="text3336"
       y="392.36221"
       x="34.285713"
       style="font-style:normal;font-variant:normal;font-weight:normal;font-stretch:normal;font-size:40px;line-height:125%;font-family:'Droid Arabic Naskh';-inkscape-font-specification:'Droid Arabic Naskh';letter-spacing:0px;word-spacing:0px;fill:#000000;fill-opacity:1;stroke:none;stroke-width:1px;stroke-linecap:butt;stroke-linejoin:miter;stroke-opacity:1"
       xml:space="preserve"><tspan
         y="392.36221"
         x="34.285713"
         id="tspan3338" /></text>
    <text
       id="text3348"
       y="323.79077"
       x="85.714287"
       style="font-style:normal;font-variant:normal;font-weight:normal;font-stretch:normal;font-size:180px;line-height:125%;font-family:'Droid Arabic Naskh';-inkscape-font-specification:'Droid Arabic Naskh';letter-spacing:0px;word-spacing:0px;fill:#aa0000;fill-opacity:1;stroke:none;stroke-width:1px;stroke-linecap:butt;stroke-linejoin:miter;stroke-opacity:1;"
       xml:space="preserve"><tspan
         y="323.79077"
         x="85.714287"
         id="tspan3350" /></text>
    <text
       id="text3352"
       y="403.79077"
       x="245.71429"
       style="font-style:normal;font-variant:normal;font-weight:normal;font-stretch:normal;font-size:180px;line-height:125%;font-family:'Droid Arabic Naskh';-inkscape-font-specification:'Droid Arabic Naskh';letter-spacing:0px;word-spacing:0px;fill:#aa0000;fill-opacity:1;stroke:none;stroke-width:1px;stroke-linecap:butt;stroke-linejoin:miter;stroke-opacity:1;"
       xml:space="preserve"><tspan
         y="403.79077"
         x="245.71429"
         id="tspan3354" /></text>
    <text
       transform="scale(0.75640089,1.3220503)"
       id="text3356"
       y="395.46057"
       x="25.30456"
       style="font-style:normal;font-variant:normal;font-weight:normal;font-stretch:normal;font-size:493.32015991px;line-height:125%;font-family:'Droid Arabic Naskh';-inkscape-font-specification:'Droid Arabic Naskh';letter-spacing:0px;word-spacing:0px;fill:#000000;fill-opacity:1;stroke:none;stroke-width:1px;stroke-linecap:butt;stroke-linejoin:miter;stroke-opacity:1"
       xml:space="preserve"><tspan
         y="395.46057"
         x="25.30456"
         id="tspan3358">404</tspan></text>
    <text
       transform="scale(1.2462358,0.80241634)"
       id="text3360"
       y="1132.1013"
       x="-24.836433"
       style="font-style:normal;font-variant:normal;font-weight:normal;font-stretch:normal;font-size:571.57293701px;line-height:125%;font-family:'Droid Arabic Naskh';-inkscape-font-specification:'Droid Arabic Naskh';letter-spacing:0px;word-spacing:0px;fill:#000000;fill-opacity:1;stroke:none;stroke-width:1px;stroke-linecap:butt;stroke-linejoin:miter;stroke-opacity:1"
       xml:space="preserve"><tspan
         y="1132.1013"
         x="-24.836433"
         id="tspan3362">:'(</tspan></text>
    <path
       id="path3364"
       d="m 160.71429,464.64792 0,-55.71429 -61.428576,0 -61.428571,0 0.10368,-29.28571 0.103681,-29.28572 56.428773,-150 L 150.92205,50.362205 172.96103,49.527735 195,48.693266 l 0,154.405894 0,154.4059 20,0 20,0 0,25.71429 0,25.71428 -20,0 -20,0 0,55.71429 0,55.71428 -17.14286,0 -17.14285,0 0,-55.71428 z m 0,-234.76191 c 0,-70.19047 -0.57075,-127.04829 -1.26834,-126.35071 -1.22959,1.22959 -93.017379,250.8039 -93.017379,252.91762 0,0.57868 21.214286,1.05214 47.142859,1.05214 l 47.14286,0 0,-127.61905 z"
       style="fill:#d40000" />
    <path
       id="path3366"
       d="m 362.14286,529.19875 c -13.09699,-3.25457 -19.51851,-7.45832 -31.28013,-20.47703 -34.71594,-38.4264 -49.1753,-114.6336 -46.30993,-244.0738 1.91407,-86.46638 6.65552,-120.45334 22.52057,-161.42857 15.05987,-38.895686 35.88281,-59.681559 62.33416,-62.223198 57.11684,-5.488205 89.92418,61.094508 96.86249,196.583078 7.51292,146.7092 -16.43777,258.44043 -60.87959,284.00652 -13.41251,7.71583 -30.6342,10.74743 -43.24757,7.613 z M 395,475.10609 c 11.37076,-8.2622 22.91281,-32.85089 28.77387,-61.29857 8.25956,-40.08929 12.0529,-118.56831 8.56278,-177.15255 C 426.05818,131.26588 409.3488,88.933633 374.02813,88.933633 c -9.06131,0 -13.10842,1.990617 -21.78314,10.714286 -22.82608,22.954881 -31.61401,65.516381 -33.6463,162.955131 -2.17569,104.3145 5.55309,167.02053 24.37464,197.75915 13.40956,21.89998 34.10621,27.76523 52.02667,14.74389 z"
       style="fill:#d40000" />
    <path
       id="path3368"
       d="m 637.85714,464.64792 0,-55.71429 -61.42857,0 -61.42857,0 0,-31.39288 0,-31.39292 51.15661,-136.46424 c 28.13614,-75.05533 53.34718,-141.928528 56.02452,-148.6071 l 4.8679,-12.142857 21.11834,0 21.11834,0 0,154.285717 0,154.28571 20,0 20,0 0,25.58374 0,25.58375 -19.28571,0.84483 -19.28571,0.84482 -0.77598,55 -0.77598,55 -15.6526,0 -15.65259,0 0,-55.71428 z m 0,-234.28572 c 0,-69.92857 -0.96428,-127.12585 -2.14285,-127.10507 -1.81422,0.032 -19.27673,46.7696 -85.58699,229.06962 l -9.15842,25.17831 48.44413,0 48.44413,0 0,-127.14286 z"
       style="fill:#d40000" />
    <path
       id="path3370"
       d="m 55,698.93363 0,-27.14285 34.285714,0 34.285716,0 0,27.14285 0,27.14286 -34.285716,0 -34.285714,0 0,-27.14286 z"
       style="fill:#d40000" />
    <path
       id="path3372"
       d="m 55,878.93363 0,-27.14285 34.285714,0 34.285716,0 0,27.14285 0,27.14286 -34.285716,0 -34.285714,0 0,-27.14286 z"
       style="fill:#d40000" />
    <path
       id="path3374"
       d="m 280.71429,636.07649 0,-61.42857 27.14285,0 27.14286,0 0,61.42857 0,61.42857 -27.14286,0 -27.14285,0 0,-61.42857 z"
       style="fill:#d40000" />
    <path
       id="path3376"
       d="m 560.4011,955.3622 c -75.35254,-78.93485 -104.95436,-161.938 -85.42938,-239.54296 10.96111,-43.5666 41.94627,-95.83193 81.84793,-138.05999 l 16.75178,-17.72846 24.70385,0.87999 24.70384,0.88 -16.61129,20.57023 c -34.69692,42.96617 -58.26494,89.5394 -67.64179,133.66829 -3.07154,14.45511 -3.88271,30.80653 -2.908,58.61862 1.44685,41.28411 5.85153,60.33305 22.42291,96.97248 8.94152,19.76972 38.75998,65.37569 55.6868,85.17038 l 10.38359,12.14285 -25.47736,0 -25.47736,0 -12.95552,-13.57143 z"
       style="fill:#d40000" />
  </g>
</svg>
