<?xml version="1.0" encoding="UTF-8" standalone="no"?>
<svg
   xmlns:dc="http://purl.org/dc/elements/1.1/"
   xmlns:cc="http://creativecommons.org/ns#"
   xmlns:rdf="http://www.w3.org/1999/02/22-rdf-syntax-ns#"
   xmlns:svg="http://www.w3.org/2000/svg"
   xmlns="http://www.w3.org/2000/svg"
   version="1.1"
   viewBox="0 0 744.09 1052.4"
   id="svg2">
  <defs
     id="defs90" />
  <g
     id="layer2">
    <rect
       x="5.2662"
       y=".25226"
       width="742.55"
       height="1047.1"
       style="fill:#ffe6d5"
       id="rect3859" />
    <path
       d="m417.13 931.72c109.94-8.7909 206.67-72.749 254.89-168.53 35.291-70.096 43.775-149.68 25.67-240.79-6.7634-34.032-15.227-61.715-33.825-110.64-12.362-32.516-17.021-46.64-19.015-57.647-5.6186-31.004 1.0037-55.102 22.978-83.615 8.5182-11.053 8.9131-11.653 8.1642-12.402-1.0356-1.0356-25.083 7.1786-31.042 10.604-34.899 20.057-54.001 50.446-65.403 104.05-8.1634 38.375-9.8935 59.189-9.9221 119.37-0.0236 49.607 0.47894 60.96 5.2317 118.2 7.6174 91.747 8.1302 103.52 5.229 120.09-3.917 22.366-15.111 46.997-31.26 68.785-6.7271 9.0761-30.934 35.406-31.689 34.651-0.24876-0.2488 10.581-13.152 12.856-16.931 8.0727-13.406 12.434-32.989 9.9791-44.813l-1.316-6.3392-35.204-19.689c-41.85-23.39-57.97-33.74-69.64-44.67l-8.6606-8.1127 0.0348-23.141c0.054-35.845 3.0411-55.229 20.795-134.94 15.899-71.385 18.496-88.633 18.587-123.45 0.0708-27.198-1.4494-38.812-7.4255-56.728-5.6319-16.884-12.683-29.667-24.087-43.669-2.8436-3.4911-4.9072-7.0325-4.586-7.8698 0.37608-0.98008-0.11532-1.3394-1.3796-1.0087-1.1324 0.2961-3.3148-0.89669-5.1551-2.8175l-3.1913-3.331 7.5162-5.5188c7.1109-5.2212 21.601-19.842 21.601-21.796 0-0.49813-4.5855 1.4097-10.19 4.2397-11.127 5.6182-18.588 7.4985-26.304 6.6288l-5.0015-0.56373 9.4325-4.934c10.022-5.2425 33.666-20.382 32.95-21.098-0.23436-0.23436-4.3293 0.94901-9.0999 2.6297-11.437 4.0293-29.603 5.0279-40.714 2.2381-20.565-5.1635-40.734-20.124-54.337-40.304-1.9428-2.8823-6.3301-10.481-9.7495-16.886-8.0077-15-12.78-21.42-23.372-31.444-7.1832-6.7976-32.015-25.038-34.085-25.038-0.93562 0-2.665 6.8532-7.2 28.532-4.2234 20.19-7.4001 32.036-8.5842 32.013-0.36342-0.006-4.5808-7.7371-9.372-17.178-7.3642-14.51-9.9241-18.38-16.555-25.025-4.3142-4.3235-8.5802-7.8609-9.48-7.8609-1.2271 0-1.9782 3.2755-3.0044 13.102-2.1066 20.171-4.7535 37.779-6.3891 42.504-1.2011 3.4694-3.0071 5.1709-9.5324 8.9807-10.047 5.8661-25.58 21.24-30.052 29.745-6.7158 12.771-7.3436 13.129-45.964 26.18-48.075 16.247-54.569 18.801-66.25 26.062-2.721 1.6914-4.9483 3.4458-4.9495 3.8986-0.004 1.5431 15.697 13.385 23.29 17.564 12.109 6.6662 23.766 10.018 39.223 11.278 16.925 1.3795 19.934 0.75683 49.285-10.199 27.581-10.296 36.264-12.482 49.495-12.464 9.3389 0.0127 11.306 0.41203 18.051 3.6612 9.0185 4.3446 13.478 8.3758 16.412 14.837 2.7604 6.0784 2.7624 9.7025 0.008 17.535-4.4243 12.588-16.541 27.168-34.798 41.874-4.6629 3.7558-8.2736 7.0332-8.0237 7.283 0.24989 0.24988 8.1706-1.1752 17.602-3.1668 9.431-1.9916 17.358-3.4099 17.616-3.1518 0.60749 0.60749-5.8596 9.6716-10.472 14.678-4.1346 4.4872-13.177 9.2861-32.118 17.045-7.366 3.0173-13.917 6.0379-14.557 6.7125-0.79583 0.83812-0.61146 1.0353 0.58228 0.6227 7.0391-2.433 45.765-13.756 46.055-13.466 0.20049 0.20048-7.0666 8.076-16.149 17.501-17.335 17.99-28.213 26.576-44.216 34.902-5.1476 2.6781-8.8737 5.0312-8.2801 5.2291 0.5936 0.19795 11.254-3.042 23.691-7.1997 12.436-4.1577 22.797-7.3735 23.025-7.1463 0.6377 0.6377-16.988 16.809-22.307 20.467-7.2845 5.0091-20.87 11.635-32.564 15.883-5.8279 2.1169-9.9199 3.875-9.0934 3.907 0.82647 0.032 10.98-2.3219 22.564-5.2308s21.227-5.1231 21.43-4.9204c0.2028 0.2028-5.2344 6.163-12.083 13.245-10.861 11.231-13.79 13.551-22.933 18.159-5.7647 2.9052-13.054 6.2409-16.199 7.4126-11.27 4.1993-3.1658 2.7388 19.637-3.5388 12.76-3.5129 23.358-6.2299 23.55-6.0378 0.19205 0.19205-3.7054 4.5296-8.6612 9.6388-7.5439 7.7774-10.811 10.164-20.074 14.662-6.0849 2.9551-15.78 7.0049-21.545 8.9996-5.7647 1.9946-11.211 3.888-12.104 4.2074-0.89232 0.3194-1.3919 0.81121-1.1102 1.0929 0.28171 0.28169 15.423-2.3483 33.648-5.8445s33.529-6.3593 34.01-6.3625c1.4773-0.008 0.96636 10.33-0.70645 14.298-2.7479 6.5178-10.962 15.73-22.637 25.388-6.2167 5.1426-11.458 9.7863-11.648 10.319-0.18952 0.53295 3.2169 0.1853 7.5698-0.77271 4.3529-0.95795 13.244-1.8161 19.759-1.907 10.362-0.14462 12.257 0.14061 15.14 2.279 6.6246 4.9141 4.072 14.52-8.1689 30.741-3.6228 4.8008-6.587 9.1131-6.587 9.583 0 0.9438 16.54-8.8883 28.819-17.131l7.8656-5.2803 1.5099 17.772c0.83045 9.7745 1.1934 19.509 0.8065 21.632-1.2639 6.9364-12.071 26.292-22.27 39.886-11.47 15.289-20.907 25.946-44.765 50.551-9.334 9.6264-17.85 18.798-18.924 20.382-3.7274 5.4938-1.6022 19.517 4.9036 32.357 16.948 33.448 72.87 79.089 135.12 110.28 26.718 13.386 45.046 19.694 66.481 22.878 29.776 4.4238 48.63 5.2893 72.914 3.3475h0.00012z"
       style="stroke-linejoin:round;stroke:#000000;stroke-linecap:round;stroke-width:6.3243;fill:#ffffff"
       id="path3014" />
    <path
       d="m277.06 144.88c-6.4167 22.282-7.7048 43.364-15.152 63.441-15.181-31.548-20.505-43.506-36.629-53.362-1.8337 7.9081-3.2654 46.97-9.5524 61.201-16.982 7.2816-31.913 19.596-42.426 41.504-6 12.504-74.222 22.318-112.59 47.894 23.634 22.05 47.45 29.301 67.064 28.262 23.195 6.9678 74.608-34.752 110.48-20.225 52.806 22.865-13.202 75.541-25.759 83.139l39.066-7.9713c-18.435 19.939-0.0744 16.773-61.794 40.647l52.044-15.613c-22.024 19.884-27.912 38.364-73.521 60.213l52.044-17.326c-16.524 14.817-25.795 30.216-69.37 42.953l49.541-12.385c-20.352 14.584-13.95 26.928-61.069 43.743l53.625-14.823c-20.375 13.283-4.0474 20.151-69.304 41.24l69.304-13.176c-0.6271 11.048 8.3315 17.09-36.299 51.188 72.8-16.513 44.521 19.384 27.801 39.725 15.751-8.965 27.8-16.591 37.287-23.848 1.0671 12.176 2.1748 24.916 3.1622 38.605-12.96 48.78-88.07 108.48-88.33 115.7-9.17 64.11 161.14 161.51 206.59 161.99 182.66 33.19 400.34-115.15 358.05-382.75-25.97-164.31-103.82-193.95-25.23-286.11-152.02 25.99-98.78 331.34-93.48 443.49 2.3108 48.894-24.236 95.897-66.142 133.34 5.8566-7.0852 10.606-14.142 14.279-21.044 9.5153-17.875 11.817-34.704 7.4605-48.26-59.54-34.194-93.91-48.997-112.72-72.335-15.622-120.83 94.787-292.09 1.2517-388.82 0.63321-0.86728 1.2038-1.7222 1.7787-2.6352-0.8374 0.68366-1.6422 1.2587-2.5034 1.8446-2.6837-2.7324-5.5434-5.3622-8.5642-7.9713 16.136-9.9994 22.838-18.652 30.107-27.471-14.088 7.8488-26.249 15.76-44.534 10.079 8.9147 0 42.029-23.152 45.456-25.759-0.13007 0.0822-0.24488 0.0725-0.52703 0.26351-49.837 22.928-94.387-11.087-113.05-51.056-14.183-32.091-42.134-47.01-57.841-57.512z"
       style="fill:#d45500"
       id="path3812" />
    <path
       d="m193.58 262.19c12.205 4.3841 32.267 7.604 73.474 7.6915-38.556-1.0101-12.734-31.905-26.313-48.375 12.007 25.839-27.712 15.275-47.161 40.684z"
       style="stroke:#000000;stroke-width:.016193px;fill:#241f1c"
       id="path3857" />
    <path
       d="m194.52 261.49c34.29 8.5174 38.702-3.8269 45.063-18.639-9.1792-0.31759-24.397 1.3168-45.063 18.639z"
       style="fill:#ffffff"
       id="path3810" />
    <path
       d="m60.399 305.51c9.669-6.7156 18.533-11.906 30.361-15.383-0.10645 2.1643 3.0205 9.0212-1.6193 16.8-2.0496-3.5067-4.7231-2.0216-7.2867-1.4168-2.514 2.7168-0.0871 4.4474 2.6313 6.6794l-5.1614 7.3879c-2.9031-0.0888-13.131-9.0756-18.925-14.067z"
       style="fill:#483e37"
       id="path3820" />
    <path
       d="m267.48 209.26c10.419 6.9536 14.19-6.1524 25.19 2.0037 3.643 7.0685 14.766 2.9726 18.32 1.145-6.1153-22.225-16.824-46.178-33.491-60.112-4.817 19.973-9.6686 39.968-10.019 56.963z"
       style="fill:#6c5d53"
       id="path3822" />
    <path
       d="m127.75 333.83c37.139-12.961 70.923-32.925 107.38-31.546-36.163 2.0863-66.95 18.664-103.11 32.276-1.5919-0.12016-3.0452-0.34109-4.2667-0.73075z"
       style="fill:#241f1c"
       id="path3844" />
    <path
       d="m570.97 437.36c8.8676-80.623 19.445-157.99 104.46-179.01-31.058 39.042-33.518 58.3-33.15 78.176 0.54752 29.552 13.936 60.084 39.707 127.14-7.559-5.5436-8.561-14.834-23.103-16.387-4.9721 1.2972-10.402 4.9752-18.097 20.432-3.5226-12.593-5.7661-24.067-13.427-40.281-9.8551 5.9433-17.057 12.948-18.681 22.184-4.5261-5.7041-8.8497-11.519-19.265-14.011-7.2016 5.8378-7.3438 11.676-8.1729 17.513-0.62076-6.4504-0.0169-13.056-10.266-15.762z"
       style="fill:#241f1c"
       id="path3009" />
  </g>
  <metadata
     id="metadata88">
    <rdf:RDF>
      <cc:Work>
        <dc:format>image/svg+xml</dc:format>
        <dc:type
           rdf:resource="http://purl.org/dc/dcmitype/StillImage" />
        <cc:license
           rdf:resource="http://creativecommons.org/publicdomain/zero/1.0/" />
        <dc:publisher>
          <cc:Agent
             rdf:about="http://openclipart.org/">
            <dc:title></dc:title>
          </cc:Agent>
        </dc:publisher>
        <dc:title></dc:title>
      </cc:Work>
      <cc:License
         rdf:about="http://creativecommons.org/publicdomain/zero/1.0/">
        <cc:permits
           rdf:resource="http://creativecommons.org/ns#Reproduction" />
        <cc:permits
           rdf:resource="http://creativecommons.org/ns#Distribution" />
        <cc:permits
           rdf:resource="http://creativecommons.org/ns#DerivativeWorks" />
      </cc:License>
    </rdf:RDF>
  </metadata>
</svg>
