<?xml version="1.0" encoding="UTF-8" standalone="no"?>
<svg
   xmlns:dc="http://purl.org/dc/elements/1.1/"
   xmlns:cc="http://creativecommons.org/ns#"
   xmlns:rdf="http://www.w3.org/1999/02/22-rdf-syntax-ns#"
   xmlns:svg="http://www.w3.org/2000/svg"
   xmlns="http://www.w3.org/2000/svg"
   xmlns:xlink="http://www.w3.org/1999/xlink"
   id="svg2"
   height="35.079556mm"
   width="24.004723mm"
   version="1.1">
  <title
     id="title4191">Eikuru</title>
  <defs
     id="defs4">
    <style
       id="style3755"
       type="text/css" />
    <filter
       style="color-interpolation-filters:sRGB"
       id="filter4156">
      <feFlood
         id="feFlood4158"
         flood-opacity="0.446"
         flood-color="rgb(0,0,0)"
         result="flood" />
      <feComposite
         id="feComposite4160"
         result="composite1"
         in="flood"
         operator="in"
         in2="SourceGraphic" />
      <feGaussianBlur
         id="feGaussianBlur4162"
         stdDeviation="7.9"
         result="blur" />
      <feOffset
         id="feOffset4164"
         dx="20"
         dy="20"
         result="offset" />
      <feComposite
         id="feComposite4166"
         result="composite2"
         in="SourceGraphic"
         operator="over"
         in2="offset" />
    </filter>
    <radialGradient
       gradientUnits="userSpaceOnUse"
       xlink:href="#id0-6"
       id="radialGradient3923-3"
       fy="7263"
       fx="2578"
       r="140"
       cy="7263"
       cx="2578" />
    <radialGradient
       gradientUnits="userSpaceOnUse"
       id="id0-6"
       fy="7263"
       fx="2578"
       r="140"
       cy="7263"
       cx="2578">
      <stop
         offset="0"
         style="stop-color:#c2c1c1;stop-opacity:1"
         id="stop3758-7" />
      <stop
         offset="1"
         style="stop-color:#ef9a48;stop-opacity:1"
         id="stop3760-5" />
    </radialGradient>
    <radialGradient
       gradientUnits="userSpaceOnUse"
       xlink:href="#id0-6"
       id="id1-3"
       fy="7212"
       fx="3285"
       r="193"
       cy="7212"
       cx="3285" />
  </defs>
  <metadata
     id="metadata7">
    <rdf:RDF>
      <cc:Work
         rdf:about="">
        <dc:format>image/svg+xml</dc:format>
        <dc:type
           rdf:resource="http://purl.org/dc/dcmitype/StillImage" />
        <dc:title>Eikuru</dc:title>
        <cc:license
           rdf:resource="http://creativecommons.org/licenses/by/3.0/" />
        <dc:creator>
          <cc:Agent>
            <dc:title>Carina Salomon</dc:title>
          </cc:Agent>
        </dc:creator>
        <dc:date>2012</dc:date>
        <dc:subject>
          <rdf:Bag>
            <rdf:li>kangaroo</rdf:li>
            <rdf:li>Känguru</rdf:li>
          </rdf:Bag>
        </dc:subject>
        <dc:contributor>
          <cc:Agent>
            <dc:title>Lothar Flierl</dc:title>
          </cc:Agent>
        </dc:contributor>
      </cc:Work>
      <cc:License
         rdf:about="http://creativecommons.org/licenses/by/3.0/">
        <cc:permits
           rdf:resource="http://creativecommons.org/ns#Reproduction" />
        <cc:permits
           rdf:resource="http://creativecommons.org/ns#Distribution" />
        <cc:requires
           rdf:resource="http://creativecommons.org/ns#Notice" />
        <cc:requires
           rdf:resource="http://creativecommons.org/ns#Attribution" />
        <cc:permits
           rdf:resource="http://creativecommons.org/ns#DerivativeWorks" />
      </cc:License>
    </rdf:RDF>
  </metadata>
  <g
     transform="translate(-243.30755,-279.05193)"
     id="layer1">
    <g
       id="g4367"
       transform="translate(100,0)">
      <path
         style="fill:#ef9a48;fill-rule:evenodd"
         id="path3764"
         d="m 172.2955,302.46484 c -0.94587,-0.30045 -1.5579,-1.27969 -2.25895,-2.06977 -2.40361,-2.70406 -3.67218,-7.03277 -3.92812,-7.80059 -0.23368,-0.71218 -0.16691,-3.32722 -0.62315,-5.07428 -0.17805,-0.6788 0.0668,-4.15068 0.11127,-4.98526 0.0223,-0.42286 -0.14466,-1.23519 -0.18917,-1.98075 -0.0334,-0.73444 0.0556,-1.41324 0.0556,-1.41324 0,0 0.10015,-0.2003 0.58977,0 0.48963,0.20031 4.65143,3.97263 5.73083,5.19669 1.07939,1.22406 3.91699,4.41774 4.5624,6.07579 0.24481,0.65654 0.75669,1.09052 1.0794,2.11428 0.50075,1.61353 0.68992,3.91699 0.68992,3.91699 2.44812,-2.49263 6.1203,-2.1588 6.1203,-2.1588 0.53413,-0.9236 0.97924,-0.53413 1.66917,-0.63428 0.67879,-0.10015 0.73443,0.48962 0.73443,0.48962 3.57203,-0.10015 6.13143,2.99338 6.13143,2.99338 0.16691,-6.49864 5.38586,-11.02766 9.89262,-14.71096 l 3.8836,-1.91398 c 0.92361,1.23518 0.57865,2.89323 0.57865,2.89323 0,0 -0.73443,6.57653 -1.02376,7.45563 -0.30045,0.8791 -1.82496,5.26345 -3.97263,8.41262 -2.14766,3.13805 -4.51789,5.56391 -4.51789,5.56391 3.27158,0.81233 1.24632,8.79097 1.0794,10.49352 -0.17804,1.71369 -3.24932,5.66406 -6.30947,7.41112 -3.07127,1.7582 -8.98014,2.14767 -9.74796,2.67068 -0.32271,0.2003 -0.95699,1.51338 -1.82496,2.93774 -1.2797,2.0809 -2.82646,4.90736 -2.5594,9.06917 0.43399,7.01052 4.92962,12.05141 4.92962,12.05141 1.31308,-1.32421 2.62617,-0.44511 2.62617,-0.44511 2.19218,0.44511 6.19819,-0.65654 8.39037,-1.96962 0.61202,-0.36722 2.18105,-2.13654 3.03789,-3.26045 2.21443,-2.84872 4.33984,-6.15368 4.33984,-7.46676 0,-1.32421 -0.43398,-1.32421 0,-2.63729 0.44512,-1.31308 0.8791,-1.74707 0.8791,-3.06015 0,-0.51188 -1.0015,-2.2812 0.43398,-2.19218 0.44512,0.0223 0.96812,0.41173 0.8791,0.43399 -0.089,0.0334 0,4.38435 0,4.38435 l 3.50526,-2.62616 c 0.86797,-0.65654 2.71519,-0.18917 2.89323,0 0.17805,0.18917 -2.2812,1.21293 -2.62616,1.31308 4.54015,-0.43398 1.36872,1.16842 0.43398,1.31308 0.61203,0.20031 2.14767,-0.0334 1.92512,0.43399 -0.24482,0.53413 -2.18106,0.8791 -2.62617,1.75819 -0.2003,0.41173 -0.41173,1.2797 -0.87909,1.74707 -0.52301,0.53413 -1.31309,0.64541 -1.31309,0.8791 0,0.22255 -1.25744,3.44962 -3.50526,6.57653 -1.04601,1.45775 -2.13654,3.31609 -3.50526,4.37323 -1.54676,1.2018 -3.3606,1.52451 -3.93924,1.7582 -0.57865,0.23368 -7.01052,2.19217 -7.01052,2.19217 2.84872,9.19157 5.91999,13.25323 7.88962,16.2021 1.96962,2.95999 3.2827,4.81834 4.37322,5.69743 2.19218,1.7582 7.88962,1.31309 10.9609,-3.07127 3.06015,-4.37323 7.01052,-13.57593 8.3236,-16.20209 1.31308,-2.62617 5.25233,-4.81834 7.87849,-5.69744 2.63729,-0.8791 1.75819,0.8791 1.32421,1.74706 -0.44511,0.8791 -3.50526,2.19218 -5.26346,7.01052 -1.74706,4.81835 -2.62616,9.2027 -2.62616,10.9609 0,1.74706 -7.4445,14.88901 -10.08179,16.6472 -2.62617,1.74707 -6.56541,1.74707 -6.56541,1.74707 l -5.69744,-0.43399 -0.43399,6.56541 c 0,1.31308 0,2.19218 2.18105,2.19218 2.19218,0 6.57654,-0.43399 6.57654,-0.43399 1.25744,0.12241 3.93925,0.43399 5.25233,0.8791 2.61503,0.86797 0.85684,1.48 -3.06015,0.86797 4.97413,1.22406 5.55278,3.04902 0.43398,1.7582 4.49564,1.31308 5.69744,2.62616 0,1.74706 2.19218,0.44511 6.13143,2.19218 2.62617,2.19218 -0.95699,0 -2.39248,-0.74556 -4.59579,-1.0794 -0.68992,-0.11128 -3.31609,-0.82346 -4.59578,-1.11278 -2.84872,-0.63428 -5.06316,-0.6009 -7.88962,-1.31308 -1.53564,-3.07128 -3.42737,-7.8006 -3.93925,-9.63668 -0.523,-1.83609 0.86797,-7.44451 0.86797,-7.44451 -8.75758,0.43399 -15.7681,-2.62616 -15.7681,-2.62616 l -0.43399,9.19157 c -0.10015,2.14767 1.31308,3.60541 1.31308,5.26345 0,2.30346 0,2.19218 -1.31308,3.93925 -0.94586,1.26857 -5.26345,0.43398 -5.69744,0.43398 -0.87909,0 -8.75758,0.44512 -9.63668,0.44512 -4.15067,-0.7567 0.22256,-1.94737 0.8791,-1.7582 -4.78496,0.53414 -3.46075,-1.22406 0,-1.31308 -4.82947,0 -4.82947,-0.8791 0.43398,-1.31308 -1.96962,0 -4.7627,-0.0445 -4.38436,-0.43399 0.21143,-0.22255 0.62316,-0.87909 2.19218,-0.87909 4.38436,0 7.88962,-0.43399 10.51578,0 2.62617,0.43398 2.62617,0.43398 3.07128,0.43398 0.43398,0 0,-0.86797 -0.44511,-1.74707 -0.43399,-0.87909 0,-0.43398 -0.8791,-1.75819 -0.86797,-1.31308 -2.62616,-3.93924 -3.93925,-4.81834 -0.57864,-0.37835 -2.35909,-2.99338 -3.50526,-6.13142 -1.46887,-4.02827 -1.74706,-10.51578 -1.31308,-11.38375 0.43399,-0.8791 0.43399,-1.32421 3.07128,-1.32421 -0.86797,-1.86948 -1.12391,-3.37173 -1.32421,-4.37323 -0.4006,-2.05865 0,-5.55278 0,-6.13143 0,-0.58977 0.8791,-7.01052 0.8791,-7.01052 -1.46888,-0.15579 -3.95038,-1.2018 -6.56541,-3.07127 -5.18556,-3.69443 -10.9609,-9.49202 -10.9609,-10.07067 0,-0.63429 -3.93924,0.21143 -3.93924,-1.75819 0,-0.37835 0.43398,-0.8791 1.31308,-0.8791 -0.25594,-0.25594 -0.65654,-0.2782 -0.8791,-0.43399 -0.33383,-0.25594 -0.43398,-0.61202 -0.43398,-0.87909 0,-0.14466 0.42286,-0.54527 0.8791,-0.43399 0.45624,0.11128 0.94586,0.73444 1.31308,0.8791 -0.41173,-0.55639 -1.04602,-0.86797 -1.31308,-1.32421 -0.15579,-0.26707 -0.10015,-0.74556 0,-0.86797 0.26706,-0.33383 1.74706,0 3.06014,1.31308 0,-2.62616 0,-4.38435 0.8791,-3.50526 0.8791,0.8791 0.44511,0.43399 0.8791,1.31308 0.2003,0.41173 0.13353,1.17955 0.43398,1.74707 0.35609,0.64541 1.0794,1.09053 1.31309,1.32421 0.44511,0.43398 0,1.74707 0,1.74707 0,0 -0.43399,0.87909 0.44511,1.75819 0.42285,0.42286 2.92661,3.66105 6.13142,6.13142 3.37173,2.58166 8.3236,4.37323 7.88962,4.37323 -0.44511,0 1.74706,-8.3236 1.74706,-8.3236 0,0 0.22256,-5.01864 2.19218,-9.63668 1.30196,-3.06015 3.95038,-5.4415 5.69744,-7.87849 -1.59128,1.98075 -4.20631,5.07428 -6.13142,6.56541 -2.33684,1.8027 -3.90586,1.79157 -4.38436,1.31308 -0.46737,-0.45624 -1.10165,-0.55639 -1.31308,-1.31308 -0.24481,-0.85685 0.42286,-2.39248 0.86797,-3.06015 -3.49413,0.86797 -6.56541,-0.8791 -6.99939,-0.8791 -0.44512,0 -0.8791,-0.44511 -1.7582,-2.19218 -0.3227,-0.65654 -0.42285,-1.35759 -0.43398,-2.19218 -0.0223,-0.77894 0.0445,-1.70255 -0.44511,-2.19217 -0.33384,-0.33384 1.79157,-0.68993 4.38435,-0.43399 2.59278,0.24481 5.66406,1.11278 6.57654,1.31308 3.93924,-0.43398 7.4445,-3.50526 7.4445,-3.93924 -0.89022,-0.36722 -1.26857,-0.76782 -1.75819,-1.31308 -0.22256,-0.25594 -0.76782,-1.03489 -0.86797,-1.32421 -0.23368,-0.61203 0,-0.95699 0,-1.31308 0,-0.86797 0.86797,-1.74707 1.31308,-2.19218 0.21143,-0.21143 -0.16692,-0.86797 0,-1.31309 0.16692,-0.43398 0.8791,-0.65654 0.8791,-0.86796 0,-0.44512 -4.38436,2.18105 -4.82947,2.18105 -2.30346,0 0.44511,-2.38135 2.63729,-3.93925 1.4021,-0.99037 2.40361,-1.39097 2.25895,-1.43549 z" />
      <path
         transform="matrix(0.01112781,0,0,0.01112781,139.80229,277.18246)"
         style="fill:#f7c5b4;fill-rule:evenodd;stroke:#f7c5b4;stroke-width:3;filter:url(#filter4156)"
         id="path3766"
         d="m 3032,2204 c -355,-512 -433,-708 -473,-866 -39,-157 -118,-709 -79,-709 40,0 158,-39 276,79 118,118 354,512 354,551 0,40 79,197 118,237 16,16 19,90 40,157 31,99 79,197 79,197 -79,79 -197,315 -197,315 l -118,39 z" />
      <path
         transform="matrix(0.01112781,0,0,0.01112781,139.80229,277.18246)"
         style="fill:#f7c5b4;fill-rule:evenodd;stroke:#f7c5b4;stroke-width:3;filter:url(#filter4156)"
         id="path3768"
         d="m 4921,2283 c 0,-709 276,-1063 433,-1220 158,-158 512,-473 512,-473 40,591 -78,827 -197,984 -118,158 -196,315 -196,315 l -355,512 c -118,-118 -197,-118 -197,-118 z" />
      <path
         transform="matrix(0.01112781,0,0,0.01112781,139.80229,277.18246)"
         d="m 4764,1811 -4,-18 c 0,0 -230,-278 -551,-269 0,0 -5,-53 -66,-44 -62,9 -102,-26 -150,57 0,0 -330,-30 -559,214 l -127,178 c 0,0 -118,197 -157,236 -40,39 -158,79 -230,107 -73,29 -77,40 -203,129 -197,140 -444,354 -237,354 40,0 434,-236 434,-196 275,-119 393,-119 511,-119 118,0 315,-39 433,-78 119,-40 433,-118 552,-118 118,0 315,0 354,0 0,-25 0,-63 0,-118 0,-122 0,-288 0,-315 z"
         id="path3772"
         style="fill:#667ab3;fill-rule:evenodd;filter:url(#filter4156)" />
      <path
         transform="matrix(0.01112781,0,0,0.01112781,139.80229,277.18246)"
         d="m 3150,2440 c 118,-78 275,-314 315,-433 39,-118 275,-275 275,-275 0,0 237,-197 276,-158 39,40 -39,79 -39,79 0,0 -197,197 -237,276 -39,78 -236,315 -236,354 0,39 0,39 -39,79 -40,39 -315,78 -315,78 z"
         id="path3774"
         style="fill:#da251d;fill-rule:evenodd;filter:url(#filter4156)" />
      <path
         transform="matrix(0.01112781,0,0,0.01112781,139.80229,277.18246)"
         d="m 4016,2283 c -59,0 -197,-39 -197,-39 0,0 236,-591 236,-630 0,-40 40,0 40,0 0,0 0,78 0,118 0,39 -79,236 -79,315 0,79 59,236 0,236 z"
         id="path3776"
         style="fill:#da251d;fill-rule:evenodd;filter:url(#filter4156)" />
      <path
         transform="matrix(0.01112781,0,0,0.01112781,139.80229,277.18246)"
         d="m 4134,1653 c 79,79 276,512 236,551 -39,40 -157,40 -157,40 0,0 -40,0 -40,-40 0,-39 40,-39 40,-78 0,-40 39,-119 0,-197 -40,-79 -79,-237 -79,-237 l 0,-39 z"
         id="path3778"
         style="fill:#da251d;fill-rule:evenodd;filter:url(#filter4156)" />
      <path
         transform="matrix(0.01112781,0,0,0.01112781,139.80229,277.18246)"
         d="m 4134,1574 c 79,79 394,630 433,630 39,0 118,40 158,0 39,-39 -40,-118 -40,-118 0,0 -275,-354 -315,-394 -39,-39 -197,-118 -197,-118 l -39,0 z"
         id="path3780"
         style="fill:#da251d;fill-rule:evenodd;filter:url(#filter4156)" />
      <path
         transform="matrix(0.01112781,0,0,0.01112781,139.80229,277.18246)"
         d="m 4209,1524 -216,13 c 48,-83 88,-48 150,-57 61,-9 66,44 66,44 z"
         id="path3782"
         style="fill:#1f1a17;fill-rule:evenodd;stroke:#1f1a17;stroke-width:3;filter:url(#filter4156)" />
      <path
         transform="matrix(0.01112781,0,0,0.01112781,139.80229,277.18246)"
         d="m 3934,2795 c 197,-40 276,-79 512,79"
         id="path3786"
         style="fill:none;fill-rule:evenodd;stroke:#1f1a17;stroke-width:3;filter:url(#filter4156)" />
      <path
         transform="matrix(0.01112781,0,0,0.01112781,139.80229,277.18246)"
         d="m 3855,3149 c 0,-157 158,-394 315,-315 158,79 197,197 158,315 -24,70 0,118 -118,197 -119,79 -306,-52 -315,-79 l -40,-118 z"
         id="path3788"
         style="fill:#ffffff;fill-rule:evenodd;filter:url(#filter4156)" />
      <path
         transform="matrix(0.01112781,0,0,0.01112781,139.80229,277.18246)"
         d="m 3973,3110 c 0,-118 79,-197 158,-197 79,0 157,157 118,236 -39,79 -118,118 -158,118 -39,0 -39,0 -78,-39 -40,-39 -40,-118 -40,-118 z"
         id="path3790"
         style="fill:#98af85;fill-rule:evenodd;filter:url(#filter4156)" />
      <path
         transform="matrix(0.01112781,0,0,0.01112781,139.80229,277.18246)"
         d="m 4052,3110 c 0,-40 39,-79 39,-79 0,0 40,0 40,39 0,40 0,40 0,79 0,40 -40,40 -40,40 0,0 -39,0 -39,-40 0,-39 0,-39 0,-39 z"
         id="path3792"
         style="fill:#1f1a17;fill-rule:evenodd;stroke:#1f1a17;stroke-width:3;filter:url(#filter4156)" />
      <path
         transform="matrix(0.01112781,0,0,0.01112781,139.80229,277.18246)"
         style="fill:none;fill-rule:evenodd;stroke:#1f1a17;stroke-width:3;filter:url(#filter4156)"
         id="path3794"
         d="m 2874,2637 c 118,-39 236,-39 276,0" />
      <path
         transform="matrix(0.01112781,0,0,0.01112781,139.80229,277.18246)"
         style="fill:#98af85;fill-rule:evenodd;filter:url(#filter4156)"
         id="path3796"
         d="m 2992,3267 c -49,-37 -99,-93 -118,-118 -54,-71 -50,-167 0,-236 34,-47 74,-79 118,-79 79,0 118,40 118,40 40,157 -118,393 -118,393 z" />
      <path
         transform="matrix(0.01112781,0,0,0.01112781,139.80229,277.18246)"
         style="fill:#1f1a17;fill-rule:evenodd;stroke:#1f1a17;stroke-width:3;filter:url(#filter4156)"
         id="path3798"
         d="m 2954,3106 c 8,0 11,9 25,0 20,-13 26,-32 26,-32 0,0 21,-77 0,-93 -37,-27 -34,-27 -51,0 -28,46 -35,125 0,125 z" />
      <path
         transform="matrix(0.01112781,0,0,0.01112781,139.80229,277.18246)"
         style="fill:none;fill-rule:evenodd;stroke:#1f1a17;stroke-width:3;filter:url(#filter4156)"
         id="path3800"
         d="m 4252,8858 c 354,-315 788,-394 866,-355" />
      <path
         transform="matrix(0.01112781,0,0,0.01112781,139.80229,277.18246)"
         style="fill:none;fill-rule:evenodd;stroke:#1f1a17;stroke-width:3;filter:url(#filter4156)"
         id="path3802"
         d="m 5236,9566 c 79,-314 79,-787 79,-787" />
      <path
         transform="matrix(0.01112781,0,0,0.01112781,139.80229,277.18246)"
         d="m 2244,4488 c 59,39 156,-5 241,-64 66,-46 125,-101 153,-133 l 315,-354 c -158,118 -709,315 -709,315 -29,59 -37,107 -34,143 3,62 34,93 34,93 z"
         id="path3806"
         style="fill:#ffffff;fill-rule:evenodd;filter:url(#filter4156)" />
      <path
         transform="matrix(0.01112781,0,0,0.01112781,139.80229,277.18246)"
         d="m 2485,4424 c -26,-3 -55,-53 -83,-54 -28,-2 -55,46 -79,39 -18,-5 -21,-38 -39,-39 -23,-3 -51,28 -74,25 3,62 34,93 34,93 59,39 156,-5 241,-64 z"
         id="path3808"
         style="fill:#98af85;fill-rule:evenodd;filter:url(#filter4156)" />
      <path
         transform="matrix(0.01112781,0,0,0.01112781,139.80229,277.18246)"
         style="fill:#1f1a17;fill-rule:evenodd;stroke:#1f1a17;stroke-width:3;filter:url(#filter4156)"
         id="path3810"
         d="m 1662,3661 c 0,-39 0,-79 -79,-79 -79,0 -276,0 -276,0 0,0 34,53 40,79 47,216 315,67 315,0 z" />
      <path
         transform="matrix(0.01112781,0,0,0.01112781,139.80229,277.18246)"
         style="fill:#1f1a17;fill-rule:evenodd;stroke:#1f1a17;stroke-width:3;filter:url(#filter4156)"
         id="path3812"
         d="m 2953,7165 -158,39 c 0,-39 0,-39 0,-39 l 158,-39 0,39 z" />
      <path
         transform="matrix(0.01112781,0,0,0.01112781,139.80229,277.18246)"
         style="fill:none;fill-rule:evenodd;stroke:#1f1a17;stroke-width:3;filter:url(#filter4156)"
         id="path3814"
         d="m 2520,7559 4,-2 1,-1 546,-234 39,-78 c 0,0 -78,-79 -157,-79 l 0,-39 -158,39 c 0,0 0,0 0,39 0,0 -39,0 -78,40 0,0 -56,55 -73,119 -1,1 -1,2 -1,3 -3,11 -5,23 -5,35 l -26,13 0,0 -53,26 c 0,0 -39,40 -79,40 -39,0 -39,79 40,79 z" />
      <path
         transform="matrix(0.01112781,0,0,0.01112781,139.80229,277.18246)"
         style="fill:#ffffff;fill-rule:evenodd;stroke:#1f1a17;stroke-width:3;filter:url(#filter4156)"
         id="path3816"
         d="m 2835,2755 c -74,74 -161,203 -118,315 9,26 58,96 78,119 44,49 78,85 158,118 79,-40 39,-40 39,-40 -49,-37 -99,-93 -118,-118 -54,-71 -50,-167 0,-236 34,-47 74,-79 118,-79 79,0 118,40 118,40 0,-40 0,-79 0,-79 -118,-79 -275,-40 -275,-40 z" />
      <path
         transform="matrix(0.01112781,0,0,0.01112781,139.80229,277.18246)"
         style="fill:#f7c5b4;fill-rule:evenodd;stroke:#f7c5b4;stroke-width:3;filter:url(#filter4156)"
         id="path3818"
         d="m 2284,8070 c -78,-168 -101,-303 -119,-393 -36,-185 0,-499 0,-551 0,-53 79,-630 99,-749 -20,-118 177,-866 177,-866 394,-157 433,-118 591,-78 157,39 275,118 315,354 39,236 0,551 0,709 0,157 78,472 393,826 315,355 473,788 473,985 0,196 -118,511 -473,630 -354,118 -590,196 -708,236 -355,118 -512,-355 -512,-355 l -236,-748 z" />
      <path
         transform="matrix(0.01112781,0,0,0.01112781,139.80229,277.18246)"
         d="m 2559,7440 c -157,-196 -118,-354 -118,-354 l 276,158 c 39,-40 78,-40 78,-40 0,-39 0,-39 0,-39 l 158,-39 0,39 c 79,0 157,79 157,79 118,-197 276,-276 315,-276 40,0 118,39 40,158 -79,118 -197,314 -197,314 79,40 118,197 0,355 -118,157 -473,118 -473,118 -39,118 -275,197 -275,197 -118,0 -40,-158 -40,-158 -157,118 -236,-39 -236,-39 l -39,-118 c 197,39 236,39 315,0 79,-40 79,-118 79,-118 0,0 0,-118 -79,-118 -79,0 -79,-79 -40,-79 40,0 79,-40 79,-40 z"
         id="path3822"
         style="fill:#f5c491;fill-rule:evenodd;stroke:#969594;stroke-width:3;filter:url(#filter4156)" />
      <path
         transform="matrix(0.01112781,0,0,0.01112781,139.80229,277.18246)"
         d="m 2554,7400 c -113,-122 -108,-279 -108,-279 l 270,167 c -118,-4 -162,112 -162,112 z"
         id="path3824"
         style="fill:url(#radialGradient3923-3);fill-rule:evenodd;stroke:#969594;stroke-width:3;filter:url(#filter4156)" />
      <path
         transform="matrix(0.01112781,0,0,0.01112781,139.80229,277.18246)"
         d="m 3150,7244 c 78,-79 275,-315 275,-197 0,118 -157,354 -157,354 0,-79 -118,-157 -118,-157 z"
         id="path3826"
         style="fill:url(#id1-3);fill-rule:evenodd;stroke:#969594;stroke-width:3;filter:url(#filter4156)" />
      <path
         transform="matrix(0.01112781,0,0,0.01112781,139.80229,277.18246)"
         d="m 2520,7559 4,-2 1,-1 546,-234 39,-78 c 0,0 -78,-79 -157,-79 l 0,-39 -158,39 c 0,0 0,0 0,39 0,0 -39,0 -78,40 0,0 -56,55 -73,119 -1,1 -1,2 -1,3 -3,11 -5,23 -5,35 l -26,13 0,0 -53,26 c 0,0 -39,40 -79,40 -39,0 -39,79 40,79 z"
         id="path3830"
         style="fill:#1f1a17;fill-rule:evenodd;stroke:#1f1a17;stroke-width:3;filter:url(#filter4156)" />
      <path
         transform="matrix(0.01112781,0,0,0.01112781,139.80229,277.18246)"
         d="m 2480,7519 c 0,0 79,-39 119,-79 39,-39 78,-23 78,-78 0,-40 35,-50 59,-82 31,-39 72,-76 138,-76 118,0 158,0 197,40 39,39 -39,78 -39,78 l -512,197 c -40,0 -40,0 -40,0 z"
         id="path3832"
         style="fill:#da251d;fill-rule:evenodd;stroke:#da251d;stroke-width:3;filter:url(#filter4156)" />
      <path
         transform="matrix(0.01112781,0,0,0.01112781,139.80229,277.18246)"
         d="m 3032,7244 c 0,-40 -158,0 -197,0 -40,0 -118,118 -118,157 0,39 315,-79 315,-118 0,-39 0,-39 0,-39 z"
         id="path3834"
         style="fill:#84c225;fill-rule:evenodd;stroke:#84c225;stroke-width:3;filter:url(#filter4156)" />
      <path
         transform="matrix(0.01112781,0,0,0.01112781,139.80229,277.18246)"
         d="m 2835,7362 c 0,-40 0,-118 39,-118 40,0 79,78 79,78 l -118,40 z"
         id="path3836"
         style="fill:#da251d;fill-rule:evenodd;stroke:#da251d;stroke-width:3;filter:url(#filter4156)" />
      <path
         transform="matrix(0.01112781,0,0,0.01112781,139.80229,277.18246)"
         style="fill:#ffffff;fill-rule:evenodd;stroke:#ffffff;stroke-width:3;filter:url(#filter4156)"
         id="path3838"
         d="m 3129,7632 c -145,0 -145,-113 0,-113 60,0 60,57 60,57 0,56 -60,56 -60,56 z" />
      <path
         transform="matrix(0.01112781,0,0,0.01112781,139.80229,277.18246)"
         style="fill:#1f1a17;fill-rule:evenodd;stroke:#1f1a17;stroke-width:3;filter:url(#filter4156)"
         id="path3840"
         d="m 2480,7952 c 0,0 -78,158 40,158 0,0 236,-79 275,-197 40,-118 0,-158 0,-158 -196,197 -315,197 -315,197 z" />
      <path
         transform="matrix(0.01112781,0,0,0.01112781,139.80229,277.18246)"
         style="fill:#ffffff;fill-rule:evenodd;stroke:#ffffff;stroke-width:3;filter:url(#filter4156)"
         id="path3842"
         d="m 2638,7637 c 0,-78 29,-143 79,-118 78,40 0,158 0,158 -51,51 -79,4 -79,-40 z" />
      <path
         transform="matrix(0.01112781,0,0,0.01112781,139.80229,277.18246)"
         style="fill:#1f1a17;fill-rule:evenodd;stroke:#1f1a17;stroke-width:3;filter:url(#filter4156)"
         id="path3844"
         d="m 2683,7623 c 0,-33 28,-33 28,0 0,14 -14,14 -14,14 -14,0 -14,-14 -14,-14 z" />
      <path
         transform="matrix(0.01112781,0,0,0.01112781,139.80229,277.18246)"
         style="fill:#1f1a17;fill-rule:evenodd;stroke:#1f1a17;stroke-width:3;filter:url(#filter4156)"
         id="path3846"
         d="m 3103,7584 c 0,-34 28,-34 28,0 0,14 -14,14 -14,14 -14,0 -14,-14 -14,-14 z" />
      <path
         transform="matrix(0.01112781,0,0,0.01112781,139.80229,277.18246)"
         style="fill:none;fill-rule:evenodd;stroke:#1f1a17;stroke-width:3;filter:url(#filter4156)"
         id="path3848"
         d="m 3053,7480 c 79,-40 157,0 157,0" />
      <path
         transform="matrix(0.01112781,0,0,0.01112781,139.80229,277.18246)"
         style="fill:#98af85;fill-rule:evenodd;stroke:#98af85;stroke-width:3;filter:url(#filter4156)"
         id="path3850"
         d="m 2520,7992 c 118,0 275,-197 275,-197 0,79 -78,197 -157,236 -79,39 -158,0 -158,0 -39,-39 40,-39 40,-39 z" />
      <path
         transform="matrix(0.01112781,0,0,0.01112781,139.80229,277.18246)"
         style="fill:#1f1a17;fill-rule:evenodd;stroke:#1f1a17;stroke-width:3;filter:url(#filter4156)"
         id="path3852"
         d="m 2349,7820 35,93 -140,0 -39,-118 c 61,12 108,21 144,25 z" />
      <path
         transform="matrix(0.01112781,0,0,0.01112781,139.80229,277.18246)"
         style="fill:#ef9a48;fill-rule:evenodd;stroke:#838281;stroke-width:3;filter:url(#filter4156)"
         id="path3854"
         d="m 3413,7717 c -21,9 -32,97 -25,197 8,100 31,175 53,166 21,-9 32,-98 25,-198 -8,-100 -31,-174 -53,-165 z" />
      <path
         transform="matrix(0.01112781,0,0,0.01112781,139.80229,277.18246)"
         style="fill:#ef9a48;fill-rule:evenodd;stroke:#838281;stroke-width:3;filter:url(#filter4156)"
         id="path3856"
         d="m 3335,7864 c -22,9 -33,98 -25,198 7,100 31,174 52,165 21,-9 33,-97 25,-197 -7,-100 -31,-175 -52,-166 z" />
      <path
         transform="matrix(0.01112781,0,0,0.01112781,139.80229,277.18246)"
         style="fill:#ef9a48;fill-rule:evenodd;stroke:#838281;stroke-width:3;filter:url(#filter4156)"
         id="path3858"
         d="m 3371,7790 c -22,9 -33,98 -26,198 8,100 32,174 53,166 21,-9 33,-98 25,-198 -8,-100 -31,-174 -52,-166 z" />
      <path
         transform="matrix(0.01112781,0,0,0.01112781,139.80229,277.18246)"
         style="fill:none;fill-rule:evenodd;stroke:#1f1a17;stroke-width:3;filter:url(#filter4156)"
         id="path3860"
         d="m 3504,7937 c 79,-147 158,-147 158,-147" />
    </g>
  </g>
</svg>
