<?xml version="1.0" encoding="UTF-8" standalone="no"?>
<svg
   xmlns:dc="http://purl.org/dc/elements/1.1/"
   xmlns:cc="http://creativecommons.org/ns#"
   xmlns:rdf="http://www.w3.org/1999/02/22-rdf-syntax-ns#"
   xmlns:svg="http://www.w3.org/2000/svg"
   xmlns="http://www.w3.org/2000/svg"
   id="Layer_1"
   xml:space="preserve"
   overflow="visible"
   viewBox="0 0 267.76 506.378"
   version="1.1"
   enable-background="new 0 0 267.76 506.378"><defs
     id="defs559" /><path
     fill="#FEE4C9"
     clip-rule="evenodd"
     d="m106.21 55.513c7.093 2.742 10.099-7.218 15.998-8.999 3.816 0.526 9.496 4 11.999 0 5.775 7.05 29.5-4.262 32.996 6.999-6.604-3.586-22.271-5.064-16.999 6.999 7.362-2.993 12.775 0.934 17.999 3-3.041 5.1 3.333 9.719-3 10.999 1.146 3.604 4.829 6.631 1 9.999-3.795-3.267-5.051 1.062-7-4.999-4.767 2.673-1.88-2.811-7.999-1-0.045-6.502-8.893-8.812-5.999-14.998-3.123-0.458-3.196 2.136-3 4.999-1.582 0.083-3.812-0.48-3.998 1-2.784 0.451 0.783-5.45-2-5-1.844 7.823-7.829 11.503-10 18.998-0.807-0.694-2.738-1.556-3 0-1.484-0.437 0.395-1.28 0-3-3.88-0.547-2.349 4.317-5 5-2.934-0.85 1.301-2.517 0-5-2.054 0.279-1.995 2.671-3 4-2.372-1.293-2.304-5.028-6-4.999 5.021-9.107 2.055-17.296-3.349-23.781l0.35-0.217z"
     fill-rule="evenodd"
     id="path267" /><path
     clip-rule="evenodd"
     d="m111.05 39.542c0.161-1.172 1.823-0.844 3-1-1.836 1.413 1.567 4.856-1 6.999-4.51-0.389 1.12-4.711-2-5.999z"
     fill-rule="evenodd"
     id="path269" /><path
     clip-rule="evenodd"
     d="m128.05 39.542h4c-0.436 2.231-1.769 3.564-4 3.999v-3.999z"
     fill-rule="evenodd"
     id="path271" /><path
     clip-rule="evenodd"
     d="m103.05 44.541c-0.947-3.613 3.938-1.395 5.999-2-0.826 2.826 1.41 2.59 1 5-3.71-0.488-2.71-5.684-7-3z"
     fill-rule="evenodd"
     id="path273" /><path
     clip-rule="evenodd"
     d="m131.05 52.54c0.038 3.705-1.536 5.797-3 7.999-6.396-1.97-9.865 0.316-15.998 1-3.63-9.126 12.86-15.456 19-8.999zm-17 6.999c4.232-1.608 9.019-2.746 13.999-1 1.13-10.341-14.46-7.177-14 1z"
     fill-rule="evenodd"
     id="path275" /><path
     fill="#FFFFFF"
     clip-rule="evenodd"
     d="m128.05 58.539c-4.98-1.746-9.767-0.608-13.999 1-0.46-8.177 15.13-11.341 14-1z"
     fill-rule="evenodd"
     id="path277" /><path
     fill="#FFFFFF"
     clip-rule="evenodd"
     d="m168.05 60.539c-5.046-2.534-11.117-6.88-16.999-3-0.84-11.841 21.09-3.489 17 3z"
     fill-rule="evenodd"
     id="path279" /><path
     clip-rule="evenodd"
     d="m180.04 59.539c3.211-0.876 2.074 2.593 4 3-1.49 3.003-4.48-0.736-4-3z"
     fill-rule="evenodd"
     id="path281" /><path
     fill="#FFFFFF"
     clip-rule="evenodd"
     d="m170.04 61.539c1.339 6.39 3.73 10.901 1 16.998-2.37-6.155-1.94-13.025-1-16.998z"
     fill-rule="evenodd"
     id="path283" /><path
     fill="#FFFFFF"
     clip-rule="evenodd"
     d="m173.04 61.539c2.859 0.14 1.827 4.171 2 6.999-2.03-0.965-2.16-3.84-2-6.999z"
     fill-rule="evenodd"
     id="path285" /><path
     fill="#006B33"
     clip-rule="evenodd"
     d="m81.057 64.538c2.581 0.086 1.052 4.281 4.999 3-1.829 3.056-7.926-1.045-4.999-3z"
     fill-rule="evenodd"
     id="path287" /><path
     clip-rule="evenodd"
     d="m132.05 69.538c-5.483 2.018-9.43 3.167-14.999 3 1.52-5.445 12.45-9.978 15-3z"
     fill-rule="evenodd"
     id="path289" /><path
     clip-rule="evenodd"
     d="m145.05 72.537c-0.454 3.423-5.373 0.306-6-2 3.46-0.791 4.22 1.112 6 2z"
     fill-rule="evenodd"
     id="path291" /><path
     clip-rule="evenodd"
     d="m37.062 71.537c3.538 0.794 1.918 6.747 3 9.999-2.928-1.405-3.075-5.591-3-9.999z"
     fill-rule="evenodd"
     id="path293" /><path
     clip-rule="evenodd"
     d="m59.059 71.537c-1.976 3.356-4.957 5.708-8.999 7 1.028-4.306 5.072-5.594 8.999-7z"
     fill-rule="evenodd"
     id="path295" /><path
     fill="#FFFFFF"
     clip-rule="evenodd"
     d="m84.056 74.537c12.272 11.948-4.959 16.799-5 32.996-0.008 3.201 2.739 5.001 1 9.999-3.515 0.715-8.068 0.518-11.998 3-0.904-1.763-2.237-3.096-4-4 2.625-7.015 9.837-10.395 11.998-19.997 2.048-9.092-1.767-18.619 8-21.996z"
     fill-rule="evenodd"
     id="path297" /><path
     clip-rule="evenodd"
     d="m180.04 74.537c0.891 0.776 2.258 1.075 4 1 0.278 2.612 0.337 5.004-3 4 2.45-2.358-1.49-1.861-1-5z"
     fill-rule="evenodd"
     id="path299" /><path
     clip-rule="evenodd"
     d="m61.059 76.537c-2.323 2.676-5.312 4.686-8.999 6 1.561-3.144 5.566-7.92 8.999-6z"
     fill-rule="evenodd"
     id="path301" /><path
     clip-rule="evenodd"
     d="m63.059 78.537c-2.317 2.349-3.277 6.054-8 5.999 1.793-2.874 4.371-4.962 8-5.999z"
     fill-rule="evenodd"
     id="path303" /><path
     fill="#FFFFFF"
     clip-rule="evenodd"
     d="m161.05 87.535c5.959-0.373 8.252-4.413 10.999-7.999 5.483 19.139-30.328 19.429-30.997 3 5.65-7.703 15.4 0.257 20 4.999z"
     fill-rule="evenodd"
     id="path305" /><path
     clip-rule="evenodd"
     d="m61.059 86.536c-2.646-2.714 2.125-6.49 5-7-0.134 3.866-4.056 3.944-5 7z"
     fill-rule="evenodd"
     id="path307" /><path
     clip-rule="evenodd"
     d="m69.059 80.536c-1.621 3.045-2.336 6.997-7 6.999 1.446-3.221 3.779-5.553 7-6.999z"
     fill-rule="evenodd"
     id="path309" /><path
     fill="#FFFFFF"
     clip-rule="evenodd"
     d="m140.05 81.536c0.661 14.468-19.662 11.214-29.996 8.999-1.365-1.967-0.955-5.711-1.999-7.999 10.8 11.048 18.63-4.319 32-1z"
     fill-rule="evenodd"
     id="path311" /><path
     clip-rule="evenodd"
     d="m46.061 88.535c3.547 2.786 7.904 4.761 9.999 8.999-4.559-1.775-8.368-4.297-9.999-8.999z"
     fill-rule="evenodd"
     id="path313" /><path
     fill="#FAC8CB"
     clip-rule="evenodd"
     d="m143.05 89.535c0.145 2.811-2.448 2.884-4.998 3-0.46-3.124 2.13-3.197 5-3z"
     fill-rule="evenodd"
     id="path315" /><path
     clip-rule="evenodd"
     d="m177.04 89.535c1.754 3.913 2.812 8.521 8 8.999-4.58 3.296-10.93-4.694-8-8.999z"
     fill-rule="evenodd"
     id="path317" /><path
     fill="#FAC8CB"
     clip-rule="evenodd"
     d="m135.05 94.535c1.83-1.153 7.509 0.79 10.997-1-2.22 4.805-7.77 4.062-11 1z"
     fill-rule="evenodd"
     id="path319" /><path
     clip-rule="evenodd"
     d="m113.05 99.534c2.665 5.521-5.449 13.635-10.998 10.999 5.14-2.19 10.46-4.2 11-10.996z"
     fill-rule="evenodd"
     id="path321" /><path
     clip-rule="evenodd"
     d="m122.05 99.534c2.983 2.174-2.863 3.145-4 7.999-1.612 6.891 0.383 17.384-6.999 17.998 7.21-7.33 2.83-20.13 11-25.996z"
     fill-rule="evenodd"
     id="path323" /><path
     clip-rule="evenodd"
     d="m165.05 99.534c1.655 1.01 1.085 4.247 2 6-3.21 0.28-3.64-4.38-2-5.996z"
     fill-rule="evenodd"
     id="path325" /><path
     clip-rule="evenodd"
     d="m154.05 100.53c3.956 0.25-3.432 9.034 4 8.999-3.78 5.73-6.27-5.07-4-9z"
     fill-rule="evenodd"
     id="path327" /><path
     clip-rule="evenodd"
     d="m132.05 102.53c-3.799 2.201-3.018 8.981-7 10.999 1.53-4.47 1.71-10.29 7-11z"
     fill-rule="evenodd"
     id="path329" /><path
     clip-rule="evenodd"
     d="m178.04 114.53h3c0.658 2.104 2.646 4.446 1 6-2.84-0.48-2.87-3.79-4-6z"
     fill-rule="evenodd"
     id="path331" /><path
     clip-rule="evenodd"
     d="m149.05 118.53c4.75-0.6-2.754 8.891 4 7.999-1.034 4-3.964-0.229-5-2-0.73-3.06 1.72-2.94 1-6z"
     fill-rule="evenodd"
     id="path333" /><path
     fill="#FF0000"
     clip-rule="evenodd"
     d="m76.057 181.52c0.353 1.401 1.76 0.087 2-1 2.814 10.35 2.388 27.125 2 39.996-9.664-1.001-18.957-2.373-23.997-7.999 9.246-32.643-12.197-40.269-33.996-50.994 7.498-11.849-11.263-13.317-9.999-22.997 1.78-13.621 33.469-2.952 40.995-14.998 4.042 9.049 1.504 24.346-2 31.996-2.6 2.692-3.015-1.223-5.999-1 13.161 13.896 10.456-23.081 11.999-33.996 1.419 0.086 2.832 0.165 3-1 5.208 0.459 6.217 5.116 9.999 6.999 0.901 20.31 12.462 35.57 5.998 54.99z"
     fill-rule="evenodd"
     id="path335" /><path
     clip-rule="evenodd"
     d="m131.05 121.53c2.186 6.206-3.742 12.908-10 13.998 3.63-4.37 9.31-6.69 10-14z"
     fill-rule="evenodd"
     id="path337" /><path
     clip-rule="evenodd"
     d="m137.05 122.53c2.063 0.859 1.055 6.96 0 7.999-2.8-1.6 1.4-4.5 0-8z"
     fill-rule="evenodd"
     id="path339" /><path
     fill="#006B33"
     clip-rule="evenodd"
     d="m73.058 124.53c9.096 24.242 11.473 68.521 10.998 95.988-4.891-28.9-3.496-67.38-10.998-95.99z"
     fill-rule="evenodd"
     id="path341" /><path
     fill="#006B33"
     clip-rule="evenodd"
     d="m79.057 124.53c4.027-0.976 4.027 5.976 0 4.999v-5z"
     fill-rule="evenodd"
     id="path343" /><path
     clip-rule="evenodd"
     d="m167.05 124.53c3.085 3.196 7.184 6.272 10.997 5.999-2.8 4.21-11.89-0.13-11-6z"
     fill-rule="evenodd"
     id="path345" /><path
     fill="#006B33"
     clip-rule="evenodd"
     d="m196.04 128.53c1.614-0.282 1.721 0.945 3 1-6.492 35.836-20.887 63.771-29.996 96.988 6.1-31.57 18.42-65.57 27-97.99z"
     fill-rule="evenodd"
     id="path347" /><path
     clip-rule="evenodd"
     d="m107.05 129.53c-2.415 1.918-3.002 5.664-6 7-0.19-4.53 2.61-6.06 6-7z"
     fill-rule="evenodd"
     id="path349" /><path
     fill="#006B33"
     clip-rule="evenodd"
     d="m80.057 131.53c2.317 2.683 7.06 2.939 5.999 8.999-5.412 0.71-8.508-4.98-5.999-9z"
     fill-rule="evenodd"
     id="path351" /><path
     clip-rule="evenodd"
     d="m211.04 164.53c0.29-7.642 4.103-26.51-6.998-25.997-0.094-3.093 3.019-2.98 5.998-3 2.09 6.7 7.77 23.11 1 29z"
     fill-rule="evenodd"
     id="path353" /><path
     fill="#006B33"
     clip-rule="evenodd"
     d="m89.056 136.53c1.708 1.625 3.542 3.124 5 4.999 1.6 27.858 8.237 55.582 6 83.99-3.951-2.382-11.404-1.262-12.999-6 1.357-0.309 0.83-2.504 1-4 3.044-1.358 6.825 3.729 7-0.999 2.907 0.759-0.908 8.24 2 8.999 4.279-28.96-3.156-59.23-8.005-86.99z"
     fill-rule="evenodd"
     id="path355" /><path
     fill="#FF0000"
     clip-rule="evenodd"
     d="m107.05 149.53c3.6 0.268 4.818-1.847 7.999-2-2.835 4.758 1.339 6.893 2 10.999 3.438 0.438 5.604-0.395 7.999-1-3.5 22.829-8.673 43.987-8.999 69.991-5.627 0.295-10.114-0.552-13.998-2 0.197-30.527-3.401-57.258-6.999-83.99 3.946-0.96 9.179 4.59 11.999 8z"
     fill-rule="evenodd"
     id="path357" /><path
     fill="#006B33"
     clip-rule="evenodd"
     d="m82.056 142.53c5.43-0.763 5.417 3.916 6 8-3.458-0.812-4.221 1.867-6 0 1.376-3.03-0.475-3.57 0-8z"
     fill-rule="evenodd"
     id="path359" /><path
     fill="#006B33"
     clip-rule="evenodd"
     d="m190.04 143.53c-0.554 4.113-2.865 6.467-3 10.999-4.146 0.271-3.896-1.313-6.999 0 1.84-6.73 2.31-12.17 10-11z"
     fill-rule="evenodd"
     id="path361" /><path
     fill="#006B33"
     clip-rule="evenodd"
     d="m178.04 148.53c2.315 3.687-2.317 8.982-3.998 11.999-2.42-3.8 3.16-8.15 4-12z"
     fill-rule="evenodd"
     id="path363" /><path
     fill="#FF0000"
     clip-rule="evenodd"
     d="m173.04 149.53c-7.393 22.604-16.356 52.302-22.998 78.99-10.251 1.102-21.84 1.498-31.996 0-0.17-26.457 4.513-45.567 8.999-68.991 6.488 1.016 14.512 3.46 21.997 2 2.487-0.485 4.778-2.613 6.999-3 6.46-1.13 14.67 1.07 17-9zm-41.99 31.99c10.567 3.208 17.637-3.862 15.997-15.998-10.72-10.39-25.79 5.3-16 16zm1 31c2.727-1.605 7.708-0.957 9.998-3v-10.999c-11.15-8.11-22.17 9.11-10 14z"
     fill-rule="evenodd"
     id="path365" /><path
     fill="#006B33"
     clip-rule="evenodd"
     d="m83.056 152.53c3.1-0.101 4.777 1.222 6.999 2-0.722 3.056 1.022 3.644 1 6-2.346 2.362-4.912-0.163-7.999 0 0.893-3.82-1.632-6.39 0-8z"
     fill-rule="evenodd"
     id="path367" /><path
     fill="#006B33"
     clip-rule="evenodd"
     d="m185.04 156.53c0.528 4.194-1.747 5.585-2 8.999-3.335 1.067-3.413-0.317-6.998 1 0.96-5.39 1.9-10.77 9-10z"
     fill-rule="evenodd"
     id="path369" /><path
     fill="#006B33"
     clip-rule="evenodd"
     d="m172.04 161.53c1.701-0.368 1.886 0.78 2 2-7.702 17.688-11.835 40.63-17.999 56.993 1.52-19.84 8.9-39.83 16-58.99z"
     fill-rule="evenodd"
     id="path371" /><path
     fill="#006B33"
     clip-rule="evenodd"
     d="m90.055 162.53c2.255 0.745 0.392 5.608 1 7.999-2.464 0.131-4.817 0.151-5.999-1 0.09-3.735 1.121-2.85 0-5.999 1.453-0.55 5.168 1.16 4.999-1z"
     fill-rule="evenodd"
     id="path373" /><path
     clip-rule="evenodd"
     d="m147.05 165.52c1.641 12.135-5.43 19.206-15.997 15.998-9.79-10.7 5.28-26.39 16-16zm-13 15c8.524 0.526 11.167-4.829 10.998-12.998-2.598 0.598-3.598-0.402-3-3-12.02-2.76-14.88 11.12-8 16z"
     fill-rule="evenodd"
     id="path375" /><path
     fill="#006B33"
     clip-rule="evenodd"
     d="m175.04 167.52c2.102 2.434 4.444-0.886 5.998 1 0.062 3.727-1.009 6.324-2 8.999h-7.998c0.96-3.7 1.9-7.43 4-10z"
     fill-rule="evenodd"
     id="path377" /><path
     fill="#006B33"
     clip-rule="evenodd"
     d="m86.056 172.52c3.164 1.373 3.342 0.217 7 0 0.841 2.492 1.309 5.356 1 8.998-3.341 1.735-4.89-0.91-8-1.999v-7z"
     fill-rule="evenodd"
     id="path379" /><path
     fill="#006B33"
     clip-rule="evenodd"
     d="m170.04 179.52h8.998c-0.551 3.114-0.816 6.516-2 8.999-3.856-1.269-4.62 0.166-8.997-1 0.54-2.8 1.47-5.2 2-8z"
     fill-rule="evenodd"
     id="path381" /><path
     fill="#006B33"
     clip-rule="evenodd"
     d="m88.056 183.52h3c1.774 1.893 0.729 6.604 1 9.999-6.645-0.2-2.478-4.99-4-10z"
     fill-rule="evenodd"
     id="path383" /><path
     fill="#006B33"
     clip-rule="evenodd"
     d="m94.055 187.52c2.554 3.112 1.953 9.378 2 14.998-3.438 0.438-5.604-0.395-8-1v-5.999h6c1.633-1.62-0.892-4.18 0-8z"
     fill-rule="evenodd"
     id="path385" /><path
     fill="#006B33"
     clip-rule="evenodd"
     d="m167.05 189.52c4.447-0.783 6 1.332 9.997 1 0.165 3.163-2.656 3.342-1.998 6.999-1.66-1.674-5.87-0.795-8.999-1-0.81-3.47 1.49-3.84 1-7z"
     fill-rule="evenodd"
     id="path387" /><path
     clip-rule="evenodd"
     d="m142.05 198.52v10.999c-2.289 2.042-7.271 1.394-9.998 3-12.17-4.89-1.15-22.11 10-14zm-11 9c2.554-2.112 3.137-6.195 7-6.999 0.147 1.332-4.066 3.018-1 4-0.298-2.629 3.879-0.787 2.998-4-3.24-7.02-16.79 3.14-9 7z"
     fill-rule="evenodd"
     id="path389" /><path
     fill="#006B33"
     clip-rule="evenodd"
     d="m165.05 198.52h8.999c0.047 4.714-3.228 6.105-3 10.999-4.169-1.064-4.411-0.259-8.999 0-0.81-5.48 3.33-5.99 3-11z"
     fill-rule="evenodd"
     id="path391" /><path
     clip-rule="evenodd"
     d="m135.05 199.52c-0.441 2.891-2.108 4.558-5 4.999 0.44-2.89 2.11-4.56 5-5z"
     fill-rule="evenodd"
     id="path393" /><path
     fill="#006B33"
     clip-rule="evenodd"
     d="m88.056 203.52c1.182 1.151 3.534 1.131 6 1v8.999h-6v-10z"
     fill-rule="evenodd"
     id="path395" /><path
     fill="#006B33"
     clip-rule="evenodd"
     d="m161.05 211.52h8.999c-1.245 2.42-2.475 4.857-2.999 7.999-1.454-1.546-5.12-0.88-8-1 0.72-2.28 0.89-5.11 2-7z"
     fill-rule="evenodd"
     id="path397" /><path
     fill="#FFFFFF"
     clip-rule="evenodd"
     d="m54.06 212.52c3.142 1.524 1.665 7.668 2 11.999-2.066-2.6-2.121-7.21-2-12z"
     fill-rule="evenodd"
     id="path399" /><path
     fill="#006B33"
     clip-rule="evenodd"
     d="m166.05 220.52c1.292 6.292-3.095 6.905-8 6.999-1.51-6.5 2.03-7.96 8-7z"
     fill-rule="evenodd"
     id="path401" /><path
     fill="#006B33"
     clip-rule="evenodd"
     d="m154.05 221.52c3.857-0.585 1.455 6.584-0.999 5.999-0.02-2.36 1.72-2.95 1-6z"
     fill-rule="evenodd"
     id="path403" /><path
     fill="#FFFFFF"
     clip-rule="evenodd"
     d="m190.04 223.52c-2.45 2.883 1.723 12.388-4.999 10.999-0.268-3.601 1.847-4.819 1.999-7.999-3.158 0.174-2.711 3.955-2.999 6.999h-4c-0.843-4.177 1.944-4.722 2-7.999 3.77-0.48 4.24-0.29 8-2z"
     fill-rule="evenodd"
     id="path405" /><path
     clip-rule="evenodd"
     d="m81.057 224.52c4.199 1.992 0.228 6.637 2 9.999-4.396-1.47-0.119-7.73-2-10z"
     fill-rule="evenodd"
     id="path407" /><path
     clip-rule="evenodd"
     d="m87.056 225.52c2.676 2.286 2.625 10.51-1 11.999 1.916-2.42 0.632-8.04 1-12z"
     fill-rule="evenodd"
     id="path409" /><path
     fill="#FFFFFF"
     clip-rule="evenodd"
     d="m191.04 225.52h3c-1.18 2.487 0.463 7.796-3 7.999v-8z"
     fill-rule="evenodd"
     id="path411" /><path
     fill="#FFFFFF"
     clip-rule="evenodd"
     d="m176.04 226.52h3.998c-1.377 1.288-0.988 4.342-1 6.999h-3.998c1.38-1.29 0.99-4.35 1-7z"
     fill-rule="evenodd"
     id="path413" /><path
     clip-rule="evenodd"
     d="m236.04 234.52c-4.467-0.199-4.771-4.562-7.999-6-4.213 0.454-4.446 4.887-7 6.999-4.66-7.48 13.85-12.92 15-1z"
     fill-rule="evenodd"
     id="path415" /><path
     fill="#FFFFFF"
     clip-rule="evenodd"
     d="m175.04 227.52c-1.378 1.289-0.99 4.343-1 7h-4c0.62-3.39 0.28-7.72 5-7z"
     fill-rule="evenodd"
     id="path417" /><path
     fill="#FFFFFF"
     clip-rule="evenodd"
     d="m162.05 228.52h7c-0.04 3.294 0.408 7.075-3 6.999-0.726-3.058 1.725-2.941 1-5.999-3.942 1.057-1.474 8.526-5 9.999-2.69-2.44-0.05-7.99 0-11z"
     fill-rule="evenodd"
     id="path419" /><path
     clip-rule="evenodd"
     d="m231.04 233.52c-1.425 2.576-2.343 5.657-6 5.999 0.76-3.24 2.76-5.24 6-6z"
     fill-rule="evenodd"
     id="path421" /><path
     fill="#006B33"
     clip-rule="evenodd"
     d="m223.04 247.52c-2.783 15.107-31.363 31.283-41.995 13.999 4.459-2.249 7.979-5.313 12.999-2 0.306 2.306-2.889 1.111-3 3 3.453 4.618 8.735-6.476 13.999-1-1.452-3.966 1.879-5.881 4.998-9.999-2.056-2.312-5.212 2.73-9.997 1-0.547-1.453 1.167-5.168-1-5 8.99-7.08 18.75-20.36 24 0z"
     fill-rule="evenodd"
     id="path423" /><path
     clip-rule="evenodd"
     d="m235.04 236.52c-0.796 3.537-5.004 3.663-5.999 6.999-3.92-1.59 2.05-7.02 6-7z"
     fill-rule="evenodd"
     id="path425" /><path
     clip-rule="evenodd"
     d="m233.04 249.52h-2.999c-0.638-2.181 2.833-3.181-1-2.999 0.767-3.232 2.767-5.232 5.999-6 0.89 4.56-1.67 5.66-2 9z"
     fill-rule="evenodd"
     id="path427" /><path
     fill="#006B33"
     clip-rule="evenodd"
     d="m193.04 250.52h5c0.02 2.28-6.07 5.44-5 0z"
     fill-rule="evenodd"
     id="path429" /><path
     fill="#006B33"
     clip-rule="evenodd"
     d="m202.04 255.51c-1.616 1.507-4.812 4.069-6.999 2 0.97-2.03 3.84-2.16 7-2z"
     fill-rule="evenodd"
     id="path431" /><path
     clip-rule="evenodd"
     d="m143.05 419.49c2.865 1.465 1.119 2.649 2 6.999-2.71-0.41-4.13-4.75-2-7z"
     fill-rule="evenodd"
     id="path433" /><path
     clip-rule="evenodd"
     d="m102.05 427.49c-0.998 1.335-2.703 1.963-3 4-3.136-1.7 0.736-7.4 3-4z"
     fill-rule="evenodd"
     id="path435" /><path
     clip-rule="evenodd"
     d="m79.057 433.49c1.615-0.281 1.722 0.944 3 1-0.692 1.763-1.104 3.097 0 4-2.206 3.41-2.264-3.64-3-5z"
     fill-rule="evenodd"
     id="path437" /><path
     clip-rule="evenodd"
     d="m157.05 437.49c1.162 0.839 2.681 1.318 5 1-1.119 1.439-1.078 2.439 1 2.998-3.82 1.25-5.185-2.371-9-1 0.11-1.89 3.3-0.69 3-3z"
     fill-rule="evenodd"
     id="path439" /><path
     clip-rule="evenodd"
     d="m171.04 438.49c3.802 0.023 3.642 5.206-1 3.998 0.78-0.89 1.08-2.26 1-4z"
     fill-rule="evenodd"
     id="path441" /><path
     clip-rule="evenodd"
     d="m193.04 443.49c0.73-2.934 3.766-3.567 6-4.998-0.62 3.05-2.22 5.11-6 5z"
     fill-rule="evenodd"
     id="path443" /><path
     fill="#A99A6F"
     clip-rule="evenodd"
     d="m88.056 447.49c-1.521 2.479-0.247 7.753-2 9.999-5.232-0.888-9.142-0.208-14.998-1.999 2.506-4.63 8.584 1.228 13.998 0 2.168 0.167 0.453-3.547 1-5-1.513-1.487-4.388-1.61-6.999-2 1.078-4.05 4.76 0.3 8.999-1z"
     fill-rule="evenodd"
     id="path445" /><path
     fill="#A99A6F"
     clip-rule="evenodd"
     d="m184.04 448.49c1.599 2.735 2.059 6.607 1.999 10.999-5.158-2.175-14.215-0.449-20.996-1 0.346-2.758-2.871-7.021 0-8.999 4.25-0.917 4.269 2.396 4 6 4.467 0.236 11.034 2.449 14.997 0 0.83-3.59-2.25-4.84 0-7z"
     fill-rule="evenodd"
     id="path447" /><path
     fill="#666666"
     clip-rule="evenodd"
     d="m179.04 449.49c2.187 0.146 2.148 2.52 2 5-3.93-0.07-7.515-0.484-9.998-2-1.01-4.68 7.52 0.18 8-3z"
     fill-rule="evenodd"
     id="path449" /><path
     clip-rule="evenodd"
     d="m96.055 452.49c1.516 5.204-8.767 7.215-9 13.998-2.529-6.22 6.871-9.11 9-14z"
     fill-rule="evenodd"
     id="path451" /><path
     clip-rule="evenodd"
     d="m152.05 465.49c-2.368-4.402 5.156-7.485 8.999-8.999-1.96 4.04-7.34 4.67-9 9z"
     fill-rule="evenodd"
     id="path453" /><path
     clip-rule="evenodd"
     d="m162.05 474.49c4.021-5.311 8.949-9.714 15.997-11.997-4.19 4.49-12.61 10.05-16 12z"
     fill-rule="evenodd"
     id="path455" /><path
     clip-rule="evenodd"
     d="m183.04 462.49c-2.846 5.153-10.596 5.401-11.998 11.997-1.47-5.5 6.22-10.44 12-12z"
     fill-rule="evenodd"
     id="path457" /><path
     clip-rule="evenodd"
     d="m84.056 466.49c2.465 3.182-4.9 5.06-5 8.998-4.42-2.3 3.796-6.02 5-9z"
     fill-rule="evenodd"
     id="path459" /><path
     clip-rule="evenodd"
     d="m55.06 468.49c1.358 2.402-3.499 7.132-5.999 8.998-0.178-5.18 3.973-6.03 5.999-9z"
     fill-rule="evenodd"
     id="path461" /><path
     fill="#666666"
     clip-rule="evenodd"
     d="m158.05 470.49c-2.05 3.281-6.14 4.525-7.999 7.998-2.91-4.29 2.75-8.56 8-8z"
     fill-rule="evenodd"
     id="path463" /><path
     clip-rule="evenodd"
     d="m199.04 470.49c0.787 4.119-4.788 1.877-4 5.998-4.58-1.77 1.35-5.38 4-6z"
     fill-rule="evenodd"
     id="path465" /><path
     clip-rule="evenodd"
     d="m95.055 471.49c2.714 0.911-1.02 3.504-1 5-4.379-1.5 0.129-3.16 1-5z"
     fill-rule="evenodd"
     id="path467" /><path
     clip-rule="evenodd"
     d="m59.059 476.49c0.566 3.261-3.004 10.975-7.999 11.999 2.216-4.45 5.166-8.17 7.999-12z"
     fill-rule="evenodd"
     id="path469" /><path
     fill="#666666"
     clip-rule="evenodd"
     d="m102.05 478.49c2.235 2.302-2.483 6.133-3 8.999-3.485-3.56 2.77-5.86 3-9z"
     fill-rule="evenodd"
     id="path471" /><path
     clip-rule="evenodd"
     d="m170.04 478.49c-0.468 5.865-6.079 6.586-7.999 10.999-4.01-3.14 4.19-9.25 8-11z"
     fill-rule="evenodd"
     id="path473" /><path
     clip-rule="evenodd"
     d="m190.04 479.48c-4.431 5.901-8.69 11.976-14.997 15.999 4.56-5.77 8.12-12.55 15-16z"
     fill-rule="evenodd"
     id="path475" /><path
     clip-rule="evenodd"
     d="m61.059 480.48c1.359 2.733-2.294 9.009-6 10 0.842-4.49 4.714-5.95 6-10z"
     fill-rule="evenodd"
     id="path477" /><path
     clip-rule="evenodd"
     d="m171.04 493.48c4.494-4.838 7.729-10.937 14.997-13-5.61 3.73-8.36 10.31-15 13z"
     fill-rule="evenodd"
     id="path479" /><path
     fill="#666666"
     clip-rule="evenodd"
     d="m100.06 488.48c1.022 22.025-41.731 19.862-49.994 5 14.744 9.45 39.478 6.02 49.994-5z"
     fill-rule="evenodd"
     id="path481" /><path
     fill="#666666"
     clip-rule="evenodd"
     d="m158.05 496.48c7.293 2.688 18.945 3.612 32.996 3-9.68 6.36-26.1 4-33-3z"
     fill-rule="evenodd"
     id="path483" /><path
     fill="#FF0000"
     clip-rule="evenodd"
     d="m178.04 6.545c-0.008 6.341 2.44 10.226 4 14.998-5.623-3.144-11.922-7.146-19.997-4.999-0.625-3.709-2.811-5.855-4-8.999-3.711-0.378-6.817-0.152-6.999 3 2.171 3.681 2.225-2.993 4.999-2 1.475 2.525 3.533 4.466 4 7.999-11.53-1.035-20.604-7.437-31.996-3 5.829-6.17 23.716-0.28 26.996-8.999 8.96 0.869 17.88-3.425 23 2z"
     fill-rule="evenodd"
     id="path485" /><path
     fill="#FFFFFF"
     clip-rule="evenodd"
     d="m105.7 55.756c-3.967-4.76-9.248-8.602-13.648-11.215 6.161-15.64 20.34-28.134 38.996-27.996 6.463-5.704 10.926 1.372 22.996 3 11.708 1.579 26.57-2.54 27.997 9.999 12.336-2.004 7.537 13.127 12.999 17.998-3.392 10.929 6.635 21.887-4 27.997 1.018 5.684-2.47 6.863-5.999 7.999 0.528-0.804 1.044-1.624 0.999-3-2.332 0.334-4.307 1.025-4.999 3-0.213 3.212 3.565 2.433 4.999 4 4.578 7.045 1.733 22.278 12 26.997 0.833 6.832-2.709 9.291-7 10.999 1.001-13.333-13.091-11.573-17.997-18.998 0.72 7.934 25.428 10.897 13.997 24.997-5.859-4.139-14.946-5.05-17.996-11.999-0.073 12.071 17.021 6.977 17.996 17.998-5.978 3.425-5.293 11.548-14.997 12.998 3.79-14.475-14.645-13.527-13.999-27.996-2.254 0.744-0.391 5.608-1 7.999 3.72 4.28 8.405 7.593 12.999 10.999 0.639 5.195-2.206 8.013 0 11.999-4.107 4.387-9.274 4.773-13.999 4 2.195-2.173 6.213-7.742 3-11.999-2.474 0.86 0.295 6.96-2 8-2.94-11.026-16.577-15.67-10.999-31.996-13.052 15.428 16.34 25.301 5 38.995-3.962 0.368-6.11-2.343-7.999 1-0.932-1.067-3.688-0.312-3-3-8.013 6.316-13.517-6.478-20.997-1-0.585-2.081-2.101-3.232-3-5-0.745-3.078 2.745-1.921 2-5-0.189-0.81-1.003-0.997-1-2-4.085-0.42-4.041 3.291-8.998 2-0.251-12.984 16.664-13.905 15.998-23.997-3.896 8.768-16.064 9.266-16.998 20.997-5.757-2.768-10.478-5.466-15.999-8.999 2.608-4.724 3.338-11.327 8-13.998-8.349-3.994-5.554 15.962-13.999 11.999-0.354-7.056 1.049-18.086 11.999-18.998-2.907-1.204-11.857 0.115-11.999 4.999-0.583-5.931 4.93-14.39 14.999-12.998-1.006-3.976-6.026-0.959-9-1 1.417-3.583 8.077-1.922 10.999-4-3.45-2.077-11.775-0.474-12.999 3-2.813-9.823 15.711-6.945 16.998-15.998 5.299 12.117 27.49 2.408 33.995 11.999 3.741-0.259 5.682-2.318 7.999-4 11.299 1.493 28.984 1.996 25.998-13.998 1.985 0.013 1.271 2.728 3.998 2 0.395-2.354-1.635-7.588 3-9.999-2.018-1.951-6.292 2.323-5.998 5.999-3.578-1.132 1.847-6.597-1-6.999 2.194-0.818 4.938-0.079 5.998-4-0.109-3.542-3.306 2.125-3-1-0.172-2.505 2.24-2.427 3-4-9.51-0.376-9.547-22.615-23.997-17.998 0.072-5.684-4.404-9.481-7.999-5.999 3.17 2.732 6.616-0.182 6.999 5.999-11.5-0.402-19.795-1.023-34.995-1-5.915 2.084-8.529 7.469-13.998 9.999l-0.34 0.212zm75.34 23.78c3.337 1.004 3.278-1.387 3-4-1.742 0.075-3.109-0.223-4-1-0.49 3.14 3.45 2.643 1 5zm-67.99-33.995c2.567-2.143-0.836-5.586 1-6.999-1.176 0.156-2.838-0.172-3 1 3.12 1.288-2.51 5.61 2 5.999zm15-2c2.231-0.435 3.564-1.768 4-3.999h-4v3.999zm-18 4c0.41-2.409-1.826-2.174-1-5-2.061 0.605-6.946-1.614-5.999 2 4.29-2.684 3.29 2.512 7 3zm73.99 14.998c-1.926-0.407-0.789-3.876-4-3-0.48 2.264 2.51 6.003 4 3zm-34.99 4.999c1.999 2.334 3.891 4.776 6.999 6 3.618-2.094 5.383-2.094 9 0 1.83-4.907-9.77-9.163-16-6zm35.99 30.996c-5.188-0.478-6.246-5.086-8-8.999-2.93 4.305 3.42 12.295 8 8.999zm-82.99 11.996c5.549 2.637 13.663-5.478 10.998-10.999-0.54 6.799-5.86 8.809-11 10.999zm9 15c7.382-0.614 5.387-11.107 6.999-17.998 1.136-4.854 6.982-5.825 4-7.999-8.17 5.869-3.79 18.669-11 25.999zm56-20c-0.915-1.753-0.345-4.989-2-6-1.64 1.62-1.21 6.28 2 6zm-9 4c-7.432 0.035-0.044-8.749-4-8.999-2.27 3.93 0.22 14.73 4 9zm-33 4c3.982-2.018 3.201-8.798 7-10.999-5.29 0.71-5.47 6.53-7 11zm18-1c-1.104-2.955-0.347-7.058-1-7.999-0.88 1-2.78 8.66 1 8zm38.99 8c1.646-1.554-0.342-3.896-1-6h-3c1.13 2.21 1.16 5.52 4 6zm-82.985 6c4.067-1.29 9.693-6.271 7.999-9.999-0.43 5.57-7.131 4.87-7.995 10zm48.995-2c1.036 1.771 3.966 5.999 5 2-6.754 0.892 0.75-8.599-4-7.999 0.72 3.06-1.73 2.94-1 6zm-27 11c6.258-1.09 12.186-7.792 10-13.998-0.69 7.31-6.37 9.63-10 14zm16-5c1.055-1.039 2.063-7.14 0-7.999 1.4 3.5-2.8 6.4 0 8zm40.99 0c-3.813 0.273-7.912-2.803-10.997-5.999-0.88 5.87 8.21 10.21 11 6zm-76.99 6c2.997-1.335 3.584-5.082 6-7-3.39 0.94-6.19 2.47-6 7zm24 12c-0.079-4.688 11.414-7.54 7-9.999-0.57 4.41-12.41 6-7 10zm22 3c-1.541-4.458-3.405-8.593-7.999-10 2.2 3.8 5.29 6.71 8 10z"
     fill-rule="evenodd"
     id="path487" /><path
     fill="#006B33"
     clip-rule="evenodd"
     d="m68.059 69.538c-3.202 4.179 5.574 3.293 5.999 6.999-9.391 0.81-12.979-12.401-6.999-17.998 11.53-0.801 18.181-6.483 25.997-10.999 8.683 2.315 10.312 11.686 16.998 15.998 0.581 13.578-6.035 19.962-16.998 21.998 0.053-4.504 7.074-3.146 4-7.999 8.412-0.225 3.343-4.692 4.999-8.999-3.232 0.767-5.232 2.767-5.999 6-3.288-2.083 1.688-4.217 2-6-0.355-6.486-4.932-2.538-6-7.999-2.208 0.125-0.425 4.242-1 6-3.649 0.649-5.325-0.674-6.999-2 0.294-2.039 2.706-1.961 3-4-1.424 1.601-11.289 3.357-14.998 6 1.331 2.536 4.438-1.466 6.999-1-0.279 2.279 0.241 3.759 2 4-1.24 3.267-8.702-4.45-8.999 1 0.78 0.814 4.836 0.102 6.999 2-3.394 2.679-8.49-1.469-10.994-3.001z"
     fill-rule="evenodd"
     id="path489" /><path
     fill="#FFFFFF"
     clip-rule="evenodd"
     d="m198.04 52.54c4.427 0.571 5.035 4.962 6.999 7.999-1.987 1.666-1.272-0.091-4 0-1.027 3.359 3.109 1.557 5 2 0.089 3.735 1.119 2.85 0 5.999-1.357-0.31-0.831-2.503-1-4-2.278 2.185-2.278 5.814 0 7.999-2.627 2.374-5.228 4.772-6.999 7.999-3.742-2.537 2.112-3.792 1-6.999-2.988-0.415-4.983 8.885-1 8.999-6.426 2.239-4.096-6.512-2-9.999 3.055-0.723 3.643 1.022 5.999 1-0.353-4.496-2.995-2.899-4.999-4-0.726-3.058 1.725-2.941 1-6 0.804 0.529 1.622 1.043 2.999 1-0.59-4.404-1.96-8.031-3-11.997z"
     fill-rule="evenodd"
     id="path491" /><path
     clip-rule="evenodd"
     d="m185.04 24.543c3.14 2.194 6.812 3.854 8.999 7-1.393 8.392 4.503 9.496 4 16.998 2.774 1.558 5.824 2.841 7.999 5 6.868 12.236 0.497 27.258-7.999 34.996-2.348-0.319-3.754-1.58-7-1 5.172 8.55 2.896 20.271 10.999 26.996 0.343 4.676-2.158 6.508-2.999 10 9.104 4.093 21.254 8.663 30.996 8.999 3.565 5.005 3.266 8.699 5.999 12.998 8.325 13.095 29.527 17.537 30.996 35.995 0.718 9.033 1.192 27.032 0 34.996-2.115 14.116-15.729 18.947-19.998 32.996-12.464-1.925-14.21 13.404-24.997 7-2.779 11.885-18.003 11.325-25.996 17.998 11.325 34.947 11.612 80.27 8.999 123.98 14.682 10.759 10.521 44.971-6.999 48.993 1.223 13.064 12.232 26.601 8.999 40.995-2.452 10.908-32.87 23.875-47.995 11.999-15.359-12.062-10.582-36.311-11.999-57.994-11.57-8.083-22.571-36.646-8.997-48.993-3.505-19.825-18.291-28.371-19.999-49.994-1.81 14.533-9.792 30.637-4 42.995 3.347 7.141 10.912 9.684 11.999 16.998 0.994 6.689-3.228 12.459-1 18.998-4.961 6.704-12.844 10.485-18.997 15.998-1.926 14.056-0.159 31.138-1 52.993-8.179 17.841-41.377 16.98-55.994 5.999-5.048-17.254-3.165-38.92 4.999-50.994-10.596-8.733-20.675-17.987-18.997-38.994 2.554-5.78 9.985-6.681 13.998-10.999 1.773-7.207-4.783-9.637-6.999-15.999-7.564-21.71 2.995-52.743-2-71.991 7.597-9.946 4.03-26.163 5.999-39.994 0.682-4.784 5.296-8.992 5.999-13.998 0.834-5.94-2.646-14.53-2-21.997 0.201-2.32 2.064-4 2-6-0.195-6.097-3.748-12.149-3-17.998 0.958-7.483 8.833-12.135 4.999-19.998-9.839-9.158-17.493-20.502-35.995-20.998-0.909-7.875-13.229-10.138-15.998-19.997-2.479-8.823 3.49-22.653 2-34.996-0.718-5.939-4.622-13.295-4-17.998 0.482-3.642 7.239-16.902 9.999-19.998 2.134-2.394 10.411-4.626 13.998-6.999 8.448-5.586 13.438-20.757 24.997-10.999 12.617-6.154 28.282-0.762 38.995-10.999 0.743-15.029 14.951-27.225 26.997-33.996 9.076-5.102 19.669-4.396 30.995-6.999 11.268-2.589 27.082-10.485 34.996-1 4.44 5.317 2.43 14.058 4 20.001zm16 39.995c-1.377 0.043-2.195-0.471-2.999-1 0.725 3.059-1.726 2.941-1 6 2.004 1.1 4.646-0.497 4.999 4-2.356 0.022-2.944-1.723-5.999-1-2.096 3.487-4.426 12.238 2 9.999-3.983-0.114-1.988-9.414 1-8.999 1.112 3.207-4.742 4.462-1 6.999 1.771-3.227 4.372-5.625 6.999-7.999-2.278-2.185-2.278-5.814 0-7.999 0.169 1.496-0.357 3.69 1 4 1.119-3.149 0.089-2.264 0-5.999-1.891-0.443-6.027 1.359-5-2 2.728-0.091 2.013 1.666 4 0-1.964-3.037-2.572-7.428-6.999-7.999 1.04 3.965 2.41 7.592 3 11.997zm-45.99-59.993c-3.279 8.719-21.167 2.829-26.996 8.999 11.392-4.437 20.465 1.965 31.996 3-0.467-3.533-2.525-5.474-4-7.999-2.774-0.993-2.828 5.681-4.999 2 0.182-3.152 3.288-3.377 6.999-3 1.189 3.144 3.375 5.29 4 8.999 8.075-2.147 14.374 1.855 19.997 4.999-1.56-4.772-4.008-8.657-4-14.998-5.13-5.425-14.05-1.131-23-2zm22.99 79.991c-2.727 0.729-2.013-1.987-3.998-2 2.986 15.994-14.699 15.491-25.998 13.998-2.317 1.682-4.258 3.741-7.999 4-6.505-9.59-28.695 0.118-33.995-11.999-1.287 9.053-19.811 6.175-16.998 15.998 1.223-3.473 9.548-5.076 12.999-3-2.922 2.077-9.582 0.417-10.999 4 2.974 0.041 7.994-2.976 9 1-10.069-1.392-15.582 7.067-14.999 12.998 0.142-4.884 9.092-6.203 11.999-4.999-10.95 0.911-12.354 11.941-11.999 18.998 8.444 3.964 5.649-15.993 13.999-11.999-4.661 2.671-5.391 9.274-8 13.998 5.521 3.533 10.241 6.23 15.999 8.999 0.933-11.731 13.101-12.229 16.998-20.997 0.667 10.092-16.249 11.013-15.998 23.997 4.957 1.291 4.913-2.42 8.998-2-0.003 1.003 0.811 1.19 1 2 0.745 3.078-2.745 1.922-2 5 0.898 1.768 2.414 2.919 3 5 7.48-5.478 12.983 7.315 20.997 1-0.688 2.688 2.068 1.933 3 3 1.889-3.343 4.037-0.632 7.999-1 11.34-13.694-18.052-23.567-5-38.995-5.578 16.326 8.059 20.97 10.999 31.996 2.295-1.04-0.474-7.14 2-8 3.213 4.257-0.805 9.826-3 11.999 4.725 0.774 9.892 0.387 13.999-4-2.206-3.985 0.639-6.804 0-11.999-4.594-3.406-9.279-6.719-12.999-10.999 0.609-2.391-1.254-7.254 1-7.999-0.646 14.469 17.789 13.521 13.999 27.996 9.704-1.45 9.02-9.573 14.997-12.998-0.976-11.021-18.069-5.927-17.996-17.998 3.05 6.949 12.137 7.86 17.996 11.999 11.431-14.1-13.277-17.062-13.997-24.997 4.906 7.424 18.998 5.665 17.997 18.998 4.291-1.708 7.833-4.167 7-10.999-10.267-4.719-7.422-19.952-12-26.997-1.434-1.567-5.212-0.788-4.999-4 0.692-1.975 2.667-2.666 4.999-3 0.045 1.376-0.471 2.196-0.999 3 3.529-1.136 7.017-2.315 5.999-7.999 10.635-6.109 0.608-17.067 4-27.997-5.462-4.871-0.663-20.002-12.999-17.998-1.427-12.538-16.289-8.42-27.997-9.999-12.069-1.627-16.532-8.704-22.996-3-18.655-0.138-32.834 12.356-38.996 27.996 10.396 6.174 25.706 19.203 16.998 34.996 3.695-0.029 3.627 3.706 6 4.999 1.004-1.329 0.945-3.72 3-4 1.301 2.482-2.934 4.15 0 5 2.651-0.682 1.119-5.547 5-5 0.395 1.72-1.484 2.563 0 3 0.261-1.556 2.193-0.694 3 0 2.171-7.495 8.156-11.175 10-18.998 2.783-0.45-0.784 5.45 2 5 0.186-1.48 2.416-0.917 3.998-1-0.196-2.863-0.123-5.457 3-4.999-2.894 6.186 5.954 8.496 5.999 14.998 6.119-1.811 3.232 3.673 7.999 1 1.949 6.061 3.205 1.732 7 4.999 3.829-3.367 0.146-6.394-1-9.999 6.333-1.279-0.041-5.898 3-10.999-5.224-2.066-10.637-5.993-17.999-3-5.271-12.063 10.396-10.585 16.999-6.999-3.496-11.261-27.221 0.051-32.996-6.999-2.503 4-8.183 0.526-11.999 0-5.898 1.781-8.905 11.741-15.998 8.999 5.469-2.53 8.083-7.915 13.998-9.999 15.2-0.023 23.495 0.598 34.995 1-0.383-6.181-3.829-3.267-6.999-5.999 3.595-3.482 8.071 0.315 7.999 5.999 14.45-4.618 14.487 17.622 23.997 17.998-0.76 1.572-3.172 1.494-3 4-0.306 3.125 2.891-2.542 3 1-1.06 3.92-3.804 3.181-5.998 4 2.847 0.402-2.578 5.867 1 6.999-0.294-3.676 3.98-7.95 5.998-5.999-4.63 2.405-2.6 7.639-3 9.993zm-98.983-11.999c-2.163-1.897-6.218-1.185-6.999-2 0.296-5.45 7.759 2.267 8.999-1-1.759-0.241-2.279-1.72-2-4-2.56-0.466-5.668 3.536-6.999 1 3.709-2.643 13.574-4.399 14.998-6-0.293 2.039-2.705 1.961-3 4 1.674 1.326 3.35 2.649 6.999 2 0.575-1.758-1.208-5.875 1-6 1.068 5.461 5.645 1.513 6 7.999-0.312 1.782-5.288 3.917-2 6 0.767-3.232 2.767-5.232 5.999-6-1.656 4.307 3.413 8.774-4.999 8.999 3.074 4.853-3.947 3.495-4 7.999 10.963-2.035 17.578-8.419 16.998-21.998-6.686-4.312-8.314-13.682-16.998-15.998-7.816 4.516-14.466 10.197-25.997 10.999-5.981 5.596-2.392 18.808 6.999 17.998-0.424-3.706-9.201-2.82-5.999-6.999 2.508 1.534 7.604 5.682 11.002 3.001zm71.993-14.998c5.882-3.88 11.953 0.466 16.999 3 4.09-6.489-17.84-14.841-17-3zm-146.98 38.995c-0.231 3.14 3.526 10.865 3.999 16.998 1.019 13.201-4.894 26.075-1.999 34.996 1.781 5.49 10.947 10.555 14.998 9.999-0.977-10.021-12.939-9.058-13.998-18.998 3.157-7.593 11.645-9.787 19.997-10.999 19.799-2.872 33.839-8.235 39.995-28.997-2.48 0.147-4.853 0.187-5-2 4.124-1 8.771 0.747 8.999-2 2.764-2.83-2.831-5.786-3-8.999 2.532-1.801 7.18-1.485 5.999-7-11.518 0.407-13.046-12.989-11.997-21.995-5.494 0.172-8.679 2.653-11.999 5-2.123-1.544-4.456-2.877-7-4-2.915 1.75-2.535 6.796-6.999 6.999-0.856-2.333 3.497-4.308 1-5-8.719 11.474-31.648 17.689-32.995 35.996zm166.97-17.997c2.73-6.097 0.339-10.608-1-16.998-0.94 3.973-1.37 10.843 1 16.998zm4-9.999c-0.173-2.828 0.859-6.859-2-6.999-0.16 3.159-0.03 6.034 2 6.999zm-88.984-1c-3.947 1.281-2.418-2.913-4.999-3-2.927 1.955 3.17 6.056 4.999 3zm43.994 10.999c6.996-0.582 11.754 1.346 18.997-2-2.97-11.342-16.53-5.892-19 2zm-36.995 0c2.384-2.885-1.47-5.934-3-7.999 1.072 2.593 0.636 6.696 3 7.999zm-16.998 17.997c-2.161 9.602-9.373 12.982-11.998 19.997 1.763 0.904 3.096 2.237 4 4 3.93-2.482 8.483-2.285 11.998-3 1.739-4.998-1.008-6.798-1-9.999 0.041-16.196 17.272-21.048 5-32.996-9.768 3.38-5.953 12.907-8 22zm64.993-13.998c0.669 16.429 36.48 16.139 30.997-3-2.747 3.586-5.04 7.626-10.999 7.999-4.6-4.742-14.35-12.702-20-4.999zm-33 0c1.044 2.288 0.634 6.031 1.999 7.999 10.333 2.216 30.657 5.47 29.996-8.999-13.37-3.319-21.2 12.048-32 1zm-17.995 13.998c4.079-5.649 21.155-5.312 14.999-14.998-2.61 6.728-14.157 9.823-14.995 14.998zm47.995-3.999c2.55-0.116 5.143-0.188 4.998-3-2.87-0.197-5.46-0.124-5 3zm8 1c-3.488 1.79-9.167-0.153-10.997 1 3.23 3.062 8.78 3.805 11-1zm-75.992 32.995c-3.782-1.883-4.792-6.54-9.999-6.999-0.167 1.165-1.58 1.086-3 1-1.543 10.915 1.162 47.892-11.999 33.996 2.984-0.223 3.399 3.692 5.999 1 3.504-7.65 6.042-22.947 2-31.996-7.526 12.046-39.215 1.377-40.995 14.998-1.264 9.68 17.497 11.148 9.999 22.997 21.798 10.725 43.241 18.351 33.996 50.994 5.04 5.626 14.333 6.998 23.997 7.999 0.388-12.871 0.814-29.646-2-39.996-0.239 1.087-1.646 2.401-2 1 6.465-19.42-5.096-34.68-5.998-54.99zm13.998 93.99c0.475-27.466-1.902-71.746-10.998-95.988 7.502 28.61 6.107 67.09 10.998 95.99zm-4.999-90.99c4.027 0.977 4.027-5.975 0-4.999v5zm105.98 12h5.999c-0.722-3.055 1.022-3.643 1-5.999-0.111-1.889-3.305-0.694-3-3 2.005-2.843 4.647-1.247 5-4-7.53-2.05-3.12 10.26-9 13zm-15.99 84.99c9.109-33.217 23.504-61.152 29.996-96.988-1.279-0.055-1.386-1.282-3-1-8.59 32.42-20.91 66.42-27 97.99zm75.99 21c1.119-3.213 2.736-5.928 2.999-9.998 14.161-4.431 19.307-37.805 15.999-55.994-3.096-17.025-26.812-22.835-32.995-33.995-1.67-4.331-2.854-9.146-6-11.999-12.288 0.872-15.101-4.319-23.997-5-6.267 34.395-21.304 60.021-27.996 93.988 32.29-2.607 32.049-32.818 29.996-63.992 3.236 8.428 4.283 19.046 4 30.996h7.998c-8.448-19.179 3.954-40.191 8.999-51.994 0.24 1.427 1.646 1.686 2 2.999-7.27 11.611-18.734 35.736-7 50.994 9.435-8.23 26.493-8.835 30.996-21.997-4.555-1.223-3.922 2.743-7.999 2 1.556-3.111 4.511-4.821 8.999-5 1.483 21.842-36.729 17.907-36.995 37.996 13.857-7.698 39.095-8.591 42.994-22.998-0.587 15.746-23.858 17.467-38.995 21.998-2.852 3.813-6.81 6.521-9.997 9.998-0.6 5.265 0.74 8.591 0.998 12.999 2.319-5.163 5.723-12.254 12.999-6.999-1.812 5.202-10.1 9.21-10.999 11.999 6.04-0.294 6.663-6.002 10.999-7.999-0.037 6.262-8.107 7.716-2 11.999 4.096 0.385 4.403-8.205 8-5-1.617 3.049-3.645 5.688-7 6.999 6.354 0.646 1.616 12.383 6 14.998 4.67-4.12 9.09-10 18-7.02zm-158.98-106.99c1.061-6.06-3.682-6.316-5.999-8.999-2.509 4.02 0.587 9.71 5.999 9zm10.999 82.99c-2.908-0.759 0.907-8.239-2-8.999-0.175 4.728-3.955-0.359-7 0.999-0.17 1.496 0.357 3.691-1 4 1.595 4.738 9.048 3.618 12.999 6 2.238-28.409-4.4-56.132-6-83.99-1.458-1.875-3.292-3.373-5-4.999 4.855 27.76 12.29 58.03 8.005 86.99zm-2-81.99c3.598 26.732 7.196 53.463 6.999 83.99 3.884 1.448 8.371 2.294 13.998 2 0.326-26.004 5.498-47.162 8.999-69.991-2.395 0.605-4.562 1.438-7.999 1-0.66-4.106-4.834-6.241-2-10.999-3.18 0.153-4.398 2.267-7.999 2-2.82-3.41-8.053-8.96-11.995-8zm-12.999 9c1.778 1.867 2.542-0.812 6 0-0.583-4.083-0.57-8.763-6-8-0.475 4.43 1.376 4.97 0 8zm97.984 4c3.104-1.313 2.854 0.271 6.999 0 0.135-4.532 2.446-6.886 3-10.999-7.69-1.17-8.16 4.27-10 11zm-6 6c1.681-3.016 6.313-8.312 3.998-11.999-0.84 3.85-6.42 8.2-4 12zm-17.99-2c-2.221 0.387-4.512 2.514-6.999 3-7.484 1.461-15.509-0.984-21.997-2-4.486 23.424-9.169 42.534-8.999 68.991 10.155 1.498 21.745 1.102 31.996 0 6.642-26.688 15.605-56.386 22.998-78.99-2.34 10.07-10.55 7.87-17 9zm-72.994 2c3.087-0.163 5.653 2.362 7.999 0 0.022-2.355-1.722-2.944-1-6-2.222-0.777-3.899-2.1-6.999-2-1.632 1.61 0.893 4.18 0 8zm92.984 5.99c3.585-1.317 3.663 0.067 6.998-1 0.253-3.414 2.528-4.804 2-8.999-7.1-0.76-8.04 4.62-9 10zm-19.99 54c6.164-16.362 10.297-39.304 17.999-56.993-0.114-1.22-0.299-2.368-2-2-7.11 19.16-14.49 39.15-16 58.99zm-70.994-56.99c1.121 3.149 0.09 2.264 0 5.999 1.182 1.151 3.535 1.131 5.999 1-0.608-2.391 1.255-7.254-1-7.999 0.169 2.16-3.546 0.45-4.999 1zm85.984 13.99h7.998c0.991-2.675 2.062-5.272 2-8.999-1.554-1.885-3.896 1.435-5.998-1-2.1 2.57-3.04 6.3-4 10zm-84.984 2c3.109 1.089 4.659 3.734 8 1.999 0.309-3.642-0.159-6.506-1-8.998-3.658 0.217-3.836 1.373-7 0v7zm81.994 8c4.377 1.165 5.141-0.27 8.997 1 1.184-2.483 1.449-5.885 2-8.999h-8.998c-0.54 2.8-1.47 5.2-2 8zm-75.995 6c-0.271-3.395 0.774-8.106-1-9.999h-3c1.523 5.01-2.644 9.8 4 10zm2 2h-6v5.999c2.395 0.605 4.562 1.438 8 1-0.047-5.62 0.554-11.886-2-14.998-0.892 3.82 1.633 6.38 0 8zm71.995 1c3.129 0.205 7.339-0.674 8.999 1-0.658-3.657 2.163-3.836 1.998-6.999-3.997 0.332-5.55-1.783-9.997-1 0.49 3.16-1.81 3.53-1 7zm-4 13c4.588-0.259 4.83-1.064 8.999 0-0.228-4.893 3.047-6.285 3-10.999h-8.999c0.33 5.01-3.81 5.52-3 11zm-73.994 4h6v-8.999c-2.465 0.132-4.817 0.151-6-1v10zm109.98 3c1.246 4.442-2.195 21.856 1 26.997 7.83-4.49 5.56-11.897 4.999-19.998-0.585-8.415 10.722-24.036 7.309-28.963-4-1.06-11.48 23.63-13.31 21.96zm-38.99 2c2.88 0.12 6.546-0.546 8 1 0.524-3.142 1.754-5.578 2.999-7.999h-8.999c-1.11 1.89-1.28 4.72-2 7zm-102.99 6c-0.335-4.331 1.142-10.474-2-11.999-0.121 4.79-0.066 9.4 2 12zm11.999 7c2.186-1.999-1.679-7 2-8.999-0.022 5.688-0.628 11.96 4.999 11.999 0.633-3.367-1.288-9.288 1-10.999v12.999c6.687 2.144 9.542 2.742 16.998 3 0.334-3.999-1.285-9.951 3-9.999-2.567 4.479-3.103 12.278 4.999 10.999 0.534-3.466-1.485-9.484 2-9.999-0.342 2.122-3.657 11.098 2 9.999 2.821-1.178-1.119-9.117 3-8.999-0.272 3.395 0.773 8.106-1 9.999 7.414 2.415 3.443-6.556 5.999-8.999 3.147 0.853-1.971 9.97 4 7.999 2.711-0.956-0.942-8.275 3-7.999-0.12 2.88 0.546 6.545-1 7.999h5c2.672-0.994-1.325-8.658 3-7.999 0.708 3.708-1.708 4.291-1 7.999 4.529 0.529 2.369-5.631 5-6.999 0.604 2.061-1.614 6.946 2 5.999 4.43 0.097 1.151-7.513 5-7.999 0.219 3.22-1.77 4.231-1 7.999h5.998c0.099-3.567 0.468-6.866 2.999-7.999-0.604 2.395-1.437 4.562-0.999 7.999 5.111 0.779 1.579-7.086 5.999-6.999 0.165 3.164-2.656 3.342-2 6.999 6.641 1.642 2.077-7.922 6.999-7.999-0.986 2.347-1.754 4.912-2 7.999h5c0.2-3.799 0.885-7.114 2-9.999-38.582 6.13-67.729-4.667-102.99-11.999-0.65 1.89-1.021 10.607 2 11.999 0.627-3.039-1.28-8.612 1-9.999 2.49 2.176-1.323 10.655 3 10.999 2.22-3.454-0.712-4.381 0-9.999h2c-0.043 1.95-1.69 9.91 1.989 11zm89.991-4c4.905-0.094 9.292-0.708 8-6.999-5.97-0.96-9.51 0.5-8 7zm-5 0c2.454 0.585 4.856-6.584 0.999-5.999 0.72 3.05-1.02 3.64-1 6zm28.99-2c-0.056 3.277-2.843 3.822-2 7.999h4c0.288-3.044-0.159-6.825 2.999-6.999-0.152 3.18-2.267 4.398-1.999 7.999 6.722 1.389 2.549-8.116 4.999-10.999-3.76 1.71-4.23 1.52-8 2zm9 8c3.463-0.203 1.82-5.512 3-7.999h-3v8zm-16 0h3.998c0.012-2.657-0.377-5.711 1-6.999h-3.998c-0.01 2.65 0.38 5.71-1 7zm-5 1h4c0.01-2.657-0.378-5.711 1-7-4.72-0.72-4.38 3.61-5 7zm-7.99 5c3.526-1.472 1.058-8.941 5-9.999 0.725 3.058-1.726 2.941-1 5.999 3.408 0.076 2.96-3.705 3-6.999h-7c-0.05 3.01-2.69 8.56 0 11zm29.99 31.99c-11.228 1.196-17.158-11.229-8.999-17.998 9.016-0.815 12.134-7.255 11.999-16.998-19.112 0.526-41.034 7.267-63.992 5-1.651 0.015-0.56 2.773-2 3-0.096-1.572 0.134-3.467-2-3-17.799 2.026-48.108 2.23-58.992-8.999-6.215 1.215-7.732-2.267-12.999-2-6.813 22.92 13.435 32.478 13.999 47.994-3.042-8.289-7.587-15.076-12.999-20.997-0.965 6.7-4.886 10.445-6.999 15.998 0.394 3.606 1.294 6.705 2 9.999-4.907 16.139-10.597 57.558-7.999 83.989 1.894 19.251 18.012 29.047 14.999 42.993-1.309-4.689-2.37-9.629-6-11.997-0.08 4.587-2.889 6.442-2 11.997 14.769 14.882 43.437 5.149 56.993-4.998 5.915-19.111-1.875-49.461 10.998-68.991 1.428 0.389 1.687 1.2 3 0 10.764 12.901 22.795 29.863 24.996 47.993-5.78-17.216-13.163-32.83-24.996-43.995 0.25 16.889 7.422 23.451 13.999 35.997 4.546 8.674 4.824 17.265 6.998 24.996 4.919 17.484 26.178 24.814 45.994 21.998 1.701-3.979 4.75-2.063 8-3 6.854-6.102 5.212-17.121 5.999-26.997 2.171-27.27 1.093-60.672-2.999-83.99-3.139 13.194-9.062 23.604-16.999 31.996 11.745-16.209 22.578-40.799 10.999-63.991-5.431 0.841-7.979 6.138-12.999 9.999-9.281 7.142-20.798 12.704-25.997 21.996 7.94-17.39 30.1-20.56 38-37.99zm7-23.99c2.167-0.168 0.453 3.547 1 5 4.785 1.73 7.941-3.312 9.997-1-3.119 4.117-6.45 6.033-4.998 9.999-5.264-5.476-10.546 5.618-13.999 1 0.111-1.889 3.306-0.693 3-3-5.02-3.313-8.54-0.249-12.999 2 10.632 17.284 39.212 1.108 41.995-13.999-5.25-20.36-15.01-7.08-24 0zm-1 3h-5c-1.07 5.44 5.02 2.28 5 0zm-3 6.99c2.188 2.069 5.383-0.493 6.999-2-3.16-0.16-6.03-0.03-7 2zm-75.99 149.99c1.571-3.549-2.788-14.306-6.999-11.999 5.87 0.46 2.56 10.11 7 12zm-14 5.99c-1.904-0.429-2.512-2.154-5-2 0.537 4.836-0.849 3.804-3 2-1.084 2.562 3.037 4.767 0 6-0.315-1.352-1.424-1.909-1-4-14.783 7.408-37.52 8.638-47.995-4v-7.998c-17.96 6.281-5.508 36.967 8.999 37.994 0.441 2.892 2.108 4.559 5 5-0.182-2.181 0.818-3.181 3-3 0.814 5.675 1.245 1.466 2 0 2.715-0.715-0.716 4.716 2 4 6.862-3.181 25.31-0.133 25.997-9.998 1.966-0.3 1.983 1.349 3 2 1.455-2.878 6.29-2.377 7-6-3.753 0.529 0.285-5.631 1-6.999h3.999c0.157 1.176-0.172 2.838 1 3 2.86-1.179 7.782-5.499 5.999-7.999-2.967 1.032-2.534 5.465-5.999 5.999 1.955-2.295-1.927-6.449 1-8.999 2.306-0.306 1.111 2.888 3 3 1.067-0.934 0.311-3.688 3-3 0.224 0.775 0.028 1.972 1 2 0.252-9.346-3.985-9.125-4-18.998-1.89 0.224-2.206-1.127-4-0.999-0.32 7.08-6.86 10.26-6 13.01zm82.99 13c-5.598-2.615-12.437 1.33-19.996 0-5.171-4.778-12.82-4.987-17.999-8.999-6.093-4.721-6.15-12.009-11.997-16.997-0.799 3.545-3.554 9.941 0 11.997 0.238-1.085 1.646-2.4 1.998-1-2.562 2.55 0.224 4.853 2 6-1.002-0.004-1.189 0.811-2 1-2.061-0.271-0.238-4.429-2.998-4-3.604 8.163 6.397 10.592 3.998 15.999 1.307 2.645 5.294 1.055 5.999 1.999-0.089 1.576-2.55 0.783-1.999 3 3.688 0.979 4.795 4.536 6.999 6.998 7.39 0.491 10.441 1.357 12.999 5 8.862 0.748 17.63-1.255 23.996 0 0.287-3.256 3.804-3.893 5-1 1.983-3.683 6.232-5.101 9.999-6.998-0.003-2.732-6.157-4.419-3-7 3.981-0.648 0.768 5.898 5 5 0.056-0.61 0.148-1.184 1-1-0.004-1.003 0.81-1.189 1-2-2.183 0.181-3.183-0.819-3-2.999 2.038-2.009 1.96 0.441 3.998 0.999 1.298-9.463 4.015-19.253-3.998-25.996-1.31 11.03-8.75 15.92-17 20zm-97.985 65.99c8.441-6.379 15.004-20.643 10-31.996-1.035 1.376-3.965 5.927-5 3.999-0.592-3.975 6.997-4.936 4-7.999-4.141 3.858-6.75 9.247-11.999 11.999 2.232-9.44 17.193-11.462 12.999-23.998-2.355 4.525-4.534 3.512-10 4v4c0.827 3.271 3.503-4.941 5-1-3.305 3.027-3.924 8.741-9.999 8.999-3.996 4.347-8.346 13.635-13.998 12.997 3.488-3.662 13.335-11.122 10.998-13.997-3.559 0.467-9.445 12.525-12.998 12.997 2.283-5.715 7.652-8.344 9.998-13.997-5.589 3.742-9.151 9.513-13.998 13.997 1.534-6.463 6.592-9.405 9.998-13.997-3.058 0.726-2.94-1.725-5.999-1-0.299 1.966 1.35 1.983 2 3-6.308 8.355-13.326 16.004-21.998 21.996 4.025-8.979 17.411-13.911 18.998-21.996-4.541 2.458-6.187 7.812-10.999 9.999 1.398-5.27 6.529-6.804 9-10.999-4.599-1.541-5.058 6.196-8 3 0.268-3.116 7.446-4.487 5-6.999-9.459 7.863-18.99 14.36-13.999 34.995 3.202 0.797 5.045 2.954 8.999 3 2.305-2.722 5.822-9.474 8-9-0.228 4.47-6.812 7.813-5 10.999 5.358-5.693 8.967-14.845 15.998-15.999-2.382 6.617-6.841 11.157-9.999 16.999 4.621-2.045 5.696-7.636 9.999-9.999 1.918-2.414 0.26-8.405 4.999-7.999-2.593 7.071-6.856 12.475-10.998 17.998 7.711-3.62 9.748-12.916 15.998-17.998-0.73 7.612-10.746 11.236-8.999 17.998 5.391-4.283 9.696-14.956 13.999-16.999-0.391 5.157-9.858 11.18-6 14 3.708-7.958 9.354-13.979 13.999-20.999-0.672 8.68-9.714 14.28-10.005 20zm71.995-31.99c-0.596-2.071 1.235-6.569-1-6.999-2.991 3.008-6.842 5.154-10.999 6.999 1.924-4.429 1.672-4.729 1-9.999 2.051-1.949 6.604-1.396 6.999-5-2.394-0.604-4.561-1.438-7.999-1-0.108 8.236-2.668 19.312 0 26.996 7.708-4.13 16.292-2.85 20.998-10.997-6.399-1.374-7.033 8.26-11.999 4.999 0.904-1.762 3.681-1.652 4-3.999-5.803-0.137-6.19 5.143-10.999 5.999 1.42-4.25 4.54-6.79 10-7zm-82.993-12c2.611 0.39 5.486 0.513 6.999 2-0.546 1.453 1.169 5.167-1 5-5.414 1.228-11.492-4.63-13.998 0 5.855 1.791 9.766 1.111 14.998 1.999 1.753-2.246 0.479-7.521 2-9.999-4.239 1.3-7.921-3.05-8.999 1zm-15.998 4c4.33-2.267-0.525-4.733-5-4-0.519 3.849-5.2 8.753-3 11.999 1.906-1.213 8.034-7.341 6-5.999-7.276 7.334-3.974-4.219 3-4 0.003 1-0.809 1.19-1 2zm120.98 3c-3.963 2.449-10.53 0.236-14.997 0 0.269-3.604 0.25-6.917-4-6-2.871 1.978 0.346 6.241 0 8.999 6.781 0.551 15.838-1.175 20.996 1 0.06-4.392-0.4-8.264-1.999-10.999-2.25 2.16 0.83 3.41 0 7zm5-2c-0.609-0.058-1.184-0.15-1-1 0.097-2.571 3.904-1.43 4-4-2.408-0.409-2.174 1.825-5 1-0.79 2.27 1.12 6.69 2 4zm-18-1c2.483 1.516 6.068 1.93 9.998 2 0.148-2.48 0.187-4.854-2-5-0.48 3.18-9.01-1.68-8 3zm16 9c-3.461-1.538-9.115-0.884-13.997-1-4.979 9.024-21.142 12.181-20.998 22.996 2.707-2.626 3.866-6.799 8.999-6.999-1.232 2.766-10.412 7.133-6 8.999 1.963 0.253 6.292-10.995 11-7.999-3.8 3.2-8.175 5.824-10 10.999 2.358 0.309 1.86 3.472 5 3 6.354-1.979 7.425-9.241 13.999-11-3.354 4.98-8.065 8.601-11.999 13 8.466 0.121 9.677-12.305 15.997-11-2.512 5.154-9.113 6.218-9.997 12.999 14.812 5.59 16.843-14.983 25.996-14.999-4.755 4.579-9.172 9.493-12.999 14.999 7.154-1.854 10.086-13.231 14.999-13.999-1.778 5.903-10.537 10.111-10 14.999 4.388-5.612 8.674-11.324 13.999-15.999-1.216 6.796-10.403 10.912-9.999 15.999 5.459-4.873 10.421-10.244 11.999-18.998-2.276-3.412-3.874 4.562-5.999 1 0.643-2.95 6.45-4.048 3.999-7-6.52-6.554-9.391 1.791-14.999 4 0.135-3.864 4.056-3.942 5-6.998-5.148 0.518-6.861 4.471-9.999 6.998 3.459-6.539 8.475-11.521 15.999-13.997-0.826 2.505-3.504 3.163-5 4.999 3.712-0.778 6.868 4.101 8 0-1.333-2.452-3.02 1.802-4-1 1.783-1.34 3.093-5.787 1-7.999-6.533 4.726-14.076 11.067-21.997 16.997 5.997-9.904 15.759-11.972 20.997-20.996-5.92-0.26-6.51 4.82-9 8zm-36.99 17c1.859-3.473 5.949-4.717 7.999-7.998-5.25-0.56-10.91 3.71-8 8zm-50.995 8.99c0.516-2.866 5.234-6.697 3-8.999-0.24 3.15-6.495 5.45-3.005 9zm97.985 7c2.396-1.27 2.949-4.383 6.999-3.999 0.206-3.458 1.422-4.713-1-7-0.56 4.47-6.86 8.44-6 11zm-132.98 2c2.298-2.398 6.389-8.235 5.999-9.999-1.676 3.66-5.753 4.92-5.999 10zm-13.998-3c8.263 14.862 51.016 17.025 49.994-5-10.516 11.02-35.25 14.45-49.999 5zm140.98 6c-14.051 0.612-25.703-0.312-32.996-3 6.91 7 23.33 9.36 33 3z"
     fill-rule="evenodd"
     id="path493" /><path
     fill="#FF0000"
     clip-rule="evenodd"
     d="m37.062 60.539c2.497 0.691-1.856 2.667-1 5 4.463-0.203 4.084-5.249 6.999-6.999 2.544 1.123 4.877 2.456 7 4 3.32-2.346 6.505-4.827 11.999-5-1.049 9.006 0.479 22.402 11.998 21.997 1.182 5.514-3.466 5.199-5.999 7 0.169 3.212 5.763 6.168 3 8.999-0.228 2.747-4.875 1-8.999 2 0.147 2.186 2.52 2.146 5 2-6.156 20.761-20.196 26.125-39.995 28.997-8.353 1.211-16.84 3.405-19.997 10.999 1.059 9.94 13.021 8.977 13.998 18.998-4.05 0.556-13.217-4.509-14.998-9.999-2.895-8.921 3.018-21.794 1.999-34.996-0.473-6.133-4.23-13.858-3.999-16.998 1.345-18.305 24.274-24.52 32.994-35.993zm12.999 17.998c4.042-1.291 7.022-3.644 8.999-7-3.928 1.406-7.972 2.694-8.999 7zm6.999-7.999c0.3-1.966-1.35-1.983-2-3 2.47-1.166 3.688-2.614 1-4 1.329-1.004 3.721-0.945 4-3-3.755-2.516-5.935 3.65-9.999 4 2.715 4.311-1.8 3.139-2 6.999 3.078 0.745 1.921-2.744 5-2-0.243 3.089-4.976 1.689-4 5.999 4.314-0.018 3.685-4.98 7.999-4.998zm-16.998 10.998c-1.081-3.252 0.539-9.205-3-9.999-0.075 4.408 0.072 8.594 3 9.999zm11.998 1c3.687-1.313 6.676-3.323 8.999-6-3.433-1.919-7.438 2.857-8.999 6zm3 2c4.722 0.055 5.683-3.65 8-5.999-3.63 1.037-6.208 3.125-8 5.999zm6.999 2.999c4.664-0.002 5.378-3.954 7-6.999-3.221 1.446-5.554 3.778-7 6.999zm4-7.999c-2.875 0.509-7.646 4.286-5 7 0.944-3.056 4.866-3.134 5-7zm-9.999 17.998c-2.095-4.238-6.452-6.213-9.999-8.999 1.631 4.702 5.44 7.224 9.999 8.999z"
     fill-rule="evenodd"
     id="path495" /><path
     fill="#FAC8CB"
     clip-rule="evenodd"
     d="m149.05 76.537c-7.242 3.346-12.001 1.418-18.997 2 2.47-7.892 16.03-13.342 19-2zm-10-5.999c0.627 2.306 5.546 5.423 6 2-1.78-0.889-2.54-2.792-6-2z"
     fill-rule="evenodd"
     id="path497" /><path
     fill="#006B33"
     clip-rule="evenodd"
     d="m90.055 70.538c1.53 2.065 5.384 5.114 3 7.999-2.364-1.303-1.928-5.406-3-7.999z"
     fill-rule="evenodd"
     id="path499" /><path
     fill="#FFFFFF"
     clip-rule="evenodd"
     d="m105.05 81.536c6.156 9.687-10.92 9.349-14.999 14.998 0.842-5.175 12.389-8.27 14.999-14.998z"
     fill-rule="evenodd"
     id="path501" /><path
     clip-rule="evenodd"
     d="m142.05 104.53c0.653 0.941-0.104 5.044 1 7.999-3.78 0.66-1.88-7-1-8z"
     fill-rule="evenodd"
     id="path503" /><path
     clip-rule="evenodd"
     d="m107.05 116.53c1.694 3.728-3.932 8.709-7.999 9.999 0.868-5.13 7.569-4.43 7.999-10z"
     fill-rule="evenodd"
     id="path505" /><path
     fill="#006B33"
     clip-rule="evenodd"
     d="m194.04 128.53c-0.353 2.753-2.995 1.156-5 4-0.305 2.306 2.889 1.111 3 3 0.022 2.355-1.722 2.944-1 5.999h-5.999c5.88-2.74 1.47-15.05 9-13z"
     fill-rule="evenodd"
     id="path507" /><path
     fill="#FF0000"
     clip-rule="evenodd"
     d="m227.04 254.51c-4.384-2.615 0.354-14.352-6-14.998 3.355-1.311 5.383-3.95 7-6.999-3.597-3.205-3.904 5.384-8 5-6.107-4.282 1.963-5.737 2-11.999-4.336 1.997-4.959 7.705-10.999 7.999 0.899-2.788 9.187-6.797 10.999-11.999-7.276-5.255-10.68 1.836-12.999 6.999-0.258-4.408-1.598-7.734-0.998-12.999 3.188-3.477 7.146-6.185 9.997-9.998 15.137-4.531 38.408-6.252 38.995-21.998-3.899 14.407-29.137 15.3-42.994 22.998 0.266-20.088 38.479-16.153 36.995-37.996-4.488 0.178-7.443 1.888-8.999 5 4.077 0.743 3.444-3.223 7.999-2-4.503 13.162-21.562 13.767-30.996 21.997-11.734-15.258-0.27-39.383 7-50.994-0.354-1.313-1.76-1.572-2-2.999-5.045 11.802-17.447 32.814-8.999 51.994h-7.998c0.283-11.95-0.764-22.568-4-30.996 2.053 31.174 2.294 61.384-29.996 63.992 6.692-33.968 21.729-59.593 27.996-93.988 8.896 0.68 11.709 5.872 23.997 5 3.146 2.852 4.33 7.668 6 11.999 6.183 11.16 29.899 16.97 32.995 33.995 3.308 18.189-1.838 51.562-15.999 55.994-0.263 4.07-1.88 6.785-2.999 9.998-8.91-2.95-13.33 2.93-18 7.02zm8-13.99c-3.232 0.767-5.232 2.767-5.999 6 3.833-0.182 0.362 0.818 1 2.999h2.999c0.33-3.34 2.89-4.44 2-9zm-10-1c3.657-0.342 4.575-3.423 6-5.999-3.24 0.76-5.24 2.76-6 6zm-15-103.99c-2.979 0.02-6.092-0.094-5.998 3 11.101-0.513 7.288 18.355 6.998 25.997 6.77-5.89 1.09-22.3-1-29zm11 99.99c2.554-2.112 2.787-6.545 7-6.999 3.229 1.438 3.532 5.8 7.999 6-1.15-11.92-19.66-6.48-15 1zm8 8c0.995-3.336 5.203-3.462 5.999-6.999-3.95-0.02-9.92 5.41-6 7z"
     fill-rule="evenodd"
     id="path509" /><path
     clip-rule="evenodd"
     d="m132.05 138.53c4.414 2.459-7.079 5.312-7 9.999-5.41-4 6.43-5.59 7-10z"
     fill-rule="evenodd"
     id="path511" /><path
     clip-rule="evenodd"
     d="m139.05 141.53c4.594 1.407 6.458 5.541 7.999 10-2.71-3.29-5.8-6.2-8-10z"
     fill-rule="evenodd"
     id="path513" /><path
     fill="#FFFFFF"
     clip-rule="evenodd"
     d="m142.05 164.53c-0.598 2.597 0.402 3.597 3 3 0.169 8.168-2.474 13.523-10.998 12.998-6.88-4.89-4.02-18.77 8-16zm-3 1.99c-0.59 4.435-7.433 7.861-4.998 11.999 1.571-3.656 1.493 2.323 4 1 0.979-3.687 4.377-4.954 5.998-7.999-4.25-2.78-4.21-0.12-5-5z"
     fill-rule="evenodd"
     id="path515" /><path
     fill="#FFFFFF"
     clip-rule="evenodd"
     d="m140.05 200.52c0.881 3.213-3.296 1.37-2.998 4-3.066-0.981 1.147-2.667 1-4-3.862 0.804-4.445 4.887-7 6.999-7.79-3.86 5.76-14.02 9-7zm-10 4c2.891-0.441 4.558-2.108 5-4.999-2.89 0.44-4.56 2.11-5 5z"
     fill-rule="evenodd"
     id="path517" /><path
     fill="#FFFFFF"
     clip-rule="evenodd"
     d="m66.059 220.52h-2c-0.712 5.618 2.22 6.545 0 9.999-4.323-0.344-0.51-8.823-3-10.999-2.28 1.387-0.373 6.96-1 9.999-3.021-1.392-2.65-10.109-2-11.999 35.257 7.333 64.405 18.129 102.99 11.999-1.115 2.885-1.8 6.2-2 9.999h-5c0.246-3.087 1.014-5.652 2-7.999-4.922 0.077-0.358 9.641-6.999 7.999-0.656-3.657 2.165-3.835 2-6.999-4.42-0.087-0.888 7.778-5.999 6.999-0.438-3.437 0.395-5.604 0.999-7.999-2.531 1.133-2.9 4.432-2.999 7.999h-5.998c-0.77-3.768 1.219-4.779 1-7.999-3.849 0.486-0.57 8.096-5 7.999-3.613 0.947-1.395-3.938-2-5.999-2.631 1.368-0.471 7.528-5 6.999-0.708-3.708 1.708-4.291 1-7.999-4.325-0.659-0.327 7.005-3 7.999h-5c1.546-1.454 0.88-5.119 1-7.999-3.942-0.276-0.289 7.043-3 7.999-5.971 1.971-0.852-7.146-4-7.999-2.556 2.443 1.416 11.414-5.999 8.999 1.773-1.893 0.728-6.604 1-9.999-4.119-0.118-0.178 7.821-3 8.999-5.657 1.1-2.342-7.877-2-9.999-3.485 0.515-1.466 6.533-2 9.999-8.102 1.28-7.566-6.519-4.999-10.999-4.285 0.048-2.666 6-3 9.999-7.457-0.257-10.311-0.855-16.998-3v-12.999c-2.288 1.711-0.367 7.632-1 10.999-5.627-0.038-5.021-6.311-4.999-11.999-3.679 1.999 0.186 7-2 8.999-3.674-1.09-2.027-9.05-1.995-11zm16.997 14c-1.772-3.362 2.199-8.007-2-9.999 1.882 2.27-2.395 8.53 2 10zm3 3c3.625-1.489 3.676-9.712 1-11.999-0.368 3.96 0.916 9.58-1 12z"
     fill-rule="evenodd"
     id="path519" /><path
     clip-rule="evenodd"
     d="m110.05 312.51c-7.772 8.227-17.24 14.756-29.996 17.999 11.135-4.21 22.586-13.41 29.996-18z"
     fill-rule="evenodd"
     id="path521" /><path
     fill="#FFFFFF"
     clip-rule="evenodd"
     d="m112.05 395.5c4.211-2.307 8.57 8.45 6.999 11.999-4.44-1.89-1.13-11.54-7-12z"
     fill-rule="evenodd"
     id="path523" /><path
     fill="#FFFFFF"
     clip-rule="evenodd"
     d="m111.05 400.5c1.794-0.128 2.109 1.223 4 0.999 0.015 9.873 4.252 9.652 4 18.998-0.972-0.028-0.776-1.225-1-2-2.688-0.688-1.933 2.066-3 3-1.889-0.112-0.693-3.306-3-3-2.927 2.55 0.955 6.704-1 8.999 3.465-0.534 3.032-4.967 5.999-5.999 1.783 2.5-3.139 6.82-5.999 7.999-1.172-0.162-0.843-1.824-1-3h-3.999c-0.715 1.368-4.753 7.528-1 6.999-0.71 3.623-5.544 3.122-7 6-1.017-0.651-1.034-2.3-3-2-0.687 9.865-19.135 6.817-25.997 9.998-2.716 0.716 0.715-4.715-2-4-0.754 1.466-1.186 5.675-2 0-2.182-0.181-3.182 0.819-3 3-2.892-0.441-4.558-2.108-5-5-14.507-1.027-26.959-31.713-8.999-37.994v7.998c10.475 12.638 33.212 11.408 47.995 4-0.424 2.091 0.685 2.648 1 4 3.037-1.233-1.084-3.438 0-6 2.151 1.804 3.537 2.836 3-2 2.487-0.154 3.095 1.571 5 2-0.86-2.77 5.68-5.95 6-13.01zm-11.995 30.99c0.296-2.037 2.002-2.665 3-4-2.274-3.4-6.146 2.3-3.005 4zm-16.999 7c-1.104-0.903-0.692-2.237 0-4-1.277-0.056-1.384-1.281-3-1 0.737 1.36 0.795 8.41 3 5zm-4.999 4c-1.352-2.748-12.019-2.508-5.999 1 0.276-5.97 5.091 2.6 5.999-1z"
     fill-rule="evenodd"
     id="path525" /><path
     fill="#FFFFFF"
     clip-rule="evenodd"
     d="m205.04 406.5c8.013 6.743 5.296 16.533 3.998 25.996-2.038-0.558-1.96-3.008-3.998-0.999-0.183 2.18 0.817 3.18 3 2.999-0.19 0.811-1.004 0.997-1 2-0.852-0.184-0.944 0.39-1 1-4.232 0.898-1.019-5.648-5-5-3.157 2.581 2.997 4.268 3 7-3.767 1.897-8.016 3.315-9.999 6.998-1.196-2.893-4.713-2.256-5 1-6.366-1.255-15.134 0.748-23.996 0-2.558-3.643-5.609-4.509-12.999-5-2.204-2.462-3.312-6.019-6.999-6.998-0.551-2.217 1.91-1.424 1.999-3-0.705-0.944-4.692 0.646-5.999-1.999 2.399-5.407-7.602-7.836-3.998-15.999 2.76-0.429 0.938 3.729 2.998 4 0.811-0.189 0.998-1.004 2-1-1.776-1.147-4.562-3.45-2-6-0.352-1.4-1.76-0.085-1.998 1-3.554-2.056-0.799-8.452 0-11.997 5.847 4.988 5.904 12.276 11.997 16.997 5.179 4.012 12.828 4.221 17.999 8.999 7.56 1.33 14.398-2.615 19.996 0 8.25-4.09 15.69-8.98 17-20zm-6 31.99c-2.234 1.431-5.27 2.064-6 4.998 3.78 0.11 5.38-1.95 6-5zm-53.99-12c-0.881-4.35 0.865-5.534-2-6.999-2.13 2.25-0.71 6.59 2 7zm8 3c-0.672-4.451-2.859-5.166-1-9.999-3.363-0.363-1.667 4.333-3 5.999 4.22-1.55-0.22 5.55 4 4zm1 11c3.815-1.371 5.18 2.25 9 1-2.078-0.559-2.119-1.559-1-2.998-2.319 0.318-3.838-0.161-5-1 0.3 2.31-2.89 1.11-3 3zm15.99 2c4.642 1.208 4.802-3.975 1-3.998 0.08 1.74-0.22 3.11-1 4z"
     fill-rule="evenodd"
     id="path527" /><path
     clip-rule="evenodd"
     d="m149.05 425.49c1.333-1.666-0.363-6.362 3-5.999-1.859 4.833 0.328 5.548 1 9.999-4.22 1.55 0.22-5.55-4-4z"
     fill-rule="evenodd"
     id="path529" /><path
     clip-rule="evenodd"
     d="m71.058 443.49c-6.02-3.508 4.647-3.748 5.999-1-0.908 3.6-5.723-4.97-5.999 1z"
     fill-rule="evenodd"
     id="path531" /><path
     fill="#666666"
     clip-rule="evenodd"
     d="m100.06 472.49c-4.646 7.021-10.292 13.041-13.999 20.999-3.859-2.82 5.608-8.843 6-14-4.302 2.043-8.607 12.716-13.999 16.999-1.747-6.762 8.269-10.386 8.999-17.998-6.25 5.082-8.287 14.378-15.998 17.998 4.142-5.523 8.405-10.927 10.998-17.998-4.739-0.406-3.081 5.585-4.999 7.999-4.303 2.363-5.378 7.954-9.999 9.999 3.157-5.842 7.616-10.382 9.999-16.999-7.031 1.154-10.64 10.306-15.998 15.999-1.812-3.186 4.772-6.529 5-10.999-2.177-0.474-5.695 6.278-8 9-3.954-0.046-5.797-2.203-8.999-3-4.992-20.635 4.539-27.132 13.999-34.995 2.447 2.512-4.732 3.883-5 6.999 2.941 3.196 3.4-4.541 8-3-2.471 4.195-7.601 5.729-9 10.999 4.812-2.187 6.458-7.541 10.999-9.999-1.587 8.085-14.973 13.018-18.998 21.996 8.671-5.992 15.69-13.641 21.998-21.996-0.649-1.017-2.299-1.034-2-3 3.058-0.725 2.941 1.726 5.999 1-3.406 4.592-8.464 7.534-9.998 13.997 4.846-4.484 8.408-10.255 13.998-13.997-2.346 5.653-7.715 8.282-9.998 13.997 3.552-0.472 9.439-12.53 12.998-12.997 2.337 2.875-7.51 10.335-10.998 13.997 5.652 0.638 10.002-8.65 13.998-12.997 6.075-0.258 6.694-5.972 9.999-8.999-1.497-3.941-4.173 4.271-5 1v-4c5.465-0.488 7.645 0.525 10-4 4.194 12.536-10.767 14.558-12.999 23.998 5.249-2.752 7.858-8.141 11.999-11.999 2.997 3.063-4.592 4.024-4 7.999 1.034 1.928 3.964-2.623 5-3.999 5.004 11.354-1.558 25.617-10 31.996 0.286-5.74 9.328-11.34 10-20.01zm-13.004-6c0.232-6.783 10.516-8.794 9-13.998-2.13 4.89-11.53 7.78-9 14zm-7.999 9c0.099-3.938 7.464-5.816 5-8.998-1.205 2.98-9.421 6.7-5 9zm-29.996 2c2.5-1.866 7.357-6.596 5.999-8.998-2.026 2.97-6.177 3.82-5.999 9zm44.994-1c-0.02-1.496 3.714-4.089 1-5-0.871 1.84-5.379 3.5-1 5zm-42.995 11.99c4.995-1.024 8.565-8.738 7.999-11.999-2.833 3.84-5.783 7.56-7.999 12zm4 2c3.705-0.991 7.359-7.267 6-10-1.287 4.05-5.159 5.51-6 10z"
     fill-rule="evenodd"
     id="path533" /><path
     fill="#666666"
     clip-rule="evenodd"
     d="m152.05 467.49c4.809-0.856 5.196-6.136 10.999-5.999-0.319 2.347-3.096 2.237-4 3.999 4.966 3.261 5.6-6.373 11.999-4.999-4.706 8.147-13.29 6.867-20.998 10.997-2.668-7.684-0.108-18.76 0-26.996 3.438-0.438 5.605 0.396 7.999 1-0.396 3.604-4.948 3.051-6.999 5 0.672 5.271 0.924 5.57-1 9.999 4.157-1.845 8.008-3.991 10.999-6.999 2.235 0.43 0.404 4.928 1 6.999-5.46 0.21-8.58 2.75-10 7zm9-11c-3.843 1.514-11.367 4.597-8.999 8.999 1.66-4.33 7.04-4.96 9-9z"
     fill-rule="evenodd"
     id="path535" /><path
     fill="#666666"
     clip-rule="evenodd"
     d="m64.059 450.49c-6.974-0.219-10.276 11.334-3 4 2.034-1.342-4.093 4.786-6 5.999-2.2-3.246 2.481-8.15 3-11.999 4.475-0.733 9.33 1.733 5 4 0.191-0.81 1.003-1 1-2z"
     fill-rule="evenodd"
     id="path537" /><path
     fill="#666666"
     clip-rule="evenodd"
     d="m187.04 449.49c2.826 0.825 2.592-1.409 5-1-0.096 2.57-3.903 1.429-4 4-0.184 0.85 0.391 0.942 1 1-0.88 2.69-2.79-1.73-2-4z"
     fill-rule="evenodd"
     id="path539" /><path
     fill="#666666"
     clip-rule="evenodd"
     d="m196.04 453.49c-5.238 9.024-15 11.092-20.997 20.996 7.921-5.93 15.464-12.271 21.997-16.997 2.093 2.212 0.783 6.659-1 7.999 0.98 2.802 2.667-1.452 4 1-1.132 4.101-4.288-0.778-8 0 1.496-1.836 4.174-2.494 5-4.999-7.524 2.476-12.54 7.458-15.999 13.997 3.138-2.527 4.851-6.48 9.999-6.998-0.944 3.056-4.865 3.134-5 6.998 5.608-2.209 8.479-10.554 14.999-4 2.451 2.952-3.356 4.05-3.999 7 2.125 3.562 3.723-4.412 5.999-1-1.578 8.754-6.54 14.125-11.999 18.998-0.404-5.087 8.783-9.203 9.999-15.999-5.325 4.675-9.611 10.387-13.999 15.999-0.537-4.888 8.222-9.096 10-14.999-4.913 0.768-7.845 12.145-14.999 13.999 3.827-5.506 8.244-10.42 12.999-14.999-9.153 0.016-11.184 20.589-25.996 14.999 0.884-6.781 7.485-7.845 9.997-12.999-6.32-1.305-7.531 11.121-15.997 11 3.934-4.399 8.646-8.02 11.999-13-6.574 1.759-7.646 9.021-13.999 11-3.14 0.472-2.642-2.691-5-3 1.825-5.175 6.2-7.799 10-10.999-4.708-2.996-9.037 8.252-11 7.999-4.412-1.866 4.768-6.233 6-8.999-5.133 0.2-6.292 4.373-8.999 6.999-0.144-10.815 16.02-13.972 20.998-22.996 4.882 0.116 10.536-0.538 13.997 1 2.49-3.18 3.08-8.26 9-8zm-1 23c-0.788-4.121 4.787-1.879 4-5.998-2.65 0.62-8.58 4.23-4 6zm-9 3.99c-7.268 2.063-10.503 8.162-14.997 13 6.64-2.69 9.39-9.27 15-13zm-11 15c6.307-4.023 10.566-10.098 14.997-15.999-6.88 3.45-10.44 10.23-15 16zm-4-20.99c1.402-6.596 9.152-6.844 11.998-11.997-5.78 1.56-13.47 6.5-12 12zm7-12c-7.048 2.283-11.977 6.687-15.997 11.997 3.4-1.95 11.82-7.51 16-12zm-15.99 26.99c1.92-4.413 7.531-5.134 7.999-10.999-3.82 1.76-12.02 7.87-8 11z"
     fill-rule="evenodd"
     id="path541" /><path
     fill="#666666"
     clip-rule="evenodd"
     d="m203.04 483.48c2.422 2.287 1.206 3.542 1 7-4.05-0.384-4.603 2.729-6.999 3.999-0.86-2.56 5.44-6.53 6-11z"
     fill-rule="evenodd"
     id="path543" /><path
     fill="#8C8C8C"
     clip-rule="evenodd"
     d="m70.058 486.48c0.39 1.764-3.701 7.601-5.999 9.999 0.246-5.08 4.323-6.34 5.999-10z"
     fill-rule="evenodd"
     id="path545" /><path
     clip-rule="evenodd"
     d="m49.061 75.537c-0.977-4.31 3.757-2.91 4-5.999-3.078-0.745-1.922 2.745-5 2 0.2-3.86 4.715-2.688 2-6.999 4.064-0.35 6.243-6.516 9.999-4-0.279 2.054-2.67 1.996-4 3 2.688 1.386 1.47 2.833-1 4 0.65 1.017 2.3 1.034 2 3-4.314 0.017-3.685 4.979-7.999 4.998z"
     fill-rule="evenodd"
     id="path547" /><path
     clip-rule="evenodd"
     d="m165.05 73.537c-3.617-2.094-5.382-2.094-9 0-3.108-1.224-5-3.665-6.999-6 6.23-3.162 17.83 1.094 16 6z"
     fill-rule="evenodd"
     id="path549" /><path
     clip-rule="evenodd"
     d="m144.05 171.52c-1.621 3.045-5.02 4.312-5.998 7.999-2.507 1.323-2.429-4.656-4-1-2.435-4.138 4.408-7.563 4.998-11.999 0.79 4.88 0.75 2.22 5 5z"
     fill-rule="evenodd"
     id="path551" /><path
     fill="#FF0000"
     clip-rule="evenodd"
     d="m154.05 309.51c5.199-9.292 16.716-14.854 25.997-21.996 5.02-3.861 7.568-9.158 12.999-9.999 11.579 23.192 0.746 47.782-10.999 63.991 7.938-8.393 13.86-18.802 16.999-31.996 4.092 23.318 5.17 56.721 2.999 83.99-0.787 9.876 0.854 20.896-5.999 26.997-3.25 0.937-6.299-0.979-8 3-19.816 2.816-41.075-4.514-45.994-21.998-2.174-7.731-2.452-16.322-6.998-24.996-6.577-12.546-13.749-19.108-13.999-35.997 11.833 11.165 19.216 26.779 24.996 43.995-2.201-18.13-14.232-35.092-24.996-47.993-1.313 1.2-1.572 0.389-3 0-12.873 19.53-5.083 49.88-10.998 68.991-13.556 10.147-42.225 19.88-56.993 4.998-0.89-5.555 1.92-7.41 2-11.997 3.63 2.368 4.691 7.308 6 11.997 3.014-13.946-13.104-23.742-14.999-42.993-2.598-26.432 3.092-67.851 7.999-83.989-0.705-3.294-1.606-6.393-2-9.999 2.113-5.553 6.034-9.298 6.999-15.998 5.412 5.921 9.957 12.708 12.999 20.997-0.564-15.516-20.812-25.074-13.999-47.994 5.267-0.268 6.784 3.215 12.999 2 10.884 11.229 41.193 11.025 58.992 8.999 2.134-0.467 1.904 1.428 2 3 1.44-0.226 0.349-2.984 2-3 22.958 2.267 44.879-4.473 63.992-5 0.135 9.743-2.983 16.183-11.999 16.998-8.159 6.768-2.229 19.194 8.999 17.998-7.91 17.43-30.07 20.6-38 38zm-73.993 20.99c12.756-3.243 22.224-9.772 29.996-17.999-7.41 4.6-18.861 13.8-29.993 18z"
     fill-rule="evenodd"
     id="path553" /><metadata
     id="metadata555"><rdf:RDF><cc:Work><dc:format>image/svg+xml</dc:format><dc:type
           rdf:resource="http://purl.org/dc/dcmitype/StillImage" /><cc:license
           rdf:resource="http://creativecommons.org/publicdomain/zero/1.0/" /><dc:publisher><cc:Agent
             rdf:about="http://openclipart.org/"><dc:title /></cc:Agent></dc:publisher><dc:title></dc:title><dc:date /><dc:description /><dc:source /><dc:creator><cc:Agent><dc:title /></cc:Agent></dc:creator><dc:subject><rdf:Bag /></dc:subject></cc:Work><cc:License
         rdf:about="http://creativecommons.org/publicdomain/zero/1.0/"><cc:permits
           rdf:resource="http://creativecommons.org/ns#Reproduction" /><cc:permits
           rdf:resource="http://creativecommons.org/ns#Distribution" /><cc:permits
           rdf:resource="http://creativecommons.org/ns#DerivativeWorks" /></cc:License></rdf:RDF></metadata></svg>