<?xml version="1.0" encoding="UTF-8" standalone="no"?>
<svg
   xmlns:dc="http://purl.org/dc/elements/1.1/"
   xmlns:cc="http://creativecommons.org/ns#"
   xmlns:rdf="http://www.w3.org/1999/02/22-rdf-syntax-ns#"
   xmlns:svg="http://www.w3.org/2000/svg"
   xmlns="http://www.w3.org/2000/svg"
   version="1.1"
   id="svg2"
   viewBox="0 0 256 256"
   height="256"
   width="256">
  <defs
     id="defs4">
    <filter
       style="color-interpolation-filters:sRGB"
       id="filter6611"
       height="1.3113"
       width="1.3662"
       y="-0.15565"
       x="-0.18311">
      <feGaussianBlur
         id="feGaussianBlur6613"
         stdDeviation="3.6029111" />
    </filter>
    <radialGradient
       id="radialGradient3150"
       gradientUnits="userSpaceOnUse"
       cy="117"
       cx="612.52002"
       gradientTransform="matrix(-0.67828,-1.6411,1.962,-0.8186,828.32,1315.7)"
       r="117.98">
      <stop
         id="stop3781"
         style="stop-color:#0046e8"
         offset="0" />
      <stop
         id="stop3783"
         style="stop-color:#bee7ff"
         offset="1" />
    </radialGradient>
    <linearGradient
       id="linearGradient3154"
       y2="118.83"
       gradientUnits="userSpaceOnUse"
       x2="567.46997"
       y1="247"
       x1="586.13">
      <stop
         id="stop20975"
         style="stop-color:#000000;stop-opacity:.80392"
         offset="0" />
      <stop
         id="stop20973"
         style="stop-color:#646464;stop-opacity:0"
         offset="1" />
    </linearGradient>
    <radialGradient
       id="radialGradient3156"
       gradientUnits="userSpaceOnUse"
       cy="47.956001"
       cx="654.58002"
       gradientTransform="matrix(-0.43484,1.0632,-1.1038,-0.46596,876.34,-680.65)"
       r="117.98">
      <stop
         id="stop13197"
         style="stop-color:#e2f2ff"
         offset="0" />
      <stop
         id="stop13199"
         style="stop-color:#ffffff;stop-opacity:0"
         offset="1" />
    </radialGradient>
    <radialGradient
       id="radialGradient3158"
       gradientUnits="userSpaceOnUse"
       cy="352"
       cx="348"
       r="322.95001">
      <stop
         id="stop7984"
         style="stop-color:black"
         offset="0" />
      <stop
         id="stop7990"
         style="stop-color:black"
         offset="0.7" />
      <stop
         id="stop7986"
         style="stop-color:#0093ff;stop-opacity:0"
         offset="1" />
    </radialGradient>
    <radialGradient
       id="radialGradient3195"
       gradientUnits="userSpaceOnUse"
       cy="65.547997"
       cx="551.77002"
       gradientTransform="matrix(-0.089524,-3.5256,-2.5006,0.063543,677.268,2520.09)"
       r="104.76">
      <stop
         id="stop13174"
         style="stop-color:#d7fd7f"
         offset="0" />
      <stop
         id="stop13178"
         style="stop-color:#5c9524"
         offset=".41667" />
      <stop
         id="stop13176"
         style="stop-color:#281306"
         offset="1" />
    </radialGradient>
    <filter
       id="filter5128"
       style="color-interpolation-filters:sRGB">
      <feGaussianBlur
         id="feGaussianBlur5130"
         result="result10"
         stdDeviation="3" />
      <feBlend
         id="feBlend5132"
         in="result10"
         mode="multiply"
         result="result5"
         in2="SourceGraphic" />
      <feComposite
         id="feComposite5134"
         operator="over"
         result="fbSourceGraphic"
         in="result5"
         in2="SourceGraphic" />
      <feGaussianBlur
         id="feGaussianBlur5136"
         stdDeviation="5"
         result="result9" />
      <feSpecularLighting
         id="feSpecularLighting5138"
         specularExponent="45"
         specularConstant="2.20000005"
         surfaceScale="1"
         lighting-color="#ffffff"
         result="result1"
         in="result9">
        <fePointLight
           id="fePointLight5140"
           z="20000"
           y="-10000"
           x="-5000" />
      </feSpecularLighting>
      <feComposite
         id="feComposite5142"
         operator="in"
         result="result2"
         in="result1"
         in2="fbSourceGraphic" />
      <feComposite
         k4="0"
         k1="0"
         id="feComposite5144"
         in2="fbSourceGraphic"
         k3="0.8"
         k2="2"
         operator="arithmetic"
         result="result4"
         in="result2" />
      <feBlend
         id="feBlend5146"
         mode="multiply"
         in2="result4"
         in="result4" />
    </filter>
  </defs>
  <metadata
     id="metadata7">
    <rdf:RDF>
      <cc:Work
         rdf:about="">
        <dc:format>image/svg+xml</dc:format>
        <dc:type
           rdf:resource="http://purl.org/dc/dcmitype/StillImage" />
        <dc:title></dc:title>
      </cc:Work>
    </rdf:RDF>
  </metadata>
  <g
     transform="translate(0,-796.36219)"
     id="layer1">
    <g
       id="layer1-4"
       transform="translate(-121.38489,84.830771)">
      <g
         transform="matrix(0.39429794,0,0,0.39429794,60.253562,683.25361)"
         id="g5406">
        <ellipse
           transform="matrix(1.5498,0.22648,-0.22556,1.5307,-374.53,78.059)"
           style="fill:url(#radialGradient3150);stroke:#7d7d7d;stroke-width:0.1"
           id="path7332"
           cx="568.75159"
           cy="127.61327"
           rx="117.92101"
           ry="119.90704" />
        <path
           id="path5334"
           style="fill:url(#radialGradient3195);fill-rule:evenodd;stroke:#000000;stroke-width:1.57969999"
           d="m 331.748,519.24 5.3008,-0.22653 4.111,-2.0556 2.0555,-0.84643 1.2091,-3.7484 0.96729,-2.7811 2.5391,3.6275 4.3528,3.8694 0,4.1112 c 0,0 3.1437,0.48367 3.2646,-0.12085 0.12084,-0.60458 1.6928,-4.9576 2.2973,-5.6831 0.60457,-0.72552 3.2646,-2.902 3.2646,-2.902 l 3.6273,2.5393 1.33,4.1112 -3.8692,2.902 -1.6928,2.1765 4.9574,-3.0229 4.2319,-3.2648 c 0,0 0.84637,1.5719 0.48364,2.0556 -0.36273,0.48367 -2.5391,3.2648 -2.5391,3.2648 l 1.6928,2.2974 3.7483,1.451 5.441,5.0785 0.60456,5.5622 5.0783,4.353 4.2319,2.2974 3.9901,5.5622 c 0,0 -0.12085,-3.5066 -1.0882,-4.2321 -0.96729,-0.72551 -5.9246,-6.2877 -5.9246,-6.2877 l -0.24182,-5.3204 7.1338,3.9903 c 0,0 8.8265,4.7158 9.552,4.7158 0.72546,0 7.9801,4.8367 7.9801,4.8367 l 8.5847,6.2877 5.1992,3.7484 c 0,0 4.8364,2.1765 5.8038,1.8138 0.96727,-0.36275 5.3201,-0.36275 5.3201,-0.96734 0,-0.60458 -2.1764,-3.8694 -2.1764,-3.8694 0,0 -5.6828,-3.7484 -7.2547,-4.7158 -1.5718,-0.96734 -6.6501,-5.5622 -6.6501,-5.5622 l -7.0128,-6.0459 -9.0684,-1.8138 -3.3855,-2.2974 c 0,0 -5.0783,-4.1112 -5.5619,-4.7158 -0.48365,-0.60458 -3.2646,-5.5622 -3.2646,-5.5622 0,0 -2.781,-3.0229 -3.0228,-3.6275 -0.24183,-0.6046 0.60455,-4.2321 0.60455,-4.2321 l 5.5619,1.0882 10.036,4.5949 7.2547,4.7158 7.8592,-2.7811 6.4083,-0.48368 3.7482,-0.48367 7.0129,9.6734 9.4311,6.5296 8.9474,4.4739 1.5718,5.3204 -1.5718,6.8923 -3.5064,6.1668 0.72548,8.5851 -1.33,7.0132 6.4083,3.2648 7.6174,2.5393 9.4311,0.24183 10.882,-0.48367 8.5847,3.5066 8.5847,-2.2974 c 0,0 0.84638,-4.5949 3.0228,-5.0785 2.1764,-0.48367 8.7056,-0.36274 9.3102,-1.0882 0.60457,-0.7255 5.9246,-6.8923 5.9246,-6.8923 l 6.6501,-5.804 4.8364,-3.1438 -5.9246,-1.0883 0.72546,-4.353 c 0,0 -2.66,-2.5393 -2.66,-3.1438 0,-0.60458 -4.9574,1.5719 -4.9574,1.5719 l -9.552,-0.60459 -9.0684,-0.36275 0.72547,-4.1112 c 0,0 5.3201,0.12085 6.1665,0.24183 0.84637,0.12085 10.157,0.24184 10.157,0.24184 0,0 -0.60456,-5.4413 -0.48364,-6.4086 0.12084,-0.96734 4.4737,-6.5296 4.4737,-6.5296 l -4.9574,-1.8138 -5.5619,-2.902 c 0,0 0.12085,-2.4184 0.36274,-2.902 0.24182,-0.48367 1.8137,-4.2321 1.8137,-4.2321 l -9.552,-1.451 -2.9019,5.3204 2.781,1.6928 1.4509,7.1341 -3.5064,5.0785 -4.9574,-2.0556 1.9346,-0.96734 0.12085,-3.1438 -2.5391,-4.353 -0.12084,-3.5066 0,-4.1112 0.48365,-3.7484 4.3528,-3.0229 0.72547,-3.1438 -4.2319,-1.8138 -5.8038,0 -8.8265,3.1438 -9.1893,3.8694 -10.157,-4.9576 -2.2973,-4.353 -6.1665,-7.255 -7.0128,-6.1668 -5.3201,-3.8694 -1.8137,-3.1439 0.72547,-3.7484 -1.33,-3.9903 2.5391,-0.7255 3.5064,3.6275 2.4182,1.6928 -0.36274,-4.9576 1.5718,-6.6504 3.6273,-0.60458 3.8692,3.1438 -1.6928,4.9576 3.9901,1.9347 -0.72546,4.1112 -0.12084,3.9903 4.3528,3.5066 4.8364,5.3204 1.9346,-1.451 -4.3528,-5.3204 -1.5718,-4.1112 c 0,0 2.1764,-4.9576 2.6601,-5.1994 0.48364,-0.24184 3.7482,-0.48367 3.7482,-0.48367 l -1.0882,-3.1439 1.9346,-4.8367 -3.5064,-0.7255 -2.9019,2.2974 -2.66,-3.7484 -0.24182,-3.9903 -6.4083,-1.3301 -10.64,0 c 0,0 -2.0555,4.9576 -2.9019,4.1112 -0.84639,-0.84642 -7.4965,-5.1994 -7.4965,-5.1994 l -8.101,-5.0785 -6.2874,-6.4086 c 0,0 -5.8038,-1.3301 -5.8038,-2.0556 0,-0.7255 -0.36273,-8.5852 -0.36273,-8.5852 l -2.2973,-4.5948 -3.3855,-2.7811 -5.1992,2.5393 -5.441,0.72552 -1.6928,-3.3857 -5.3201,-9.3106 -0.72546,-5.4413 4.2319,-5.5622 4.8364,-3.3857 6.2874,0.12085 2.9019,7.9806 5.9246,7.8596 5.8037,3.5066 2.1764,2.1765 5.9246,2.4184 5.3201,0.12084 5.1992,-4.9576 4.3528,-6.4086 1.2091,-3.7484 3.7483,-3.0229 2.8153,-1.7664 0.96568,-2.4658 -0.35939,-1.8464 -1.9574,-2.4511 -3.6241,1.1112 -2.2093,-2.1471 3.8988,-3.1602 1.1633,1.3465 1.2059,1.7418 4.0064,2.5164 2.0489,1.134 c 0.84526,-0.62858 -1.6988,1.0025 2.5358,-1.8857 l 1.6895,0.83345 -2.232,3.5687 -3.0554,2.5033 -5.8037,9.6734 -5.441,7.255 -2.781,4.353 3.6274,1.6928 6.892,-8.4642 4.3528,-6.2877 5.9246,-3.5066 0,-3.6275 0.9673,-4.4739 1.0882,-3.7484 0.12085,-3.5066 4.5946,-2.7811 5.0783,2.0556 -0.99787,8.9479 c -0.27194,1.1689 -1.0872,1.5226 -0.81578,3.5066 l 5.6828,3.6275 1.4509,3.6275 3.1437,2.902 0,6.0459 4.7155,3.3857 7.1338,1.2092 2.5391,3.0229 8.4638,3.1438 2.9019,1.0883 -5.3201,-5.0786 -1.0882,-1.3301 -4.111,-0.12085 -2.781,-1.2092 c 0,0 -1.6928,-1.3301 -0.96729,-1.8138 0.72548,-0.48367 4.7156,-0.48367 4.7156,-0.48367 l 6.6501,-0.24184 5.4704,-0.78101 6.0228,-1.6895 5.4478,-3.0295 0.61073,-3.1701 2.6404,-4.0263 7.6994,-8.8236 c 0,0 -9.7549,-4.961 -10.118,-5.5656 -0.36274,-0.60459 -14.679,-5.2583 -14.679,-5.2583 l -0.53593,-4.9739 -1.8334,-5.1243 -5.6828,-3.8694 -9.0683,-2.902 -7.9802,-0.72549 -9.9147,2.7811 -7.3756,2.1765 -3.5064,-5.5622 -4.5946,-0.96734 -11.124,8.2224 -9.4311,6.2877 0.36274,6.7714 -2.9019,6.6505 -21.28,-1.9347 -8.4638,-1.2092 -3.1437,-1.451 -4.111,2.4183 -4.2319,1.3301 c 0,0 -3.9901,-3.6275 -4.7155,-4.1112 -0.72546,-0.48366 -6.4083,-5.6831 -6.4083,-5.6831 l -1.5718,-6.7714 -6.4083,-3.1438 -12.938,-10.641 -3.8692,-10.036 0.72548,-8.2224 -1.6928,-13.905 2.6601,-7.8596 6.2874,-14.268 c 0,0 7.8592,-5.9249 8.5847,-6.1668 0.72548,-0.24183 8.5847,-4.5948 8.5847,-4.5948 l 17.895,-2.4184 9.9147,-2.2974 4.5946,-5.6831 5.9247,-2.2974 5.9246,-0.36275 3.8692,-3.2648 -2.0555,-6.5295 -5.1992,-4.8367 -1.9346,-3.8694 6.2874,-4.4739 5.8037,-6.2877 1.8137,-6.8923 2.2973,-5.4413 -2.2973,-4.9576 -0.12085,-8.1015 2.781,-6.0459 c 0,0 9.1893,-6.5295 9.7938,-7.0132 0.60455,-0.48367 9.3102,-9.3106 9.3102,-9.3106 l 0.72547,-4.9576 13.3,-1.9347 12.575,0.48367 c 0,0 5.9246,0.60458 7.0128,0.60458 1.0882,0 10.519,4.1112 10.519,4.1112 l 5.6828,10.52 2.5391,9.1897 7.9801,3.0229 5.8038,6.4086 1.0882,15.719 0.36273,9.4316 8.8265,9.0688 10.277,10.883 6.1665,7.255 7.4965,15.961 7.3756,8.9479 0.84636,7.9806 -5.3201,-3.5066 -15.96,-8.706 -11.245,2.6602 -13.3,12.817 -7.9801,12.696 -10.519,13.906 -5.1992,8.827 -1.5719,4.2321 6.1665,0.48367 4.3528,-6.2877 c 0,0 5.5619,-6.1668 5.5619,-6.6505 0,-0.48367 6.0456,-8.827 6.2874,-9.5525 0.24183,-0.7255 6.6501,-9.0688 6.6501,-9.0688 l 9.552,-9.7943 2.1764,-5.925 9.4311,2.5393 16.323,10.762 12.212,11.85 c 0,0 3.0228,9.9152 3.1437,10.883 0.12084,0.96734 0.60455,6.4086 0.60455,6.4086 l -8.7056,3.7484 -0.36274,2.1765 -3.5064,-4.1112 -4.7155,-4.5949 -3.7482,3.7484 0.12084,3.1438 -3.1437,-0.12084 -0.24182,-4.2321 -2.0555,2.0556 -0.36274,2.6602 -6.771,4.5949 -0.60456,5.5622 3.5064,0.48367 3.9901,-4.7158 5.3201,-4.4739 6.6501,4.1112 5.9246,-0.36274 c 0,0 2.781,-1.9347 3.1437,-2.6602 0.36274,-0.72549 12.938,5.6831 12.938,5.6831 l 6.5292,3.2648 c 0,0 6.771,0.60459 7.0129,-0.36275 0.24182,-0.96734 2.2973,-4.353 2.2973,-4.9576 0,-0.6046 3.9901,-0.96734 3.9901,-0.96734 l 5.3201,0.72549 4.111,-10.278 7.8592,-20.314 6.4083,0 0.48365,19.71 2.781,23.821 2.4182,14.631 2.781,4.8367 6.8919,-3.8694 8.8265,-13.301 0.24183,-6.6504 -4.4737,-14.631 1.8137,-6.8923 0.60457,-4.7158 0.24181,-8.827 0.48365,-8.2224 3.6064,-4.4739 c 0,0 5.9246,16.213 7.1762,41.323 2.4557,49.267 -12.234,77.581 -12.234,77.581 -10.538,24.256 -14.574,30.472 -13.901,28.867 l -15.722,15.468 c 0,0 -7.4965,7.376 -7.4965,7.8596 0,0.48366 -14.026,14.268 -14.026,14.268 l -13.421,11.85 -7.9801,3.3857 -4.111,-1.451 -4.3528,3.0229 -5.1025,3.8339 -12.671,9.467 5.1814,2.3119 c 0,0 -12.235,6.312 -18.159,8.3676 -5.9246,2.0556 -13.427,5.2541 -28.262,8.0272 -14.341,2.6807 -27.806,2.694 -35.57,2.8327 l -14.045,-0.77954 c 0,0 -12.817,-1.6256 -18.398,-2.7695 0,0 -2.4514,-0.40443 -14.502,-3.5435 -12.254,-3.7192 -20.06,-6.9608 -20.06,-6.9608 -13.824,-6.4492 -16.639,-7.9227 -21.009,-10.498 -7.6172,-4.4883 -14.75,-9.4436 -14.75,-9.4436 0,0 -5.3643,-3.7375 -12.237,-9.5064 -2.9076,-2.4407 -8.9902,-7.8508 -8.9902,-7.8508 l -10.074,-10.681 -6.4293,-7.5307 -0.67796,-0.72063 z" />
        <path
           style="fill:#54801f;fill-rule:evenodd"
           d="m 483.31281,426.88732 2.44946,-0.39597 0.98689,0.4831 0.91289,-0.30823 1.80732,-0.39921 0.67417,0.53362 0.12611,0.78285 5.11241,3.18986 5.19662,0.39166 1.20205,0.82315 0.57327,-0.0926 0.0567,-0.97319 1.07936,-0.60282 0.89435,-0.091 0.68256,0.58584 0.8423,-1.7426 1.64078,-0.10458 1.98387,-0.96327 0.73467,0.57741 1.45255,-0.60962 3.47343,1.31277 2.6915,-0.22087 3.734,2.93069 0.77165,0.14306 0.62205,0.54205 1.61567,-0.26115 0.37829,0.68855 1.04234,-0.16847 0.82043,-0.88231 0.88596,-0.14321 0.94486,-1.43791 0.60018,-1.9176 2.73199,-1.29837 -0.0285,-1.17347 -0.2118,-0.98319 -0.4405,-0.41075 0.51953,-1.42268 1.07596,-4.93988 1.36681,-0.80994 0.65736,-1.2308 -0.20342,-0.93097 -1.34494,-0.0507 -0.64558,0.63984 0.13208,-1.99952 -20.64193,-7.66719 -3.04578,0.096 -0.60094,0.3559 -0.67754,0.1096 -0.26393,-0.97477 -0.80358,-0.67337 -0.6103,0.52704 -0.46401,0.77114 -0.007,1.28625 0.78509,0.89053 0.29255,0.48823 -1.14661,0.1853 -0.51778,-0.55886 -0.16981,-0.72225 -0.80528,-0.35176 -1.29787,0.90589 -1.10286,0.12475 -1.45929,-1.42416 -0.81873,-1.09927 -0.87419,-0.44776 -0.58843,-0.33324 -0.63382,0.0489 -1.53322,-0.55537 -1.47611,0.13149 -0.68255,1.07419 -0.8793,0.51696 -2.64617,1.49872 -2.22933,-0.22875 -0.65732,-2.08928 -1.63742,-0.53854 -1.41385,-0.14639 -1.26258,0.79314 -0.41528,1.40582 -0.31265,0.0506 -0.34468,-0.47979 -0.53125,0.35361 -0.13279,0.50342 -0.78178,0.12636 -0.49257,-0.40234 -0.11941,-0.40908 -0.75319,-0.36022 -0.0907,0.76438 -0.87422,-0.44771 -1.20544,-0.18 0.25721,0.601 0.92634,0.43934 0.87593,0.1261 0.73464,0.5774 -1.60551,-0.008 -1.21385,-0.2322 -0.27233,0.63308 0.70945,0.42081 -0.0975,0.39058 -0.90444,0.3604 -0.0722,0.54719 -0.55985,0.84017 0.35304,0.53199 -0.12616,0.87714 -1.12135,0.34192 -0.91285,0.30821 -0.88771,0.46475 0.40519,0.52357 0.22696,1.40914 0.36481,-0.059 0.49933,-0.88391 0.0807,-0.495 0.69431,-0.005 -10e-4,0.32161 -0.48923,0.61456 0.10093,0.62626 0.50102,0.45454 -0.27234,0.63306 -0.38669,0.91929 0.16137,0.67007 0.27405,0.70538 -1.49207,-0.13368 -0.9507,0.0734 0.32948,1.71384 2.26704,2.12356 0.89271,0.23057 0.50268,0.13291 0.81034,-0.61294 0.69013,-0.0313 0.25637,0.76175 0.56401,0.0167 0.40601,-0.46724 2.75037,0.14442 0.712,-0.0616 -0.31941,0.50679 -0.28921,0.52872 1.95185,0.16637 0.91958,0.0655 -0.63716,0.69204 -1.05075,0.11628 -0.36397,0.72818 0.23955,0.65746 -0.1043,0.0168 10e-5,-3.2e-4 z"
           id="path3304" />
        <path
           style="fill:#629a28;fill-rule:evenodd"
           d="m 482.53261,427.01142 -0.36818,-0.95794 -0.57159,-0.22889 -1.89298,0.19888 -1.58703,-0.22541 -1.19364,-0.77095 -0.98517,-0.80463 -0.95384,-0.50033 c -0.60194,-0.5275 -1.70804,-1.37015 -1.80552,-1.58234 l 0.002,1.56442 1.1533,0.18848 -0.51596,-0.23947 -0.53648,0.67737 -0.45394,0.50177 0.40349,0.84512 0.31101,1.93109 0.75485,0.0392 0.24543,1.19195 -0.42701,0.33678 0.5615,0.49827 1.96696,0.59239 0.69769,-0.64828 1.80227,0.56547 0.14295,-0.77277 0.29925,-0.79806 0.63716,-0.69203 0.57497,-0.41421 1.7383,-0.49518 3e-5,-7e-4 z"
           id="path4275" />
        <path
           id="path7340"
           style="fill:#97c750;fill-rule:evenodd;stroke:#000000;stroke-width:1.57969999"
           d="m 421.808,514.55 c 0,0 5.1961,-1.0785 5.4902,-1.4707 0.29413,-0.39217 2.1569,-2.157 2.1569,-2.6472 0,-0.49021 -1.1765,-4.314 -1.1765,-4.314 l -3.7255,-1.4707 -4.4118,0.58827 -2.7451,5.7846 2.0588,2.7452 2.353,0.78436 z" />
        <path
           id="path7344"
           style="fill:#78ad39;fill-rule:evenodd;stroke:#000000;stroke-width:1.57969999"
           d="m 421.908,487.88 c 0,0 0.29412,-5.5886 0.29412,-6.0788 0,-0.49023 -1.8628,-6.3729 -1.2745,-7.4514 0.58825,-1.0785 3.4314,-5.3924 3.4314,-5.3924 l 1.0784,-3.0394 c 0,0 -1.6667,-1.8629 -2.3529,-2.4511 -0.68629,-0.58826 -5.8824,-3.0394 -5.8824,-3.0394 l -6.5686,3.1374 -0.0981,5.7846 4.7059,4.314 -0.58824,1.1765 c 0,0 -3.4314,-1.4707 -3.7255,-2.0589 -0.29412,-0.58826 -1.8628,-3.7257 -2.7451,-3.7257 -0.88237,0 -3.2353,0.49023 -3.2353,0.49023 0,0 -3.5294,3.6276 -3.0392,4.1179 0.4902,0.49022 5.1961,7.7455 5.1961,7.7455 l 5.8824,-0.29413 c 0,0 0.88235,-3.3335 0.88235,-3.7257 0,-0.39217 1.1765,-2.157 1.1765,-2.157 l 2.353,0.19609 c 0,0 -1.0784,4.1179 -0.9804,4.7062 0.0981,0.58826 -0.98039,5.9807 -0.98039,5.9807 l 1.8628,3.9218 3.5294,-0.88241 1.0784,-1.2746 z" />
        <path
           id="path7346"
           style="fill:#578821;fill-rule:evenodd;stroke:#000000;stroke-width:1.57969999"
           d="m 354.748,509.06 0.19607,-4.9022 c 0,0 -2.6471,-0.98045 -2.6471,-1.3726 0,-0.39218 0.39216,-4.2159 0.39216,-4.2159 l -3.1373,-4.6081 c 0,0 -3.3333,0.0981 -3.3333,0.49021 0,0.39218 -2.1569,4.2159 -1.4706,4.9022 0.68628,0.6863 1.9608,5.0983 1.9608,5.0983 l -1.6667,2.0589 1.3726,2.4511 3.3334,-0.29413 2.353,-0.39219 1.9608,2.3531 0.78432,-0.8824 -0.0981,-0.68632 z" />
        <path
           id="path7348"
           style="fill:#21811b;fill-rule:evenodd;stroke:#000000;stroke-width:1.57969999"
           d="m 434.848,427.19 -0.19609,-2.9414 -1.1765,-3.4316 -2.353,-0.0981 c 0,0 -0.19608,2.8433 -0.19608,3.3335 l 0,3.3335 1.7647,1.4707 1.4706,-0.78436 0.68629,-0.88239 z" />
        <path
           id="path5256"
           style="fill:#21811b;fill-rule:evenodd;stroke:#000000;stroke-width:0.15797"
           d="m 496.048,402.01 -1.1964,-0.33283 -0.28552,-0.0468 0.28497,-0.72539 0.64627,-0.78345 0.8639,-0.0992 0.78702,0.005 0.68989,0.55531 0.97599,0.43286 0.58591,0.45189 -0.0307,0.0813 -1.2484,0.38635 -0.71385,-0.0927 -1.3592,0.16819 z" />
        <path
           style="fill:#537e1f;fill-rule:evenodd;stroke:#000000;stroke-width:0.31595153"
           d="m 498.69847,403.12328 -2.34808,-0.58019 -0.34768,-0.54672 1.32564,-0.32142 0.77622,-0.156 1.16135,-0.10384 0.20741,0.37904 0.17144,0.68293 0.85227,0.88238 0.56566,1.02113 -0.99528,-0.42692 -1.36899,-0.83023 z"
           id="path5254" />
        <path
           id="path7336"
           style="fill:#382905;fill-rule:evenodd;stroke:#000000;stroke-width:0.78985"
           d="m 544.158,264.24 -5.2942,-3.9218 -3.7255,-0.19609 -2.549,-1.9609 -0.78431,-3.3335 5.4902,0.39216 -3.1373,-2.3531 c 0,0 -4.5098,-0.78436 -4.5098,-1.5687 0,-0.78435 -0.58823,-3.7257 -0.58823,-4.51 0,-0.78436 0.39215,-6.2748 1.1765,-6.2748 0.78432,0 5.0981,1.1765 6.0785,0.98044 0.9804,-0.19608 7.0589,1.1765 7.0589,1.1765 0,0 0.39215,3.9218 0.39215,4.7062 0,0.78436 0.39217,4.9022 1.9608,5.6866 1.5686,0.78436 4.1177,3.3335 4.902,4.314 0.78432,0.98045 2.9412,4.314 2.353,5.2944 -0.58823,0.98045 -0.58823,4.9022 -0.58823,4.9022 l -2.353,2.157 c 0,0 -4.1177,0 -4.1177,-1.1766 0,-1.1765 -1.7647,-4.51 -1.7647,-4.314 z" />
        <path
           style="fill:none;stroke:#000000;stroke-width:1.57969916"
           d="m 506.87842,405.34101 -0.464,1.41945 -0.007,1.28625 0.78509,0.89053 0.29255,0.48824 -1.1466,0.18529 -0.51778,-0.55885 -0.16982,-0.72225 -0.80527,-0.35176 -1.29788,0.90589 -1.10285,0.12474 -1.4593,-1.42415 -0.81873,-1.09928 -0.87419,-0.44775 -0.58843,-0.33325 -0.63382,0.0489 -1.53322,-0.55538 -1.47611,0.13149 -0.68255,1.07419 -0.87929,0.51697 -2.64618,1.49872 -2.22932,-0.22876 -0.65733,-2.08927 -1.63741,-0.53854 -1.41385,-0.1464 -1.26259,0.79314 -0.41527,1.40583 -0.31266,0.0506 -0.34467,-0.47979 -0.53125,0.35361 -0.13279,0.50342 -0.78179,0.12636 -0.49257,-0.40234 -0.11941,-0.40908 -0.75318,-0.36022 -0.0907,0.76438 -0.87422,-0.44771 -1.20544,-0.18 0.25721,0.601 0.92634,0.43934 0.87593,0.12611 0.73464,0.5774 -1.60551,-0.008 -1.21385,-0.2322 -0.27232,0.63309 0.70945,0.4208 -0.0975,0.39058 -0.90444,0.3604 -0.0722,0.54719 -0.55985,0.84018 0.35304,0.53198 -0.12615,0.87714 -1.12136,0.34192 -0.91285,0.30821 -0.88771,0.46475 0.40519,0.52357 0.22696,1.40915 0.36481,-0.0591 0.49933,-0.8839 0.0807,-0.49501 0.69431,-0.005 -0.001,0.3216 -0.48923,0.61457 0.10094,0.62625 0.50101,0.45454 -0.27234,0.63307 -0.38669,0.91929 0.16137,0.67006 0.27405,0.70538 -1.49207,-0.13367 -0.9507,0.0733 0.32948,1.71384 2.26705,2.12357 0.8927,0.23056 0.50269,0.13292 0.81033,-0.61295 0.69013,-0.0313 0.25637,0.76176 0.56402,0.0167 0.40601,-0.46724 2.75036,0.14443 0.712,-0.0616 -0.31941,0.5068 -0.28921,0.52871 1.95185,0.16637 0.91959,0.0656 -0.63717,0.69205 -1.05074,0.11628 -0.36398,0.72818 0.23956,0.65745 -0.1043,0.0168 9e-5,-3.1e-4 2.44946,-0.39597 0.98689,0.48309 0.91289,-0.30822 1.80732,-0.39921 0.67418,0.53362 0.1261,0.78285 5.11242,3.18986 5.19661,0.39166 1.20205,0.82315 0.57327,-0.0926 0.0567,-0.97319 1.07936,-0.60282 0.89436,-0.091 0.68255,0.58584 0.8423,-1.7426 1.64079,-0.10458 1.98386,-0.96327 0.73468,0.57741 1.45255,-0.60962 3.47343,1.31277 2.95092,-0.38294 c 3.04333,2.46654 2.3626,3.43902 2.3626,3.43902"
           id="path3304-7" />
        <path
           style="fill:none;stroke:#000000;stroke-width:1.57969916"
           d="m 478.52683,430.38786 0.29925,-0.79806 1.07267,-2.38828 0.57498,-0.4142 1.73829,-0.49519 3e-5,-6.9e-4 -0.36817,-0.95794 -0.57159,-0.2289 -1.89299,0.19889 -1.58702,-0.22541 -1.19364,-0.77095 -0.75596,-0.71296 -1.32059,-0.56909 -1.66575,-0.0408 0.10093,0.62639"
           id="path4275-7" />
        <path
           style="fill:#ff7f2a"
           d="m 343.77398,552.90601 c 33.07794,19.57127 63.29165,-31.84397 48.20752,-63.17719 -9.99314,-20.75902 -32.3804,-36.81533 -51.48318,-42.02304 -36.23396,-9.87833 -54.1223,-1.37368 -78.55948,23.07736 -24.43719,24.45104 -64.87339,107.10952 -38.41695,139.38128 23.66343,28.86648 45.34919,23.11256 52.13697,7.41774 6.97122,-16.12457 4.26729,-45.73287 12.21797,-58.59568 18.57956,-30.0576 55.89918,-6.08077 55.89918,-6.08077 z"
           id="path5208" />
        <path
           style="fill:#ff7f2a"
           d="m 448.23431,526.53791 c -17.08866,5.82766 -35.30244,-2.23549 -40.68172,-18.00915 -5.37967,-15.77394 4.11242,-33.28544 21.20108,-39.1131 17.08866,-5.82766 35.30176,2.23559 40.68143,18.00954 5.3731,15.77387 -4.11744,33.28652 -21.20195,39.11426 z"
           id="path5210" />
        <path
           style="fill:#ff7f2a"
           d="m 390.46549,471.93567 c -7.92294,-4.02963 -11.1819,-13.51715 -7.27865,-21.19234 3.90286,-7.67547 16.0032,-14.57868 23.92576,-10.54933 7.92313,4.02857 11.1819,13.51715 7.27865,21.19234 -3.90324,7.67518 -16.00253,14.57858 -23.92615,10.54905 z"
           id="path5212" />
        <path
           style="fill:#ff7f2a"
           d="m 371.31653,450.06692 c -8.1801,2.68884 -14.82315,-0.561 -17.5988,-9.00473 -2.77564,-8.44373 4.56547,-21.18569 12.74586,-23.87492 8.17981,-2.68845 14.82248,0.5611 17.59851,9.00512 2.77719,8.44488 -4.56353,21.18713 -12.74518,23.87482 z"
           id="path5214" />
        <path
           style="fill:#ff7f2a"
           d="m 343.80756,436.20891 c -5.60369,4.98447 -14.48621,4.14643 -19.84001,-1.87252 -5.3538,-6.01896 -3.8567,-18.78144 1.74699,-23.7659 5.6037,-4.98447 14.48621,-4.14643 19.83963,1.87224 5.35341,6.01867 3.85854,18.78219 -1.74632,23.7658 z"
           id="path5216" />
        <path
           style="fill:#ff7f2a"
           d="m 311.81891,425.53649 c -0.39053,8.04567 -6.10551,14.30576 -12.76402,13.98248 -6.65821,-0.32366 -11.73927,-7.10783 -11.34845,-15.15388 0.39091,-8.04538 6.1059,-14.30547 12.76412,-13.98181 6.65821,0.32366 11.73898,7.10822 11.34749,15.15437 z"
           id="path5218" />
        <g
           transform="matrix(0.50663,0,0,0.50666,-28.506,216.98)"
           id="g3954">
          <ellipse
             transform="matrix(3.059,0.447,-0.4452,3.0211,-685.04,-269.08)"
             style="fill:url(#linearGradient3154);stroke:#000000;stroke-width:1.52219999"
             id="path20954"
             cx="568.75159"
             cy="127.61327"
             rx="117.92101"
             ry="119.90704" />
          <g
             id="g3948">
            <a
               transform="matrix(3.118,0,0,3.118,-105.22,-1206.6)"
               id="a22927">
              <ellipse
                 transform="matrix(0.98108,0.14336,-0.14279,0.96893,-185.31,299.78)"
                 style="fill:url(#radialGradient3156);stroke:#3d3d3d;stroke-width:1.52219999"
                 id="path13191"
                 cx="568.75159"
                 cy="127.61327"
                 rx="117.92101"
                 ry="119.90704" />
            </a>
          </g>
        </g>
        <g
           transform="translate(27.778,-19.444)"
           id="g3701">
          <circle
             transform="matrix(0.27151,0,0,0.28245,359.77,313.65)"
             style="opacity:0.51163001;fill:url(#radialGradient3158);enable-background:new"
             id="path3929"
             cx="348.00336"
             cy="351.99664"
             r="322.94711" />
          <ellipse
             transform="matrix(0.88235,0,0,0.8,149.4,133.43)"
             style="fill:#ffffff;filter:url(#filter6611)"
             id="path6457"
             cx="379.16666"
             cy="318.19739"
             rx="23.611111"
             ry="27.777779" />
        </g>
        <path
           style="fill:#bee86d;fill-rule:evenodd;stroke:#000000;stroke-width:0.78985"
           d="m 488.61,242.48 5.6863,0.6863 1.0784,3.9218 -3.4314,3.4316 -5.3922,-1.7648 c 0,0 -5.8824,-2.255 -6.1765,-2.9413 -0.29412,-0.68631 1.7647,-3.8237 1.7647,-3.8237 l 3.9216,-0.29413 2.549,0.78436 z"
           id="path7338" />
        <path
           d="M 394.69,227.25 C 250.2,299.226 192.05,437.86 192.05,437.86 c 19.036,-27.742 41.988,-52.269 66.709,-73.841 -38.053,59.473 -55.119,115.31 -55.119,115.31 l -27.167,36.057 c 3.2627,9.1053 37.198,24.321 48.224,-8.8729 111.91,-336.89 362.82,-253.56 456.24,-208.43 0.10829,0.0523 0.47297,0.40989 0.58089,0.46211 0.9202,0.98263 9.3127,3.8781 22.985,11.645 -2.3035,20.325 -13.932,141.34 -110.71,226.45 -61.486,54.068 -187.26,54.206 -290.44,50.087 0,0 130.22,25.781 246.5,-9.1611 136.06,-40.888 181.01,-209.37 185.83,-261.73 3.7057,-1.4086 6.5533,-3.3211 6.4825,-3.3796 -0.11324,-0.0939 62.062,-33.013 39.11,-43.44 -46.558,-21.151 -88.202,-35.985 -126.88,-45.35 -16.294,-3.9454 -31.865,-6.6872 -47.275,-8.7735 55.205,-10.07 93.773,-13.468 96.965,-15.058 -0.17644,-0.0726 -0.18831,-0.39474 -0.58089,-0.46211 -5.5529,-0.95263 -41.506,-10.736 -97.925,-13.782 -84.628,-4.5694 -154.35,13.497 -210.89,41.662 z"
           style="fill:#ff5555;fill-rule:evenodd;stroke:#000000;stroke-width:1.06229997;filter:url(#filter5128)"
           id="path3170" />
      </g>
    </g>
  </g>
</svg>
